<svg width="636" height="636" viewBox="0 0 636 636" fill="none" xmlns="http://www.w3.org/2000/svg">
<g clip-path="url(#clip0)">
<path d="M635.34 317.67C635.34 142.226 493.114 0 317.67 0C142.226 0 0 142.226 0 317.67C0 493.114 142.226 635.34 317.67 635.34C493.114 635.34 635.34 493.114 635.34 317.67Z" fill="#0077FF"/>
<path d="M481.76 309.25C471.27 276.98 456.24 247.09 432.06 222.69C399.77 190.1 359.33 185.38 321.59 209.74C317.65 212.29 315.66 210.54 312.81 208.74C283.41 190.32 253.34 188.97 223.47 206.89C200.99 220.35 185.91 240.96 173.47 263.55C153.88 299.18 143.8 337.81 138.22 377.78C135.401 396.96 134.028 416.324 134.11 435.71C134.11 438.42 133.62 441.16 137.97 441.08C148.12 440.88 158.27 441 168.43 441.02C170.43 441.02 171.89 440.74 172.07 438.2C172.3 435.07 172.9 431.98 173.35 428.88C177.35 420.22 182.58 412.51 190.01 406.33C203.13 395.41 218.31 389.14 234.78 385.33C239.93 384.14 239.9 386.12 239.34 389.9C237.09 405.08 236.95 420.39 236.78 435.71C236.78 439.71 237.78 441.34 242.06 441.16C249.06 440.86 256.06 441.08 263.06 441.08C273.26 441.08 273.23 441.08 275.64 431.62C276.68 427.215 278.495 423.03 281 419.26C289 407.59 300.1 399.75 312.51 393.42C316.32 391.47 319.6 391.76 323.32 393.61C338.38 401.1 351.11 411.01 358.79 426.43L358.97 426.29C359.46 428.6 359.97 430.92 360.46 433.24C360.46 433.58 360.46 433.9 360.46 434.24C359.6 439.02 361.06 441.32 366.46 441.12C375.46 440.79 384.46 440.72 393.46 441.12C399.02 441.39 399.94 438.97 399.34 434.3C397.34 418.92 398.52 403.3 395.83 387.96C395.4 385.49 395.89 384.06 399.01 384.81C425.37 391.19 448.95 401.56 461.7 427.81L461.83 427.7L463.51 438.7C463.6 438.35 463.69 437.99 463.77 437.65C463.71 438.31 463.63 438.98 463.51 439.65C464.39 441.55 466.15 441.04 467.64 441.04C477.12 441.09 486.64 440.88 496.06 441.16C500.38 441.28 501.26 439.63 501.24 435.64C501 392.51 495.07 350.28 481.76 309.25ZM271.76 267.65C260.07 290.784 251.38 315.316 245.9 340.65C244.6 346.5 241.9 349.38 235.74 350.28C227.47 351.47 219.05 352.52 211.36 356.15C200.327 359.125 189.832 363.819 180.26 370.06C180.18 370.25 180.09 370.44 180 370.63C183.11 347.392 189.301 324.673 198.41 303.07C206.89 282.74 217.41 263.66 233.87 248.57C247.31 236.21 262.61 230.12 280.93 237.14C288.42 240.02 288.52 240.25 284.19 246.74C279.633 253.465 275.466 260.447 271.71 267.65H271.76ZM346 350.82C337.77 351.75 329.65 353.77 321.5 355.41C318.855 355.919 316.133 355.889 313.5 355.32C305.13 353.63 296.76 351.9 288.32 350.63C285.07 350.14 284.16 349.38 285 346.02C291.87 318.59 301.34 292.27 317.64 267.64C330.5 286.21 338.72 306.08 345.16 326.75C346.96 332.54 348.16 338.52 349.98 344.31C351.26 348.3 351.21 350.24 346 350.82ZM426.85 357.38L426.68 357.17C418.68 352.64 409.51 351.83 400.68 350.59C393.56 349.59 390.83 346.25 389.34 339.69C381.75 306.29 370.14 274.49 350.86 245.84C347.6 240.99 348.13 239.65 353.68 237.43C370.92 230.55 386.01 235.21 399.38 246.72C414.52 259.72 424.87 276.35 433.26 294.23C444.67 318.41 451.54 344 456 370.17C446.45 365.59 437.3 360 426.88 357.38H426.85Z" fill="white"/>
</g>
<defs>
<clipPath id="clip0">
<rect width="635.34" height="635.34" fill="white"/>
</clipPath>
</defs>
</svg>
