<svg xmlns="http://www.w3.org/2000/svg" viewBox="0 0 527.73 355.06"><defs><style>.cls-1{fill:#4372b8;}.cls-2{fill:#4971b7;}.cls-3{fill:#4e75ba;}.cls-4{fill:#466fb6;}</style></defs><title>Asset 9</title><g id="Layer_2" data-name="Layer 2"><g id="Layer_1-2" data-name="Layer 1"><path class="cls-1" d="M499.75,165.43C484.68,119,463.07,76.07,428.31,41,381.89-5.86,323.75-12.64,269.51,22.38,263.84,26,261,23.52,256.88,21,214.62-5.52,171.39-7.46,128.45,18.29c-32.31,19.36-54,49-71.84,81.45C28.45,151,14,206.5,6,264,2.11,291.56-.29,319.31,0,347.23c.05,3.9-.7,7.84,5.56,7.72,14.59-.29,29.18-.11,43.78-.09,2.85,0,5-.4,5.24-4.05.32-4.49,1.19-8.94,1.83-13.4v0c5.77-12.45,13.28-23.53,24-32.42,18.86-15.7,40.68-24.71,64.36-30.24,7.39-1.72,7.35,1.13,6.55,6.56-3.24,21.83-3.44,43.83-3.68,65.85-.06,5.83,1.48,8.1,7.59,7.84,10-.43,20.08-.11,30.12-.11,14.66,0,14.61,0,18.08-13.6a54.93,54.93,0,0,1,7.72-17.7c11.51-16.77,27.45-28.05,45.29-37.15,5.49-2.8,10.2-2.38,15.54.28,21.65,10.76,40,25,51,47.18l.25-.21c2.17-1.91,1.67-4.59,1.82-7.09.34,5.69.26,11.39.32,17.09,0,.48,0,.95,0,1.43-1.24,6.87.87,10.19,8.6,9.9,12.93-.48,25.9-.58,38.81,0,8,.38,9.32-3.09,8.45-9.81-2.86-22.11-1.18-44.57-5-66.61-.62-3.56.09-5.61,4.57-4.53,37.89,9.17,71.79,24.08,90.12,61.75a4.38,4.38,0,0,0,1.7-3.17c.92,6.69,2.09,13.36.9,20.17,1.27,2.73,3.8,2,5.94,2,13.62.07,27.25-.24,40.85.16,6.22.18,7.48-2.2,7.45-7.93C527.41,285.11,518.89,224.41,499.75,165.43ZM56.83,319.87c-.06.39-.12.79-.17,1.19s-.14.91-.2,1.37c-.29,2.58-.83,5.17-1,7.75a45.48,45.48,0,0,1,.92-9.3c.1-.48.19-1,.3-1.45.28-1.36.6-2.71.94-4.06C57.33,316.85,57.06,318.35,56.83,319.87Zm141-214.25c-17.07,33.35-29.06,68.51-37.17,105-1.87,8.42-5.7,12.56-14.61,13.85-13,1.88-26.35,3.51-38.24,10.07-.65.75-1.32,1.49-2,2.21-4.39,4.74-9.24,9-13.5,13.88C76.11,269,63.37,289.19,58.11,313.06c1.78-18.58,3.47-37.17,7.3-55.48q.15-1.31.33-2.61a379.19,379.19,0,0,1,26.63-98.4c12.19-29.23,27.39-56.65,51-78.35C162.66,60.45,184.66,51.7,211,61.8c10.77,4.13,10.92,4.47,4.69,13.8A304.49,304.49,0,0,0,197.8,105.62Zm71.62,126.16a28.65,28.65,0,0,1-11.52-.13c-12-2.42-24.06-4.91-36.19-6.74-4.68-.7-6-1.79-4.78-6.63,9.88-39.42,23.49-77.26,46.93-112.67,18.48,26.7,30.29,55.26,39.55,85,2.59,8.32,4.33,16.91,6.94,25.23,1.8,5.74,1.73,8.53-5.71,9.37C292.8,226.52,281.14,229.43,269.42,231.78Zm50.52,70.32a219.12,219.12,0,0,0-9.61-21.18c-1.18-2.32-2.51-5.06,1.26-6.32a4.84,4.84,0,0,1,6.42,2.81,26.43,26.43,0,0,1,1.94,8.48c1,10.86,2.23,21.69,4.25,32.4,0,.11,0,.22-.05.33A79.18,79.18,0,0,0,319.94,302.1ZM471,318.31c-.08-.5-.17-1-.26-1.49-.06-.33-.12-.65-.19-1-3.66-18.85-12.84-35.25-23.31-51-6.91-10.42-16.53-18.51-24.57-28-.71-.83-1.4-1.67-2.08-2.52-11.58-6.51-24.69-7.67-37.34-9.46-10.23-1.46-14.16-6.23-16.3-15.67-10.91-48-27.6-93.72-55.31-134.91-4.69-7-3.93-8.9,4.05-12.09,24.78-9.89,46.48-3.19,65.7,13.35,21.76,18.71,36.64,42.6,48.7,68.3,16.56,35.28,26.48,72.56,32.95,110.83.15.82.28,1.64.42,2.47,2,16.3,4.28,32.59,5.64,49a83.36,83.36,0,0,1,1.73,8.91q.12.75.21,1.5c.27,2.14.47,4.28.64,6.43A33.28,33.28,0,0,0,471,318.31Z"/><path class="cls-1" d="M325.36,343.67q-1.08-5-2.14-10c2.17-1.91,1.67-4.59,1.82-7.09C325.38,332.27,325.3,338,325.36,343.67Z"/><path class="cls-1" d="M473,328.3c3.34,7.66,2.47,15.4.47,23.17q-1.31-8.5-2.6-17c.05-1.41.1-2.83.16-4.25C471.78,329.66,471.83,328.38,473,328.3Z"/><path class="cls-1" d="M66.28,252.87C80.22,244.05,95,237,111,232.88,104,243.37,93.2,250.51,86.07,261c-12,17.76-22.18,36.25-25.76,57.73-5.07-1.48-2.54-4.83-1.9-7.72-1.39-16.7,3.35-32.88,4.27-49.4C62.84,258.65,65,255.79,66.28,252.87Z"/><path class="cls-1" d="M419.41,234.25c16.06,3.75,30,12.47,44.67,19.37a215.89,215.89,0,0,1,6,50.64c.17,4,3.79,8.59-1.89,11.66-7.93-30.43-23.14-56.41-47-77.18C420,237.73,417.33,236.78,419.41,234.25Z"/><path class="cls-1" d="M204.35,308.17c-1-15.54,2.89-30.66,4-46a7.69,7.69,0,0,1,3.66-6.36c10.74-7.32,22.7-12.15,34.61-17.07,1.77-.73,4.23-1.16,5.29.71,1.22,2.12-1.1,3.18-2.48,4.51a153.61,153.61,0,0,0-43.16,74C201.28,315.5,203.68,311.67,204.35,308.17Z"/><path class="cls-1" d="M325.15,318c-.46,2.64.89,5.74-2,7.75-1.33-16.48-8.74-30.81-15.87-45.26-1-2.08-4.64-3.91-2.09-6.58,3.18-3.32,7.73-2.65,11.93-2.5,3.52.13,3.76,2.61,4.11,5.36C323,290.42,325.19,304.08,325.15,318Z"/><path class="cls-2" d="M469.17,317.92c3.44-3.43,1.18-7.79,1.89-11.66,3.9,7.53,1,15.62,2,23.4l-2,1.92C471.66,326.86,470.08,322.43,469.17,317.92Z"/><path class="cls-3" d="M56.41,314c.42,2.63-.88,5.68,1.9,7.73-1.22,5.13-2.42,10.27-1.87,15.63v0A31.44,31.44,0,0,1,56.41,314Z"/><path class="cls-4" d="M204.35,308.17c.57,3.26-1.26,7,1.88,9.74q-1.26,4.95-2.53,9.89C203.05,321.08,200.68,314.43,204.35,308.17Z"/></g></g></svg>