<svg xmlns="http://www.w3.org/2000/svg" viewBox="0 0 367.1 246.99"><defs><style>.cls-1{opacity:0.5;}</style></defs><title>Asset 17</title><g id="Layer_2" data-name="Layer 2"><g id="Layer_1-2" data-name="Layer 1"><g class="cls-1"><path d="M347.64,115.08c-10.48-32.28-25.52-62.16-49.7-86.57C265.65-4.08,225.21-8.79,187.48,15.57c-3.95,2.54-5.94.79-8.79-1C149.3-3.84,119.22-5.19,89.35,12.72c-22.47,13.47-37.56,34.08-50,56.66C19.79,105,9.71,143.65,4.14,183.62A388.32,388.32,0,0,0,0,241.54c0,2.72-.49,5.46,3.87,5.37,10.15-.2,20.3-.07,30.45-.06,2,0,3.47-.28,3.65-2.82.22-3.12.83-6.21,1.27-9.32h0c4-8.66,9.24-16.37,16.67-22.55,13.12-10.92,28.3-17.19,44.77-21,5.14-1.2,5.11.79,4.55,4.56-2.25,15.19-2.39,30.49-2.56,45.81,0,4.06,1,5.64,5.28,5.46,7-.3,14-.08,21-.08,10.19,0,10.16,0,12.57-9.46a38.2,38.2,0,0,1,5.37-12.31c8-11.67,19.1-19.52,31.51-25.85,3.82-2,7.09-1.65,10.81.2,15.06,7.48,27.8,17.4,35.48,32.82l.17-.15q.74,3.48,1.49,7c0,.33,0,.66,0,1-.86,4.78.61,7.09,6,6.89,9-.33,18-.4,27,0,5.56.26,6.49-2.15,5.88-6.82-2-15.38-.82-31-3.51-46.34-.43-2.48.07-3.9,3.18-3.15,26.36,6.38,49.94,16.75,62.69,43a.69.69,0,0,0,.13-.11l1.68,11c.09-.34.18-.7.26-1.05-.06.66-.14,1.33-.26,2,.89,1.9,2.65,1.39,4.13,1.39,9.48,0,19-.17,28.42.11,4.33.13,5.2-1.53,5.18-5.51C366.88,198.33,361,156.11,347.64,115.08Zm-210-41.61a304.41,304.41,0,0,0-25.85,73c-1.3,5.86-4,8.74-10.17,9.64-8.27,1.19-16.69,2.24-24.38,5.87l0,0a108.56,108.56,0,0,0-31.1,13.9c-.09.19-.17.39-.26.57a264.06,264.06,0,0,1,18.4-67.55c8.48-20.34,19.06-39.41,35.47-54.51C113.15,42.05,128.45,36,146.77,43c7.49,2.87,7.6,3.11,3.26,9.6A213.2,213.2,0,0,0,137.59,73.47Zm74.33,83.18c-8.24.92-16.35,2.95-24.5,4.58a19.7,19.7,0,0,1-8-.09c-8.37-1.68-16.73-3.41-25.17-4.69-3.26-.48-4.17-1.24-3.33-4.61,6.87-27.42,16.34-53.74,32.65-78.37,12.85,18.57,21.07,38.44,27.51,59.11,1.8,5.79,3,11.76,4.83,17.55C217.14,154.12,217.09,156.06,211.92,156.65Zm80.84,6.55-.17-.21c-8-4.53-17.17-5.33-26-6.58-7.12-1-9.85-4.33-11.34-10.9-7.59-33.4-19.2-65.19-38.47-93.85-3.27-4.84-2.74-6.19,2.81-8.41C236.86,36.37,252,41,265.33,52.54c15.13,13,25.48,29.64,33.87,47.51,11.36,24.19,18.22,49.73,22.72,75.94C312.34,171.42,303.18,165.85,292.76,163.2Z"/></g></g></g></svg>