<svg xmlns="http://www.w3.org/2000/svg" viewBox="0 0 527.73 355.06"><defs><style>.cls-1{fill:#fff;}</style></defs><title>Asset 10</title><g id="Layer_2" data-name="Layer 2"><g id="Layer_1-2" data-name="Layer 1"><path class="cls-1" d="M499.75,165.43C484.68,119,463.07,76.07,428.31,41,381.89-5.86,323.75-12.64,269.51,22.38,263.84,26,261,23.52,256.88,21,214.62-5.52,171.39-7.46,128.45,18.29c-32.31,19.36-54,49-71.84,81.45C28.45,151,14,206.5,6,264,2.11,291.56-.29,319.31,0,347.23c.05,3.9-.7,7.84,5.56,7.72,14.59-.29,29.18-.11,43.78-.09,2.85,0,5-.4,5.24-4.05.32-4.49,1.19-8.94,1.83-13.4v0c5.77-12.45,13.28-23.53,24-32.42,18.86-15.7,40.68-24.71,64.36-30.24,7.39-1.72,7.35,1.13,6.55,6.56-3.24,21.83-3.44,43.83-3.68,65.85-.06,5.83,1.48,8.1,7.59,7.84,10-.43,20.08-.11,30.12-.11,14.66,0,14.61,0,18.08-13.6a54.93,54.93,0,0,1,7.72-17.7c11.51-16.77,27.45-28.05,45.29-37.15,5.49-2.8,10.2-2.38,15.54.28,21.65,10.76,40,25,51,47.18l.25-.21q1.06,5,2.14,10c0,.48,0,.95,0,1.43-1.24,6.87.87,10.19,8.6,9.9,12.93-.48,25.9-.58,38.81,0,8,.38,9.32-3.09,8.45-9.81-2.86-22.11-1.18-44.57-5-66.61-.62-3.56.09-5.61,4.57-4.53,37.89,9.17,71.79,24.08,90.12,61.75l.18-.16q1.21,7.9,2.42,15.8c.13-.5.26-1,.37-1.51-.08,1-.2,1.91-.37,2.87,1.27,2.73,3.8,2,5.94,2,13.62.07,27.25-.24,40.85.16,6.22.18,7.48-2.2,7.45-7.93C527.41,285.11,518.89,224.41,499.75,165.43ZM197.8,105.62c-17.07,33.35-29.06,68.51-37.17,105-1.87,8.42-5.7,12.56-14.61,13.85-11.89,1.71-24,3.22-35.05,8.44l0,0c-16,4.12-30.77,11.17-44.71,20-.12.27-.24.55-.37.82a379.51,379.51,0,0,1,26.46-97.12c12.19-29.23,27.39-56.65,51-78.35C162.66,60.45,184.66,51.7,211,61.8c10.77,4.13,10.92,4.47,4.69,13.8A304.49,304.49,0,0,0,197.8,105.62ZM304.64,225.19c-11.84,1.33-23.5,4.24-35.22,6.59a28.65,28.65,0,0,1-11.52-.13c-12-2.42-24.06-4.91-36.19-6.74-4.68-.7-6-1.79-4.78-6.63,9.88-39.42,23.49-77.26,46.93-112.67,18.48,26.7,30.29,55.26,39.55,85,2.59,8.32,4.33,16.91,6.94,25.23C312.15,221.56,312.08,224.35,304.64,225.19Zm116.22,9.42-.24-.3c-11.58-6.51-24.69-7.67-37.34-9.46-10.23-1.46-14.16-6.23-16.3-15.67-10.91-48-27.6-93.72-55.31-134.91-4.69-7-3.93-8.9,4.05-12.09,24.78-9.89,46.48-3.19,65.7,13.35,21.76,18.71,36.64,42.6,48.7,68.3,16.32,34.77,26.19,71.48,32.66,109.17C449,246.42,435.84,238.41,420.86,234.61Z"/></g></g></svg>