<svg xmlns="http://www.w3.org/2000/svg" viewBox="0 0 1279.12 995.51"><defs><style>.cls-1{fill:#4372b8;}.cls-2{fill:#d1cde2;}.cls-3{fill:#403e56;}.cls-4{fill:#302e41;}.cls-5{fill:#a0626b;}.cls-6,.cls-7{fill:#010101;isolation:isolate;}.cls-6{opacity:0.15;}.cls-7{opacity:0.1;}</style></defs><title>Asset 26</title><g id="Layer_2" data-name="Layer 2"><g id="Layer_1-2" data-name="Layer 1"><path class="cls-1" d="M1127,925.82c-.09-.41-9.1-41.52,9.31-75.67s57.71-49.19,58.1-49.34l1.8-.68.42,1.87c.1.42,9.11,41.52-9.3,75.67s-57.71,49.2-58.11,49.35l-1.79.67Zm66.75-121.12c-7.88,3.39-39,18.21-54.49,47s-10.86,63-9.37,71.38c7.87-3.38,38.93-18.17,54.49-47s10.86-62.94,9.37-71.38Z"/><path class="cls-2" d="M1173.23,865.69c-33.08,19.91-45.83,59.45-45.83,59.45s40.9,7.26,74-12.65,45.83-59.44,45.83-59.44S1206.32,845.79,1173.23,865.69Z"/><path class="cls-1" d="M454.38,745.92c-3.93,0-7.91-.07-11.81-.19l.09-2.83c5.6.17,11.32.22,16.95.14l0,2.84C457.89,745.9,456.14,745.92,454.38,745.92Zm22.33-.66-.17-2.83c5.61-.33,11.3-.8,16.89-1.38l.3,2.82C488.09,744.46,482.36,744.93,476.71,745.26Zm-51.19-.44c-5.65-.44-11.37-1-17-1.69l.35-2.82c5.57.68,11.25,1.25,16.86,1.68Zm85.14-3.12-.42-2.81c5.57-.84,11.19-1.82,16.69-2.92l.55,2.78C521.94,739.86,516.28,740.85,510.66,741.7Zm-119-1c-5.59-.95-11.23-2-16.77-3.24l.6-2.77c5.5,1.19,11.09,2.27,16.64,3.21ZM544.15,735l-.68-2.75c5.47-1.35,11-2.85,16.35-4.44l.81,2.71C555.21,732.17,549.66,733.68,544.15,735Zm-185.88-1.62c-5.48-1.46-11-3.07-16.39-4.77l.85-2.71c5.36,1.7,10.83,3.29,16.27,4.73Zm218.61-8.09-.93-2.68c5.31-1.84,10.65-3.84,15.88-5.93l1,2.63C587.62,721.46,582.23,723.47,576.88,725.33Zm-251.21-2.22c-5.32-2-10.68-4.07-15.92-6.28l1.1-2.61c5.2,2.19,10.52,4.29,15.8,6.23Zm282.88-10.45-1.18-2.58c5.1-2.32,10.23-4.79,15.24-7.35l1.29,2.53C618.85,707.84,613.69,710.33,608.55,712.66Zm30.34-15.51-1.4-2.46c4.89-2.79,9.77-5.73,14.5-8.72l1.52,2.39C648.74,691.38,643.82,694.34,638.89,697.15Zm28.82-18.23-1.62-2.33c4.6-3.21,9.2-6.58,13.66-10l1.73,2.25C677,672.28,672.35,675.68,667.71,678.92Zm-432.27-4c-4.58-3.32-9.15-6.81-13.59-10.35l1.77-2.22c4.41,3.52,8.95,7,13.49,10.28Zm459.33-16.8L692.94,656c4.29-3.63,8.56-7.4,12.69-11.22l1.93,2.08C703.39,650.67,699.09,654.48,694.77,658.12Zm-486-4.51c-4.27-3.74-8.5-7.62-12.59-11.55l2-2c4.06,3.89,8.26,7.75,12.49,11.45Zm511.08-18.67-2-2c4-4,7.87-8.16,11.63-12.33l2.11,1.9c-3.79,4.2-7.74,8.38-11.72,12.42Zm-535.72-5c-3.91-4.11-7.77-8.36-11.48-12.63l2.14-1.86c3.68,4.24,7.51,8.46,11.4,12.54Zm558.58-20.39-2.19-1.8c3.57-4.35,7.09-8.84,10.46-13.34l2.27,1.7C749.84,600.67,746.29,605.19,742.69,609.57Zm-580.95-5.38c-3.52-4.44-7-9-10.28-13.62l2.3-1.66c3.28,4.56,6.71,9.11,10.2,13.52Zm601.41-22-2.35-1.59c3.17-4.66,6.26-9.45,9.21-14.25l2.42,1.48C769.46,572.69,766.33,577.52,763.15,582.21ZM141.81,576.5c-3.09-4.74-6.11-9.62-9-14.5l2.44-1.44c2.86,4.85,5.86,9.69,8.93,14.39ZM781,553.08l-2.48-1.37c2.72-4.93,5.36-10,7.86-15l2.54,1.26c-2.51,5.09-5.18,10.19-7.92,15.15Zm15.14-30.66-2.59-1.14c2.26-5.16,4.43-10.44,6.45-15.71l2.64,1c-2,5.3-4.22,10.63-6.5,15.83ZM110,516.3c-2.18-5.22-4.26-10.55-6.19-15.87l2.66-1c1.92,5.28,4,10.57,6.14,15.75Zm698.48-25.83-2.69-.89c1.77-5.33,3.44-10.78,5-16.2l2.73.76c-1.54,5.46-3.22,11-5,16.33ZM98.31,484.26c-1.68-5.41-3.27-10.93-4.71-16.42l2.75-.72c1.42,5.45,3,10.93,4.67,16.29ZM817.69,457.6l-2.76-.64c1.27-5.47,2.43-11,3.45-16.59l2.79.51C820.14,446.47,819,452.09,817.69,457.6Zm-728-6.37c-1.18-5.54-2.25-11.18-3.18-16.78l2.8-.46c.92,5.55,2,11.15,3.16,16.65ZM823.87,424l-2.81-.39c.76-5.55,1.41-11.22,1.92-16.83l2.82.25C825.29,412.72,824.64,418.43,823.87,424ZM84.06,417.55c-.67-5.61-1.21-11.33-1.63-17l2.83-.21c.41,5.62,1,11.29,1.62,16.87ZM827,390l-2.84-.13c.26-5.62.38-11.32.38-16.94h2.84C827.34,378.62,827.21,384.37,827,390ZM81.57,383.5c-.1-3.48-.14-7-.15-10.54q0-3.27.06-6.54l2.84.05q-.06,3.24-.06,6.49c0,3.49,0,7,.15,10.46Zm3.42-34-2.83-.18c.35-5.66.84-11.39,1.45-17l2.82.31c-.6,5.58-1.09,11.26-1.44,16.88Zm737.68-17.3c-.56-5.59-1.34-8.32-2.17-13.89l2.81-.41c.83,5.61,1.54,9.89,2.11,15.52Zm-734-16.38-2.8-.44c.86-5.61,1.87-11.26,3-16.81l2.78.57c-1.12,5.5-2.12,11.11-3,16.68Zm729-14.21c-1.08-5.53-2.3-11.1-3.63-16.55l2.76-.67c1.34,5.49,2.57,11.11,3.66,16.68Zm-722.28-19L92.6,282c1.38-5.49,2.91-11,4.54-16.46l2.71.81C98.24,271.7,96.72,277.2,95.36,282.65Zm714.27-13.92c-1.58-5.4-3.31-10.83-5.14-16.14l2.68-.93c1.84,5.36,3.59,10.83,5.18,16.28ZM105.12,250.16l-2.68-.94c1.89-5.37,3.92-10.75,6-16l2.63,1.07C109,239.49,107,244.84,105.12,250.16Zm693.49-13.47c-2.07-5.22-4.28-10.46-6.58-15.57l2.58-1.16c2.32,5.15,4.56,10.43,6.64,15.69Zm-680.76-18-2.58-1.19c2.37-5.15,4.89-10.33,7.5-15.37l2.52,1.3C122.7,208.42,120.2,213.56,117.85,218.68Zm666.88-12.82c-2.54-5-5.23-10-8-14.91l2.47-1.39c2.78,4.92,5.49,10,8,15ZM133.42,188.52,131,187.11c2.83-4.92,5.81-9.83,8.87-14.62l2.39,1.53C139.18,178.77,136.22,183.65,133.42,188.52Zm634.65-12.1c-3-4.77-6.13-9.52-9.33-14.13l2.33-1.61c3.22,4.63,6.38,9.42,9.4,14.23Zm-616.4-16.48-2.32-1.64c3.27-4.64,6.69-9.26,10.16-13.74l2.25,1.74C158.31,150.75,154.91,155.33,151.67,159.94ZM748.78,148.6c-3.42-4.47-7-8.92-10.58-13.22l2.17-1.83c3.63,4.34,7.22,8.82,10.66,13.33ZM172.45,133.15l-2.16-1.84c3.67-4.31,7.49-8.6,11.37-12.75l2.07,1.93C179.89,124.61,176.09,128.87,172.45,133.15ZM727,122.64c-3.81-4.15-7.76-8.26-11.74-12.21l2-2c4,4,8,8.13,11.83,12.31ZM195.57,108.37l-2-2c4-4,8.25-7.89,12.47-11.66L208,96.8c-4.19,3.74-8.35,7.63-12.38,11.57ZM703,98.75c-4.18-3.78-8.49-7.52-12.81-11.1L692,85.47c4.35,3.6,8.7,7.37,12.91,11.18Zm-482.15-13-1.79-2.19c4.39-3.58,8.92-7.1,13.47-10.48l1.69,2.28c-4.52,3.35-9,6.85-13.37,10.39ZM248,65.64l-1.58-2.35c4.69-3.16,9.53-6.25,14.36-9.19l1.48,2.42c-4.8,2.92-9.6,6-14.26,9.12ZM277,48.06l-1.36-2.49c5-2.72,10.06-5.36,15.14-7.84L292,40.28C286.94,42.74,281.88,45.36,277,48.06Zm342.29-6.57c-5-2.52-10.22-5-15.37-7.22l1.15-2.6c5.19,2.3,10.4,4.74,15.48,7.28ZM307.33,33.2l-1.13-2.6c5.19-2.25,10.5-4.41,15.78-6.42l1,2.65C317.75,28.83,312.48,31,307.33,33.2Zm280.86-5.44c-5.25-2-10.63-4-16-5.77l.9-2.69c5.39,1.81,10.81,3.76,16.1,5.82ZM339,21.19l-.89-2.7c5.39-1.77,10.89-3.43,16.35-4.94l.76,2.73C349.77,17.78,344.32,19.43,339,21.19ZM556,17c-5.41-1.54-10.93-3-16.4-4.27l.65-2.76c5.51,1.3,11.07,2.75,16.52,4.3ZM371.61,12.13,371,9.36C376.51,8.1,382.14,7,387.71,5.94l.51,2.79C382.68,9.73,377.1,10.87,371.61,12.13ZM523.05,9.19c-5.52-1-11.15-1.95-16.72-2.74l.39-2.81c5.62.79,11.29,1.72,16.85,2.77ZM405,6.11l-.38-2.81c5.62-.75,11.33-1.38,17-1.87l.25,2.82C416.2,4.74,410.53,5.36,405,6.11ZM489.5,4.48c-5.59-.53-11.27-.93-16.9-1.2l.13-2.84c5.68.28,11.4.69,17,1.22ZM438.71,3.16,438.59.33C443.8.11,449.12,0,454.38,0h1.29V2.84h-1.28C449.16,2.84,443.88,3,438.71,3.16Z"/><rect class="cls-3" x="239.66" y="925.01" width="1039.46" height="2.84"/><path class="cls-4" d="M848,448.15,862.21,668s34,86.5,32.62,168.75c0,0-12.76,32.62-2.84,38.29s15.6,9.92,9.93,14.18-9.93,14.18-5.67,17,5.67,7.09,4.25,7.09H858s8.51-21.27-4.25-26.95S848,866.49,848,866.49l-95-278L677.86,843.8s12.77,8.51,2.84,12.76-14.18-4.25-9.93,4.26-1.42,12.76-1.42,14.18-42.54-4.26-42.54-4.26,21.27-18.43,11.35-22.69-14.18-8.5-11.35-11.34S641,806.93,641,806.93s5.67-102.1,7.09-106.36,0-24.1,0-34-1.42-49.63,2.84-59.56,8.51-131.88,31.2-146.06S848,448.15,848,448.15Z"/><path class="cls-4" d="M667.94,867.91s28.36,58.14,8.5,65.23-45.37,1.42-51.05,9.93-68.07,18.43-69.48-2.84,68.07-61,68.07-61l9-14.57Z"/><path class="cls-4" d="M897.67,910.45s28.36,58.14,8.51,65.23-45.38,1.42-51.06,9.93-68.06,18.43-69.48-2.84,68.07-61,68.07-61l9-14.57Z"/><circle class="cls-5" cx="766.49" cy="134.05" r="46.8"/><polygon class="cls-5" points="798.4 158.86 792.73 199.99 750.19 232.6 738.84 217 738.84 163.12 798.4 158.86"/><path class="cls-1" d="M731.75,211.33s44,4.26,66.65-11.34l45.38,268s-160.24,12.76-167.34,4.25V388.59l28.37-136.13Z"/><path class="cls-2" d="M794.5,187.17,809.75,200s62.39,9.92,58.14,26.94l-17,201.37,5.67,68.07s-48.21-12.77-85.08,0-7.58-274.27-7.58-274.27S797.68,191.38,794.5,187.17Z"/><path class="cls-2" d="M738.84,202.69s-45.38,32.75-51.05,54S663.68,502,663.68,502s8.51-4.25,12.76,2.84S745.93,213.91,738.84,202.69Z"/><path class="cls-4" d="M719.72,132s-5.07-7.6-3.12-15.79A47.62,47.62,0,0,0,718,102s4.09-13.25,8.18-20.65,2.14-10.53,15-12.86,7.6-19.1,41.5-1A10,10,0,0,0,793,71.41c7-1.37,9.55,8.38,9.55,8.38S807.21,77.06,809,81s14.26-2.34,14.26,24S809,154.72,809,154.72s1-44.24-22.15-48.73-48.12-17.53-54.16-.78A127.69,127.69,0,0,1,719.72,132Z"/><ellipse class="cls-5" cx="809.5" cy="136.43" rx="4.57" ry="6.1"/><path class="cls-2" d="M617.3,575c-11.22-6.74-24.75-6.23-29.9-5.71,2,4.78,7.84,17,19.06,23.73s24.76,6.23,29.9,5.72C634.4,593.92,628.52,581.72,617.3,575Z"/><path class="cls-2" d="M670,708.87H599.89a15.78,15.78,0,0,0,0,31.56H670a15.78,15.78,0,0,0,0-31.56Z"/><path class="cls-2" d="M987.61,542.3H594.4a34.82,34.82,0,0,0-34.83,34.83h0V768.71a34.83,34.83,0,0,0,34.83,34.84H987.61a34.83,34.83,0,0,0,34.83-34.84h0V577.13a34.83,34.83,0,0,0-34.83-34.83ZM584.67,566.06c.78-.14,19.19-3.27,34.43,5.9s21.11,26.91,21.35,27.66l.62,1.91-2,.35a53.11,53.11,0,0,1-8.54.63c-6.92,0-16.95-1.14-25.9-6.53-15.25-9.17-21.1-26.91-21.34-27.66l-.62-1.91ZM670,743.93H599.89a19.29,19.29,0,0,1,0-38.57H670a19.29,19.29,0,0,1,0,38.57Zm319.1-3.5a21.1,21.1,0,0,1-21,21h-52.6a21.12,21.12,0,0,1-21-21V708.87a21.1,21.1,0,0,1,21-21h52.6a21.09,21.09,0,0,1,21,21Z"/><path class="cls-2" d="M932.15,734.29h-22.8a6.14,6.14,0,0,0,0,12.27h22.8a6.14,6.14,0,0,0,0-12.27Zm0,8.77h-22.8a2.63,2.63,0,1,1,0-5.26h22.82a2.63,2.63,0,0,1,0,5.26Z"/><path class="cls-2" d="M974.23,734.29h-22.8a6.14,6.14,0,0,0,0,12.27h22.82a6.14,6.14,0,0,0,0-12.27Zm0,8.77h-22.8a2.63,2.63,0,1,1,0-5.26h22.82a2.63,2.63,0,0,1,0,5.26Z"/><path class="cls-2" d="M932.15,718.51h-22.8a6.14,6.14,0,0,0,0,12.27h22.8a6.14,6.14,0,1,0,0-12.27Zm0,8.77h-22.8a2.63,2.63,0,0,1,0-5.26h22.8a2.63,2.63,0,0,1,0,5.26Z"/><path class="cls-2" d="M974.23,718.51h-22.8a6.14,6.14,0,0,0,0,12.27h22.82a6.14,6.14,0,0,0,0-12.27Zm0,8.77h-22.8a2.63,2.63,0,0,1,0-5.26h22.8a2.63,2.63,0,1,1,0,5.26Z"/><path class="cls-2" d="M932.15,702.73h-22.8a6.14,6.14,0,0,0,0,12.27h22.8a6.14,6.14,0,0,0,0-12.27Zm0,8.77h-22.8a2.63,2.63,0,0,1,0-5.26h22.8a2.63,2.63,0,0,1,0,5.26Z"/><path class="cls-2" d="M974.23,702.73h-22.8a6.14,6.14,0,0,0,0,12.27h22.82a6.14,6.14,0,0,0,0-12.27Zm0,8.77h-22.8a2.63,2.63,0,0,1,0-5.26h22.8a2.63,2.63,0,1,1,0,5.26Z"/><path class="cls-5" d="M863.63,499.2l-10.16,33.18s-2.6,61.84-36.63,53.33,9.92-80.83,9.92-80.83l9.93-15.6Z"/><path class="cls-5" d="M670.77,499.2l-10.16,33.18S658,594.22,624,585.71s9.92-80.83,9.92-80.83l9.93-15.6Z"/><path class="cls-2" d="M856.54,217s22.69-5.67,29.78,32.62,15.6,147.48,15.6,147.48L867.89,512s-34-18.44-41.13-15.6l26.78-99.72L831,295S850.87,217,856.54,217Z"/><polygon class="cls-6" points="823.55 296.94 853.33 396.2 823.55 496.89 840.57 396.2 823.55 296.94"/><path class="cls-2" d="M687.79,295l-51,201.37s26.93,8.89,36.85,16Z"/><circle class="cls-3" cx="152.25" cy="659.25" r="141.81"/><circle class="cls-7" cx="152.25" cy="659.25" r="121.96"/><path class="cls-1" d="M146.41,731.21V713.46c-9-.17-18.26-3.34-23.67-7.73L126.45,694a37.86,37.86,0,0,0,22.28,7.55c11,0,18.41-7.2,18.41-17.22,0-9.67-6-15.64-17.49-20.91-15.78-7-25.52-15.12-25.52-30.41,0-14.59,9.13-25.66,23.36-28.29V586.93h9.59v17a37.65,37.65,0,0,1,20.11,6.15l-3.87,11.6a34.18,34.18,0,0,0-19.49-6c-11.91,0-16.4,8.08-16.4,15.11,0,9.14,5.73,13.71,19.19,20,15.93,7.38,24,16.52,24,32.16,0,13.88-8.51,26.89-24.45,29.87v18.28Z"/><path class="cls-3" d="M302.05,947.7a1024.06,1024.06,0,0,1-302,0v-34a1138.1,1138.1,0,0,0,302.05,0Z"/><path class="cls-3" d="M302.05,895.23a1024.06,1024.06,0,0,1-302,0v-34a1138.1,1138.1,0,0,0,302.05,0Z"/><path class="cls-3" d="M302.05,842.76a1024.06,1024.06,0,0,1-302,0v-34a1138.1,1138.1,0,0,0,302.05,0Z"/></g></g></svg>