<svg xmlns="http://www.w3.org/2000/svg" viewBox="0 0 400.44 401.49"><defs><style>.cls-1{fill:#fff;}.cls-2{fill:#f1f7fc;}</style></defs><title>Asset 25</title><g id="Layer_2" data-name="Layer 2"><g id="Layer_1-2" data-name="Layer 1"><path class="cls-1" d="M.21,134.25v-8c1-1.35,1.58-2.88,2.82-4.07C15.24,110.4,26.17,97.37,38.5,85.7c5.83-5.52,7-5.58,12.45,0,.46.48.94,1,1.4,1.42,6.34,6.39,6.34,6.39,1.77,13.26,6.17-4.44,6.17-4.44,14.3.48C52.58,85.76,38.31,69.08,22.53,53.83c.1,2,1.52,3.06,2.69,4.19,2.77,2.65,2.81,5-.27,7.47-1.27,1-2.83,1.79-3.37,4.13,2.4-.69,3.45-2.66,5-3.83,2.2-1.64,4.31-1.86,6.16.36,2.45,2.95,5.17,5.64,7.89,8.32s2.69,5.16-.12,7.65c-4.1,3.64-8.18,7.29-12.14,11.1-8.17,7.85-14.53,17.35-22.92,25-1.51,1.37-2.61,3.59-5.26,3v-11c3.59-5.87,8.43-10.67,13.25-15.49,5-5.06,10.21-10,15-15.84-5.22,5.47-10.24,5.59-14.67,0-.85.27-1,.56-.64.89,7.56,8.06,5.52,8.08-.79,13.57-1.13,1-2.12,2.12-3.2,3.16-4.48,4.3-5.6,4.14-9-1.24v-10c1.16-.75,2.06.51,3.55.38-1.09-2-2.66-3.48-3.55-5.38v-3c1-2.1,2.72-3.71,4-6-1.42-1.18-2.83.92-4,0v-11c3.55-5.73,4.5-5.85,9.1-1.18a11.3,11.3,0,0,0,3,2.61.66.66,0,0,0,.87-.14c-6.84-8.14-6.81-8.55,1-16.46,6.54-6.63,7.49-6.76,14-.12C45.27,62.58,62.76,79.89,79.8,97.63c4,4.17,4,5.14-.18,9.44a60.59,60.59,0,0,0-5.83,6.16c-2.35,3.24-4.69,3.16-7.4.45-1.27-1.27-2.32-2.84-4.2-3.56-.72,2,1.23,2.34,2.11,3.15,4.46,4.14,4.52,5.15.41,9.74-.63.71-1.67,1.18-1.51,3.29,15.46-16,29.88-32.21,45.92-46.84-2.25-.22-3.18,1.43-4.42,2.55-3.72,3.34-4.69,3.31-8.19-.38-.89-.95-1.53-2.18-2.76-2.63-.48.24-.62.57-.36.86,5.94,6.82,6.47,7.48-1.51,14.84-.25.23-.51.43-.76.64-6.83,5.63-7,5.58-12.53-1.14C75,89.83,70.67,86.11,66.75,82,60.18,75.2,53.22,68.76,47,61.51c-5.92-6.95-13.46-12.3-19.72-19-4.5-4.8-4.87-5.64-.13-10.47,1.75-1.78,3.5-3.57,5.31-5.29,3.78-3.59,4.5-3.59,8.25-.17a10.3,10.3,0,0,0,3.59,2.61c-7.55-5.61-4.81-10.75.42-16-5,3.81-8.95,8.17-13.28,12.13C22.74,33.29,15,42.26,6.84,50.79c-1.75,1.82-3.39,4.3-6.63,3.46v-10C3,39.2,7.32,35.5,11.53,31.89,21.35,23.47,30,13.86,39.29,5c1.54-1.48,2.84-3.27,5-4a8.28,8.28,0,0,1,2.81,0c4,2.17,6.76,5.8,10,8.83,2.3,2.15,2.19,4.59-.07,7-1.32,1.39-3.11,2.45-3.81,4.7,3.09-1.34,4.88-4.55,7.91-5.1,3.58-.64,4.1,4.4,8.65,5.31-4.43-5-8-9.28-11.76-13.32-1.47-1.56-3.2-2.92-4.36-4.75-.55-.86-1.58-2,.31-2.74,2.44,0,4.89,0,7.33,0A6.37,6.37,0,0,1,65.1,2.93C70.17,8,75.2,13.08,80.3,18.11c2.53,2.49,2.69,4.75,0,7.21-2.8,2.59-6,4.8-8.31,7.89-1.18,1.53-2.8,1.56-4.44.42s-3-2.66-5.44-3.53c1.12,3,4.88,4.25,4.5,7.47S62.77,42,61.14,46.12a22.76,22.76,0,0,0,6.71-5.92A153.76,153.76,0,0,1,88.33,19.78C94.4,14.81,98.66,8,104.86,3.19c1.31-1,2.5-2.23,4.28-2.42,2.71,0,5.42,0,8.13,0,2.45,1.45.67,2.86-.3,3.78-6,5.73-11,12.56-17.14,18.12A399.19,399.19,0,0,0,66.7,55.87C62,61.22,60,61.31,55,56.27a28.12,28.12,0,0,1-2.06-2.17c-6.2-7.81-6.9-7.51-.23-13.72.34-.32.64-.78-.07-1.87C48.31,44,43.46,46,38.17,39.2c14.31,16.95,30.26,31.7,46,47.08-5-5.26-7.51-10.42-.07-15.26-1.08-1.2-1.6-.62-2-.25-5.91,5-5.9,5-11.89.21l-.79-.61c-7.61-6.26-7.63-7.74-.68-14.83,7.45-7.61,15.29-14.82,22.18-23a83.82,83.82,0,0,1,11.92-11.35c5.62-4.47,9.9-10.3,14.82-15.49,1.69-1.8,3.23-3.85,5.68-4.79a8.23,8.23,0,0,1,2.8,0c4.14,2.5,7.37,6.11,11,9.19,2.36,2,2,4.26,0,6.48-1.38,1.51-3.15,2.74-4.31,5.18,8.26-6.33,8.26-6.33,16.28-.91-4.83-5.76-8.91-11.12-14.38-15.24-2.66-2-2.54-2.15-1.67-4.79,2.72,0,5.44,0,8.15,0A6.07,6.07,0,0,1,145,2.85c5.07,5,10.06,10.15,15.18,15.13,2.74,2.67,2.68,5,0,7.58a72.62,72.62,0,0,0-7.58,7.91c-2.34,3-4.5,2.89-6.79-.06a7.56,7.56,0,0,0-5.25-3.53c5.29,5.2,9.42,10,1.66,15.26,7-6.28,13.93-12.31,19.76-19.36,7.68-9.29,17.43-16.29,26.24-24.34A3.24,3.24,0,0,1,190,.78q3.68,0,7.32,0c2.5,1.89.17,3.14-.79,4.2-3.59,3.93-7.46,7.6-11.23,11.37q-19.93,19.95-39.91,39.9c-4.79,4.77-5.62,4.73-10.51,0-8.26-8.09-8.26-8.09-1.76-16.79-.06-.41-.31-.58-.65-.35-2.49,1.73-3.66,5.8-7.38,5.19-3-.5-4.8-3.85-8-4.73,15.34,15.81,30.48,31.79,46.77,46.65-1-3.15-5.5-4.34-4.71-8.13.64-3,3.49-5.05,5.27-7.79-1.36-.14-1.76.7-2.32,1.24-5.89,5.71-6.84,5.68-12.21-.34-1-1.12-1.83-2.38-2.87-3.46-5.05-5.26-4.8-5,.15-10.82A366.72,366.72,0,0,1,174.42,29c9.08-8.57,18-17.29,26.87-26a8.1,8.1,0,0,1,2.84-2,3.87,3.87,0,0,1,2.08,0c4.29,2.37,6.95,6.62,10.9,9.41,1.8,1.28,1.54,3.09.48,4.89-1.27,2.17-3.13,3.85-5,6,2.25,0,2.91-1.66,4-2.64,4.23-3.88,5.24-3.87,9.45.29.78.76,1.19,2.05,3.48,2.16-5.11-5.62-10.26-10.28-15-15.35-1.16-1.26-3.9-2.43-1.49-4.93,2.71,0,5.42,0,8.13,0,2.77.3,4.22,2.5,6,4.22,4.5,4.43,8.93,8.94,13.42,13.39,2.66,2.62,2.78,5,.06,7.68-2.5,2.43-5,4.89-7.4,7.41s-4.82,2.33-7.22-.18c-1.2-1.26-2.35-2.69-4.69-3.2,5,5.05,8.31,10,.29,15.32,2.24-.67,3.32-2.09,4.51-3.32C238,29.78,250.83,18.38,262,5.34c1.69-2,3.34-4.24,6.31-4.57h9.81c2.95.81.95,2.36.28,3.25a45.9,45.9,0,0,1-6.26,6.44c-16.64,15.1-33,30.49-48.4,46.87-2.24,2.39-4,2.63-6.23.37s-5-3.92-7.2-6.17c-3.41-3.45-3.42-4.68-.2-8.38,1-1.11,2.33-1.94,2.72-4.2-2.75,2.13-4.34,5.4-7.68,5.51-3.67.13-4.48-4.22-7.37-5.35-.91.35-.45.88-.18,1.15,8.28,8.2,16.11,16.85,24.95,24.48,3.79,3.27,6.76,7.32,9.92,11.18a50,50,0,0,0,12.07,10.33c-1.25-4-5.87-4.45-5.77-8.07.1-3.22,3.72-4.49,5.07-7.69-2.61.3-3.66,2.12-5,3.36-2.34,2.16-4.37,1.91-6.46-.3-1.61-1.7-2.86-3.67-4.47-5.38-6.22-6.6-6.21-6.62.37-13.2,11.66-11.66,23.07-23.57,35.07-34.88C270.2,13.61,276.67,6.65,284.24.92a7.81,7.81,0,0,1,2.81-.05c4.18,2.25,6.9,6.11,10.17,9.35,1.74,1.73,1.36,3.49-.13,5.28s-3.56,3-4.46,5.86c2.21-.39,3.15-2,4.33-3.1,4.54-4.31,5.07-4.31,9.6.22A3.41,3.41,0,0,0,308.91,20c-1.92-4.18-5-7-8.27-9.63a36.17,36.17,0,0,1-6.45-6.15c-.71-.91-2.67-2.22-.13-3.44,2.72,0,5.43,0,8.14,0C306,1.89,307.6,5.52,310,8.08c3.2,3.36,6.19,6.92,9.42,10.27,3.45,3.57,3.35,5.17,0,8.89-.22.24-.45.49-.69.71-8.86,8.2-6.59,9.67-17.15,1.95,1.68,3.39,6,4.52,5.69,8.14-.26,3.26-4.18,4.49-5.4,7.56,2,.44,2.81-1.08,3.69-2.1,12.2-14.08,26.12-26.48,39-39.86,1.27-1.32,2.55-2.65,4.53-2.87q4.08,0,8.15,0c2.43,1.45.61,2.77-.3,3.8-6.09,6.82-12,13.75-19.13,19.63-9.51,7.87-17,17.78-25.77,26.43-2.37,2.34-4.76,4.66-7.07,7.06-2.66,2.75-5.09,2.56-7.69-.09a92.09,92.09,0,0,0-6.92-6.47c-4-3.28-3.9-5.41-.13-9,1-1,2.68-1.4,2.84-3.43-3.39.64-5,4-8,4.82-3.88,1-4.9-3.33-8-4.24,14.49,16.47,30.76,31.2,46,47.09,1-1.12,0-1.62-.31-2.16a15.43,15.43,0,0,0-1.7-1.83c-4.29-4.6-4.27-5.05.39-9a7.22,7.22,0,0,0,2-2c-.47-.76-.94-.43-1.36-.22-2.69,1.29-4.66,5.39-8.2,3.23a28.14,28.14,0,0,1-10.3-10.61c-1-1.84.25-3.65,1.73-4.82,8.46-6.63,14.9-15.14,22-23C338.27,24,351,13.89,362.12,2.19A5.76,5.76,0,0,1,364.25.92a7.75,7.75,0,0,1,2.8-.05c4.33,2.36,7.18,6.33,10.53,9.75,1.88,1.92,1.22,3.85-.33,5.76-1.38,1.7-3.56,2.8-4.42,5.31,2.56,0,3.41-1.86,4.69-3,3.94-3.56,4.71-3.56,8.53.36a6.78,6.78,0,0,0,3.39,2.45A75.16,75.16,0,0,0,375.06,5.89c-3-2.37-2.94-2.44-2-5.11q4.13,0,8.23,0c8.14,4.72,14,11.63,18.94,19.48v4c-1.22,3.81-4.15,6.3-6.8,9-2.82,2.94-5.32,2.87-7.91-.29-.88-1.07-1.65-2.55-4.59-2.27,6.49,4.85,7.82,9.72.8,14.73,5.11-3.59,8.92-8.15,13.25-12.14,1.5-1.38,2.59-3.61,5.25-3.07v10c-4.7,7.18-11.48,12.39-17.41,18.41-1.67,1.7-3.59,1.39-5.36-.1a55.23,55.23,0,0,1-8.59-9.67c-1.18-1.6-.91-3,.22-4.55s2.77-2.4,3.43-4.35c-3.05.81-4.1,5.51-8,4.1-2.82-1-4.12-4.29-6.92-5.35-.49.11-.74.48-.49.71,10.59,9.83,19.9,20.92,30.31,30.93,4.52,4.34,8.59,9.18,12.77,13.87v10c-2.48.64-3.65-1.35-4.89-2.72-9.38-10.36-20.19-19.3-29.27-30-5.79-6.83-13-12.38-19-19.1-4.36-4.89-4.55-5.07,0-9.48,1.92-1.86,3.34-4.13,5.22-6,2.6-2.66,5-2.84,7.7-.13,1.24,1.25,2.25,2.94,4.58,3.2-1-3.47-5.33-4.64-5.46-8.09s4.28-4.76,4.83-8.33c-16.1,15.24-30.88,31.77-47.58,47.51,2.57-.35,3.45-1.79,4.58-2.8,3.9-3.46,4.58-3.43,8.08.32,1,1,1.65,2.55,3.45,2.7.38-1.89-1.21-2.59-2.11-3.62-3.66-4.18-3.68-5,.3-9.1,2.32-2.39,4.68-4.73,7.08-7s4.48-2.4,6.81.17c14.3,15.81,30,30.26,44.86,45.54a86.79,86.79,0,0,1,10.79,13v5c-1.47,3.09-4,5.29-6.39,7.58-3.7,3.56-4.41,3.53-8.23,0a12.84,12.84,0,0,0-3-2.59c-.42.07-.51.3-.29.67,1.53,2.62,5.63,3.85,4.81,7.61-.63,2.89-3.95,4.39-4.7,7.56,4-4.17,8.32-7.89,12.52-11.78,1.49-1.39,2.59-3.62,5.25-3.08v10c-4.5,6.9-10.93,12-16.73,17.65a3.73,3.73,0,0,1-5.77-.32c-2.74-3.12-5.58-6.14-8.42-9.17-1.64-1.74-1.54-3.45-.05-5.32,1.29-1.63,3.39-2.66,4-5.54-3.05,1.74-4.59,5.21-7.95,5.17s-4.8-4-8.58-5c.84,2,2.25,3,3.49,4C374,134.53,385.07,149,398.38,161.3c.87.8,1,2.08,1.83,2.95v10c-2.94.53-3.9-2-5.44-3.57-9.63-9.86-18.76-20.22-29.29-29.17-7.51-6.39-13.38-14.34-20.36-21.25-2-2-1.83-4.12.09-6.15.34-.36.66-.75,1-1.09,2.78-2.62,5-6.09,8.41-7.74,4.67-2.24,5.86,4,9.85,4.74-.28-2.13-1.86-3.17-3.08-4.28-3-2.75-3-5.26,0-8,1.19-1.08,2.62-2.07,3-3.85-3.34,1.24-33,30.35-47.9,47,2.23,0,3.22-1.43,4.19-2.51,2.75-3,5.28-2.89,8,.06.94,1,1.81,2.4,3.56,2.37.49-1.3-.62-1.79-1.21-2.47-4.11-4.78-4.14-5,.11-9.34,2.21-2.26,4.44-4.5,6.73-6.68s4.46-2.27,6.52,0c9.42,10.33,20.73,18.73,29.81,29.42,6.57,7.73,14.68,14,21.39,21.6a29.72,29.72,0,0,1,4.57,5.86v6a5,5,0,0,0-.57.82c-5.81,9.5-8.28,10.09-17.31,4-.27,1.82,1.39,2.31,2.22,3.22,3.84,4.2,3.86,4.66-.11,9-1,1-2.42,1.8-2.64,4.41,5-3.62,8.39-8.05,12.48-11.66,1.75-1.54,2.84-4.28,5.93-3.77v10c-.95,1.35-1.47,3-2.88,4-4.92,3.53-8.75,8.12-12.7,12.64-3.15,3.6-4.52,3.43-7.56-.21a64.6,64.6,0,0,0-6.19-6.51c-3-2.72-3.88-5.24-.27-8.18a8,8,0,0,0,2.76-4.14c-2.07.73-2.86,2.37-4.05,3.46-3.45,3.18-4.21,3.14-7.72-.37-1.13-1.12-2-2.71-3.82-2.95-.24,1.06.58,1.47,1.08,2.05,11.49,13.19,24.16,25.22,36.75,37.33a22.24,22.24,0,0,1,4.6,5.84v9c-3.11.48-4.91-1.75-6.69-3.56-7.57-7.72-15.19-15.4-22.73-23.13s-15.75-15.29-23.53-23c-5.17-5.15-5.2-6.37-.12-11.37,2.58-2.55,4.62-6,8.18-7.15,4-1.26,5.24,4.05,9,4.79-.86-3.46-5.09-4.58-5.15-7.87-.07-3.49,3.86-4.76,5.3-7.58-6.32,3.68-42.36,39.5-46.95,46.72,3.17-1.34,4.39-5.55,8.08-5.22,3.44.31,4.46,4.22,7.78,6.17-.65-2.77-2.56-3.86-3.88-5.28-2.25-2.41-2.27-4.62,0-7,2.7-2.71,5.38-5.44,8.13-8.11,2-2,4-2.1,6.08-.06,1,.93,1.94,1.83,2.86,2.79,15.91,16.78,32.94,32.44,49.05,49a24.47,24.47,0,0,1,4.59,5.84v6a22.21,22.21,0,0,1-5.3,6.5c-4.62,4.26-6.9,4.2-11.31-.28a3,3,0,0,0-3-1.3c6.52,4.88,7.27,9.92,1.18,15.28,5.08-3.67,8.92-8.16,13.23-12.14,1.48-1.38,2.58-3.6,5.23-3.06v10c-4.7,7.19-11.47,12.41-17.41,18.41-1.9,1.91-4,1.36-5.63-.58s-3.43-4.05-5.29-6c-4.18-4.26-4.2-5.29-.48-10.1a23.1,23.1,0,0,0,1.82-2.26c-.13-.49-.37-.57-.73-.33-2.32,1.55-3.66,4.78-6.69,4.88-3.26.12-4.12-3.54-6.34-5.15-.41-.3-.87-.5-2.12.16,4.71,4.54,9.44,8.84,13.15,14,6.9,9.58,17.18,15.62,25.15,24.09a26.32,26.32,0,0,1,4.57,5.84v10c-2.48.64-3.53-1.44-4.9-2.71-10.4-9.58-20.48-19.47-30-29.93-5.95-6.53-12.88-12-19.16-18.22-4.25-4.17-4.2-5.43-.22-10,2-2.26,4.43-4,6.62-6,3.15-2.9,5.75-2.75,8.43.47a8.25,8.25,0,0,0,2.93,2.78c.64-1.88-1.13-2.38-1.93-3.27-3.9-4.34-3.94-4.31-.15-9.08a7.45,7.45,0,0,0,2-4.19c-16.65,15.69-30.47,32.75-47,47.15,3.24-.78,4.88-4.21,8.16-4.39,3.7-.22,4.17,4.47,7.46,5.49.24-1.92-1.24-2.65-2.13-3.65-3.64-4.13-3.6-5.09.32-9.11,2.22-2.28,4.95-3.93,7.21-6.16,2.41-2.37,4.72-2.07,6.91.28,6.45,6.94,13.64,13.13,20.22,20,9.45,9.84,18.93,19.66,29.07,28.81a30.48,30.48,0,0,1,6.12,7.81v6c-1.75,3.7-5.09,6.09-7.56,9.2-1.42,1.78-3.09,1.66-4.67,0-1.38-1.42-2.65-3-5.15-3.78,1.15,3.19,4.88,4.45,4.89,7.78s-3.68,4.41-4.58,7.27c5.08-2.59,7.57-7.67,11.32-11.52,1.65-1.69,2.61-4.42,5.75-4v10c-4.6,7.05-11.26,12.17-17.06,18.09-1.53,1.56-3.26,1.39-4.92,0s-3.22-2.36-4.71-3.7c-6-5.43-6.2-7.69-1.11-13.94.41-.5,1-1,.55-1.74-6.85,5.24-6.85,5.24-15.59.35,4.87,3.74,8.06,9,12.37,13.22,8.06,7.93,16.08,15.91,23.46,24.5,1,1.19,2.68,2.16,2,4.19h-8c-5.56-3.24-9.51-8.26-13.83-12.83-8.34-8.81-17.18-17.11-26.14-25.27-5.11-4.65-5.4-4.92-1.09-10.26a32.93,32.93,0,0,1,5.36-5.89c4-3.1,5.3-3.06,9,.35a24.19,24.19,0,0,0,3,2.68,1.09,1.09,0,0,0,1.13,0c-.05-1.88-1.69-2.58-2.85-3.59-4-3.47-4.1-5-.77-9.12.93-1.15,2.28-2,2.8-4.2-16.67,15.08-30.29,32.38-47.13,46.85,2.45,1.23,3.05-.64,4-1.44,4.47-3.87,5.26-3.87,9.27.56a5.29,5.29,0,0,0,2.65,2c-.15-2-1.59-2.92-2.64-3.92-3-2.81-2.69-5.37.17-8.06,2.43-2.28,4.76-4.66,7.07-7.05s4.23-2.45,6.91-.38c5.17,4,9.55,8.77,14.15,13.34,7.21,7.14,14.56,14.14,21,22,1,1.22,2.67,2.16,2,4.19h-10c-9.94-6.33-17.29-15.49-25.71-23.49-1-1-1.58-2.58-4.41-2.81,4.38,4.86,8.26,9.57.82,13.73.24.76.5.84.85.6,7-4.79,7.75-4.73,13.89,1.2,1.19,1.16,2.4,2.32,3.52,3.55,3.25,3.57,3.14,4.31-1,7.22h-10c-.44-1.19,0-3.76-2.54-1.46-.7.65-1.74.81-2.46,1.46h-6c-1-.84-2.3-1.2-3.36-2-2.91-2.12-2,1-2.64,2h-10c-4.11-2.92-4.2-3.56-1-7.24A14.36,14.36,0,0,0,323.8,391a.78.78,0,0,0-.17-.95c-2,.31-3,2-4.08,3.32-2.55,3.26-4.87,2.73-7.42.08-2.31-2.39-4.77-4.65-7-7.09-3.3-3.53-3.4-5.06.23-8.32,16.11-14.49,30-31.14,45.82-45.95a94.23,94.23,0,0,0,9.18-9.86c3.28-4.11,4.73-4.11,8.47-.56,2.41,2.29,4.76,4.66,7.07,7.06,3.9,4.05,3.88,4.89.07,9.07a5.76,5.76,0,0,0-1.86,2.95c4.63-5.6,9.39-5.59,14.5-.76-15.87-14.8-29.71-31.21-46.77-44.91,6.88,5.2,5.49,10.08-.66,14.6,1.91,1,2.25-.25,2.83-.83s1-1.31,1.57-1.93c2.1-2.4,4.38-3,6.84-.58,2.26,2.24,4.9,4,7.2,6.17,3.65,3.44,3.71,4.88.55,8.89a37.59,37.59,0,0,1-2.72,2.93Q332,349.73,306.53,375.15c-5.49,5.48-8,5.35-13-.47-.43-.5-.82-1.05-1.24-1.57-4.86-6.15-4.86-6.14.12-12.49a1.45,1.45,0,0,0,.17-1.76c-2.72,1.24-3.58,5.51-7.22,5.07-3.34-.41-5.06-3.56-8.22-5.54.41,2.58,2,3.56,3.21,4.74,11.55,11.51,23,23.12,34.46,34.71.9.91,2,1.83,1.39,3.41h-10c-3.09-1.55-4.63-4.71-7.12-6.9-12.12-10.67-22.39-23.21-34.31-34.08-2.65-2.42-2.58-4.46,0-6.6s4.83-4.07,7.11-6.27c3.78-3.67,4.66-3.61,8.71,0,1,.87,1.77,2,3.52,2.38,0-1.94-1.47-2.52-2.44-3.39-3.95-3.51-4-4.48-.35-8.5,1-1.07,2.4-1.8,2.71-3.52-17.09,14.13-31.9,30.41-47.43,46.71,3.84-.83,5-5.27,8.5-5.3s4.56,4,7.51,6.11c.2-2.4-1.29-3.37-2.38-4.35-3.15-2.81-3-5.47-.34-8.59,10.28-12,10.2-12.21,20.41-1.63q14.38,14.93,28.89,29.73c1.1,1.12,2.69,2.16,2,4.19h-10c-3.24-1.53-5.46-4.25-7.92-6.7-5.88-5.85-11.72-11.74-17.61-17.58-1.11-1.09-2-2.53-4.49-2.69,5.39,4.93,7.8,9.81.73,14.43.23.77.49.84.84.54,6.86-5.8,6.87-5.8,13.4.74,1.65,1.64,3.31,3.26,4.9,5,2.27,2.45,2.49,4.61-.85,6.3h-11c-.61-1.06.15-4-2.66-2.06-1.36.91-3.08,1-4.34,2.06h-5c-.59-.55-1.46-.7-2-1.29-2.33-2.6-2.8-1-3,1.29h-11c-3.3-1.78-3.26-3.8-.52-6.14,1.22-1.05,2.62-2,2.84-3.85a.7.7,0,0,0-1,.07c-6.6,7.11-7.63,4.82-13.46-.93-9.29-9.17-7.48-7.8-.55-15.26,13.14-14.13,26.66-28,41.12-40.81,4-3.54,7.68-7.39,11.39-11.22,2.73-2.81,5.33-3,8.27-.52.64.54,1.31,1,1.94,1.58,8.93,7.88,8.93,7.88,1.91,16.89.08.4.36.51.7.2,7-6.29,7-6.3,14.71-1.27C294,324.07,277,310.57,262.79,294.32c-1.5,1.39-.91,1.93-.54,2.34,5.18,5.56,5.19,5.55.2,11.69-.41.51-.9,1-.56,1.85,1.94,0,2.88-1.6,3.8-2.84,2.64-3.55,5.07-3,7.76-.11,2.05,2.18,4.27,4.21,6.34,6.38,3.62,3.82,3.57,5.22,0,9.28a144.84,144.84,0,0,1-16.5,15.23c-5.72,4.71-10.21,10.48-15.35,15.67-8.08,8.16-16.51,16-24.2,24.54-2.51,2.79-4.38,2.48-6.39-.25a57.92,57.92,0,0,0-5.39-5.9c-4.26-4.37-4.27-4.7-.49-9.48a9.7,9.7,0,0,0,1.15-1.62.89.89,0,0,0,0-.93c-7.82,4.62-7.82,4.62-15.2-.77.27,1.71,1.63,2.51,2.67,3.42,9.67,8.46,18.12,18.08,26.63,27.65a52.22,52.22,0,0,0,6.3,5.67c1.59,1.3,3.72,2.43,3.21,5.11h-9a157.74,157.74,0,0,1-28-26.13c-4.14-4.85-9.41-8.43-13.61-13.19-3.87-4.38-4-5.71.4-9.27,1.95-1.58,3.79-3.25,5.59-5,4.09-3.93,5.47-4,9.75-.45a11,11,0,0,0,2.32,1.87c.37,0,.52-.21.31-.59-1.45-2.65-5.66-3.87-4.63-7.68.78-2.87,4-4.44,4.8-7.56-15,16.48-32.35,30.7-47.62,47.9,3.82-.94,5-5,8.35-5.12,3.6-.13,4.82,3.65,7.92,5.77-.41-2.76-2.06-3.75-3.23-5-2.21-2.34-2.49-4.56-.13-7s4.93-5,7.42-7.42,4.64-2.09,6.93.18c6,6,12.87,11,18.13,17.86,4.69,6.08,11.53,10.08,16.59,15.86,1.24,1.42,3.36,2.43,2.72,4.91h-10c-7.21-3.28-11.77-9.54-16.85-15.17a101.19,101.19,0,0,0-12-11.72c5.53,7.59,5.53,7.59-.7,14.86a.48.48,0,0,0,.79.17c7.37-5.73,7.37-5.74,14.2,1.09,1.17,1.18,2.38,2.32,3.5,3.55,3.24,3.57,3.13,4.32-1,7.22h-9c-2-4.59-4-.47-6,0h-7c-2-.22-4-5.12-6,0h-10c-3.37-1.7-3.07-3.85-.85-6.34,1.08-1.21,2.54-2.11,3.14-3.73a1.09,1.09,0,0,0-1.33.44c-5.95,6.58-7.6,4.82-12.61-.94-7.88-9.05-7.4-8-.72-15.69,8.45-9.72,18.72-17.48,27.41-26.9C184,339.65,191.64,331,200,323.17c4.33-4,4.52-4.11,9-.39a69.23,69.23,0,0,1,5.73,4.82c4.4,4.48,4.46,6.34.37,10.95-.62.69-1.66,1.12-1.63,2.31,7.31-5,7.31-5,14.43.25-1.24-3.48-37.43-40.66-46.05-47.22,1.26,3.16,5.08,4.43,5,7.9s-3.4,4.74-4.88,7.18c0,.48.22.65.58.36,7.15-5.76,7.15-5.77,13.83.91,7.94,7.94,7.93,7,0,15-6.31,6.4-12.57,12.83-18.69,19.42-10.65,11.44-22.82,21.4-33.56,32.79-2.79,3-5.18,2.24-7.48-.56-1.59-1.92-3.08-3.92-4.83-5.72-4.28-4.43-4.25-4.56-.55-9.54a4.75,4.75,0,0,0,1.22-2.48c-3.23.61-3.9,5.24-7.48,4.72-3.13-.46-4.5-3.88-7.5-4.79-.65,1,.25,1.48.75,1.9,12.76,10.53,23.25,23.32,34.77,35.07,1.35,1.38,3,2.85,2.08,5.2h-9a22.48,22.48,0,0,1-4.44-3.17c-10.33-10.85-21.68-20.71-31.31-32.24a38.43,38.43,0,0,0-5.12-4.75c-3.55-2.94-3.61-4.28-.4-7.75,2.26-2.44,4.76-4.66,7-7.1,2.65-2.84,5-2.63,7.59.12a13.91,13.91,0,0,0,4.62,3.73c0-2.3-1.58-3.1-2.58-4.18-3.89-4.26-3.92-4.91-.17-9.12.72-.82,1.83-1.39,2-3.53-15.81,15.83-31.19,31.12-46.15,46.86,3.51-.22,4.59-4.49,8-4.34,3.26.13,4.26,3.84,7,5.09a1.63,1.63,0,0,0-.67-1.88c-5.49-5.14-5.19-6,.13-12.34,7.6-9,8-8.94,16.43-.67,10.07,9.92,19,21,29.93,30,1.53,1.28,3.63,2.58,3.09,5.23h-10c-8.56-4.58-14.34-12.21-20.78-19.09-2.59-2.77-5-5.72-8.4-8.36-.42,2.2,1,2.94,1.87,3.9,3.79,4.33,3.81,4.91,0,9.1a10.26,10.26,0,0,0-2.43,3.09c.45,0,.65,0,.74-.07,7.53-6.28,7.52-6.28,14.48.67,1.17,1.18,2.39,2.32,3.51,3.54,3.24,3.57,3.13,4.31-1,7.22h-10c-.35-1.82-.34-4.26-3.18-1.87-1.11.95-2.74.85-3.82,1.87h-5c-2,0-4-5.37-6,0h-10c-3.38-1.7-3.08-3.86-.84-6.34,1.22-1.35,2.74-2.44,3.65-4-.21-.33-.49-.36-.82-.08-6.71,5.54-6.71,5.54-13.06-.32-8-7.39-8-7.37-.45-15,5.76-5.78,11.16-11.9,16.38-18.17,3.56-4.27,8.09-7.42,12.07-11.21,7.72-7.37,14.64-15.5,22.1-23.1,4.56-4.65,5.54-4.52,9.78.56,1.72,2,3.69,3.84,5.53,5.77,3.79,4,3.78,4.63.15,8.64-.86.94-2.1,1.62-2.53,4.14,5.09-5.16,10-7.86,15.13.23.28-2.72-.67-3.43-1.39-4.16-10.77-10.89-21.73-21.61-32-33-3.78-4.16-8.36-7.53-13.54-11.61.67,2.6,2.06,3.48,3.11,4.56,3.78,3.85,3.78,3.92.08,8-1.07,1.17-2.69,2-2.77,4.51,2.54-1.28,4-3.25,5.61-5s3.26-1.95,5.12-.31a68,68,0,0,1,9,10c2.17,2.87.1,4.63-1.64,6.39-8.09,8.17-16.12,16.41-24.41,24.38-10.1,9.7-19,20.57-29.13,30.21-4.84,4.61-6,4.59-10.24-.68-1.26-1.56-2.63-3-4-4.44-4.44-4.59-4.44-5.2-.29-9.83a3.84,3.84,0,0,0,1.58-3.32c-4.9,7.24-10,7.27-14.8.93-.63.8-.71,1.19-.42,1.42,12.54,9.81,21.71,22.95,33.23,33.77,2,1.9,5.19,3.32,4.88,7h-9a23.75,23.75,0,0,1-5.84-4.58c-12.19-12-24-24.49-36.53-36.15-2.28-2.13-2.14-3.83-.18-5.87,2.77-2.88,5.67-5.62,8.43-8.51,2.47-2.58,4.72-2.6,7.22,0,1.19,1.22,2.21,2.87,4.92,3-6.73-5.17-6.69-10.43-.8-16a43.82,43.82,0,0,0-7.38,6.94c-10.41,11.2-21,22.28-32.59,32.25-1.18,1-2.24,2.63-4.25,1.93v-9a38.25,38.25,0,0,1,6.52-8.77c11.38-11.46,22.76-22.9,35.18-33.27,2.93-2.45,5.06-2.67,7.61.12a63.65,63.65,0,0,0,6.71,6c4.17,3.45,4.15,4.88.3,8.85a24.12,24.12,0,0,0-3.75,4c3.65-1.6,5-4.68,7.82-5.5,3.58-1,5,2.63,7.93,3.41-15.17-15.58-31-30.51-46.37-45.88.3,3.38,4.34,4.54,4.51,7.79.17,3.46-3.85,4.71-4.93,7.88,2.32,0,3.18-1.61,4.27-2.71,2.44-2.49,4.7-2.8,7.23-.14,2.29,2.42,4.82,4.59,7.28,6.84,3.11,2.85,3.31,5.42,0,8-7.58,6-13.93,13.37-21,19.89-4.88,4.46-9.59,9.17-14.41,13.73-1.36,1.29-2.42,3.36-4.9,2.72v-9c3.43-5.61,8.4-9.78,13.3-14a164.72,164.72,0,0,0,15.54-15.83c-3.39.3-4.58,4.37-7.94,4.27s-4.51-4.17-7.8-5c.12,2,1.79,2.47,2.8,3.42,3.81,3.56,3.86,5.67,0,8.93q-2.67,2.24-5.16,4.68C5.57,341,4.18,340.82.21,334.25v-9c1.58-.84,2.65,1.07,4.59.77-1.07-2.71-3.69-4.21-4.59-6.77v-3c.93-2.11,2.81-3.63,3.75-5.72-1.31-1.41-2.6.69-3.75-.28v-9c.78-.87,1-2.07,1.82-3,2.63-2.93,4.22-2.93,7,0,1.17,1.25,1.81,3.2,4,3.33.43-1.08-.3-1.65-.85-2.16-6.49-6-4.36-6.87.56-11.85,1.64-1.65,3.19-3.38,4.71-5.15,2.81-3.27,4.94-3.37,7.8-.06,2.52,2.9,5.17,5.64,7.8,8.43,10.75,11.38,22.83,21.39,33.72,32.63,4.63,4.79,8.87,9.91,13.19,15,2.39,2.8,2.39,5.3-.38,7.79-.87.77-1.65,1.65-2.47,2.47-6.51,6.53-6.51,6.53-14.51,1.51.84,3.15,4.8,4.38,4.09,7.64-.64,3-3.33,4.87-4.47,7.7,14.51-16.28,30.94-30.61,46.25-46.48-5.15,5-10,5.87-14.6-.73-.77,2,.33,2.51.94,3.13,4.22,4.3,4.27,5.08.21,9.3-2.19,2.28-4.51,4.44-6.69,6.72-2.6,2.72-4.81,3-7.42-.17-2.77-3.3-5.57-6.61-8.51-9.79-13-14.06-27.21-26.87-40.86-40.27-2.13-2.09-3.92-4.52-6.06-6.63-2.4-2.38-2.06-4.65.2-6.93s4.43-4.52,6.7-6.71c4-3.89,5-3.85,9,.17.91.94,1.62,2.1,3.51,2.7-5.68-5.07-6.92-10.11-.55-15.4-4.6,3.94-9.45,7.29-13.28,11.69C22.51,275.81,13,284.41,4,293.58c-1,1-2,2.35-3.82,1.67v-10a25.63,25.63,0,0,1,4.58-5.85c12.05-12.66,25.5-23.94,36.68-37.44,2.24-2.71,4.62-3,7.21-.42,2.38,2.34,4.76,4.67,7.08,7.06,4,4.09,4,5,.23,9.09a9.69,9.69,0,0,0-2.07,2.6c3.15-.84,4.29-4.94,7.66-4.46,3.18.45,4.51,3.8,7.12,5.29C67,258,26.6,217.3,21.53,214.22c4.56,5.06,8.54,10.13-.49,15.3,3.29.12,4.29-1.73,5.62-2.91,2.13-1.92,4.06-2,6.11,0,2.74,2.67,5.48,5.35,8.11,8.14,1.76,1.85,2,3.66.2,5.71C29.26,254.1,15.78,266,2.9,278.56a2.22,2.22,0,0,1-2.69.69v-10c6.07-8.42,13.88-15.15,21.46-22.1,2.66-2.44,5.59-4.58,7.29-8.52-5.15,5.77-10.21,7-15,.47-1,.58-.49,1-.23,1.29,6.25,6.21,6.39,6.29-.34,12.93-1.42,1.4-2.78,2.87-4.25,4.21-3.65,3.31-5.3,3.07-7.72-1.1a12.13,12.13,0,0,0-1.19-2.18v-8c1.28-.88,2.41,1,3.94.1-.86-2.32-3-3.85-3.94-6.1v-3c.89-2.42,3.25-3.89,4.35-6.23-1.72-1-2.9,1.17-4.35.23v-12c3.54-5.64,3.54-5.64,13,2.63-.79-2.85-2.62-4.35-3.89-6.13-1.65-2.31-1.49-4.23.45-6.21,2.21-2.26,4.42-4.53,6.7-6.72,3.92-3.76,5.34-3.8,9.26-.24a42.76,42.76,0,0,1,4.91,5,162.57,162.57,0,0,0,17.07,18.15c10.85,10.09,21.1,20.84,31.55,31.36,4.27,4.29,4.22,5,.06,9.32-1.16,1.2-2.35,2.37-3.53,3.54-6.21,6.2-6.21,6.2-13.31.68,5.25,5,5.56,9.9-.09,14.84,15.54-15.54,31.21-30.5,46.14-46.2-3.1,1-4.34,5-7.67,5s-4-4.64-7.4-5.15c0,.39-.08.57,0,.69,1.28,2.88,6.56,4.37,4.49,8a30,30,0,0,1-11.66,11.35c-1.75,1-3.17-.2-4.37-1.49a483.27,483.27,0,0,0-34.42-34.08c-7.86-7-14.41-15.25-21.77-22.73-2.47-2.51-2.54-4.82,0-7.32s4.88-5,7.43-7.41c3.64-3.43,4.88-3.33,8.14.35.94,1.06,1.51,2.56,4.4,3.07-5.69-5.37-8.6-10.46-.53-15.56-2.55.54-3.56,2.15-4.82,3.4C28.53,189,17.19,201,4.76,211.89c-1.3,1.14-2.29,3-4.55,2.36v-9c.86-1,1.18-2.37,2.15-3.34C15.16,189,28,176.16,40.86,163.41c3.91-3.86,4.86-3.65,8.69,0,1.94,1.85,4.07,3.45,6.07,5.2,3.55,3.11,3.6,4.33.62,7.81-1.18,1.38-2.67,2.54-3.26,4.5,2.06.38,2.64-1.48,3.69-2.42,4.14-3.72,4.89-3.77,9.12.11a5.06,5.06,0,0,0,2.56,1.62Q45.73,156.71,22.26,134c.74,3,4.88,4.25,4.35,7.74-.45,3.05-3.71,4.63-4.69,7.57,1.27.32,1.73-.78,2.37-1.38,5.5-5.11,5.57-5.09,10.79,0,11.23,10.93,8.1,9.37.38,18.61-9.65,11.57-21.92,20.44-31.51,32C3,199.58,2,200.91.21,200.25v-10c1.32-2.76,3.53-4.78,5.65-6.89q9.9-9.86,19.75-19.77c1.22-1.24,3-2.19,3.07-4.63-3.2.9-4.32,5.17-7.87,4.72-3.19-.4-4.46-4.2-7.57-5-.22.58-.19.92.1,1.14,9,6.92,5.25,8.11-.16,13.72q-1.56,1.61-3.18,3.17c-4.7,4.54-6.24,4.31-9.79-1.43v-10c1.59-.86,2.64,1.12,4.57.71-1.05-2.65-3.67-4.15-4.57-6.71v-3a45.74,45.74,0,0,1,3.49-5.11c-1.27-.83-2.33,1.05-3.49.11v-11c3.79-6.13,4.05-6.12,13,1.17-.72-2.63-2.25-4.13-3.64-5.65-1.94-2.14-1.85-4.11.12-6.13.47-.47-.09.15.35-.36,9.4-10.94,8.88-10.34,19.62-1.14C42.31,139,53.06,151.73,65.23,163c4.87,4.53,8.64,10.07,13.93,14.27,3.67,2.91,3.42,5.48.28,8.9-1.8,2-3.72,3.82-5.64,5.66-4.07,3.92-4.82,3.9-9.08.15-.68-.6-1.13-1.63-2.32-1.54,4.73,7.19,4.73,7.19.32,14.94,14.94-15.58,30.93-30.1,45.7-46.32-5.27,6.29-10.32,7.37-15.42-.78,0,3.06,1.66,3.92,2.93,5,2.58,2.18,2.61,4.44.46,6.89l-.67.74c-9.56,10.81-10.55,11.15-20.24.68-15.71-17-33-32.35-49.09-48.95-4.47-4.61-4.51-5.2-.14-9.68,2-2,4-4,6-6,4.1-3.95,4.69-3.92,9,0,.93.86,1.6,2.1,3.08,2.37-5.25-7.63-5.25-7.63.1-15.31-5.06,4.29-10.27,8.48-14.88,13.22-7.88,8.11-16,15.92-24.08,23.87C4,132.61,2.86,134.79.21,134.25Z"/><path class="cls-1" d="M.21,391.25v-11c1.55-2.18,2.48-5.64,6.32-3.51,2.3,1.28,3.68,3.79,6.67,5.45-.25-2.55-1.88-3.46-2.95-4.66-3.39-3.76-3.45-4.8-.14-8.36,1.81-1.95,3.68-3.84,5.65-5.63,4.28-3.87,6-3.88,10.09.15,7.8,7.71,15.51,15.5,23.27,23.25A103.17,103.17,0,0,0,56.81,394c2.26,1.82,4.75,3.73,4.4,7.23h-9c-3.76-1.31-6.23-4.14-8.85-7-6.62-7.17-14.25-13.3-21.21-20.2.18,3.5,4.65,4.16,4.73,7.54s-3.53,4.92-5.23,8.08c9.63-7.08,6.35-6.36,15.42.45a25.68,25.68,0,0,1,3.29,3.05c3.51,3.78,3.33,5-1.15,8.05h-9c-.46-1.6-.45-4-3.1-1.75-.87.75-2.05,1-2.9,1.75h-7c-2-.47-4-4.59-6,0a47.89,47.89,0,0,0-7,.07c-3.46.51-4.77-.64-4-4.07,1.09-2.36,3.1-4.12,4.6-6.32C2.89,390,1.73,392.18.21,391.25Z"/><path class="cls-2" d="M.21,54.25C5.27,52,8.59,47.66,12.05,43.72A245.15,245.15,0,0,1,36.33,19.44c2.36-2,4.16-4.71,6.27-7,1-1.1,2-2.45,3.6-.62,1.22,1.38.63,2.39-.43,3.41-.24.23-.47.47-.7.71-5.28,5.73-5.27,5.73.06,11.8.81.92,2.37,1.64.87,3.24s-2.27.22-3.25-.62c-6.51-5.59-6.51-5.59-12.8.7-6.06,6.06-5.86,5.86.11,11.85Q54.48,67.35,78.55,92.19c7,7.19,6.74,7.4,14.16.06,5.38-5.32,5.35-5.29.12-10.92-.94-1-3.44-2-1.18-3.87,2-1.65,3.27.17,4.44,1.58,4.43,5.37,4.42,5.37,9.3.54.59-.59,1.16-1.19,1.77-1.76,1-.93,2-2,3.33-.55,1.11,1.26.62,2.48-.39,3.54s-2.31,2.4-3.51,3.56c-8.35,8-17,15.81-25,24.16-5.37,5.59-10,11.88-16.06,16.83-1.25,1-2.26,3.85-4.3,2-2.2-2,.6-3.14,1.67-4.28,5-5.33,5-5.28-1.19-10.15-1.4-1.09-3.42-2.13-1.37-4.3s2.89.25,3.92,1.21c5.62,5.22,5.59,5.26,11.06-.26,7.34-7.4,7.27-7.33,0-14.76C69,88.33,63.1,81.24,56.37,75.09c-10.52-9.63-19.93-20.32-30.1-30.27-5.12-5-5.13-5-10.07,0a56.49,56.49,0,0,0-4.48,4.68c-3.63,4.63-3.34,6.09,1.47,9.81,1.16.9,3.57,1.42,1.77,3.65s-3.14.39-4.44-.85a5.85,5.85,0,0,1-1-1.06c-2.75-4.64-5.82-4.85-9.26-.75Z"/><path class="cls-2" d="M76.21,401.25c-2.73-2.89-5.39-5.87-8.21-8.68-7.2-7.13-13.88-14.73-20.57-22.33-2.69-3.06-6.43-5.18-9.52-7.93-1.16-1-3.73-2.11-1.66-4.29,1.59-1.66,3-.11,4.24,1,5.42,4.78,5.4,4.74,10.75-.25,1.07-1,2.16-3.43,3.95-1.67,2.11,2.07-.64,3.17-1.71,4.3-5.16,5.45-5.52,4,.21,9.83a37.46,37.46,0,0,1,2.76,2.88c4.62,5.78,4.75,5.93,9.63.71,17.4-18.6,35.53-36.47,53.56-54.43,1.89-1.88,2.56-3.23.17-5.12-.87-.69-1.28-1.94-2.07-2.77-2.28-2.43-4.28-5.94-7.08-6.81s-4.25,3.58-6.65,5.26c-1.1.77-1.8,2.74-3.62,1s-.39-2.93.78-4.12l.7-.71c4.71-4.85,4.71-4.85.06-9.61-.58-.6-1.18-1.18-1.74-1.8-.85-.93-1.31-2-.47-3.15,1.16-1.53,2-.15,2.81.53a171.18,171.18,0,0,1,21.37,20c7.65,8.76,16.34,16.61,24.49,24.94,1.1,1.13,3.81,2.22,1.9,4.31s-3.69,0-4.87-1.43c-2.69-3.29-5.17-4.39-8.17-.36-.75,1-2.16,1.51-3.16,2.37s-1.58,1.06-2.56.16c-1.25-1.15-.67-2,.27-2.9.37-.34.72-.7,1.06-1.06,5.23-5.46,5.23-5.46,0-10.69-1-.94-1.92-1.85-2.82-2.83-5.13-5.54-5.19-5.6-10.65,0-6.37,6.55-12.14,13.77-19,19.74C88.2,356,78.61,369,66.83,380c-2.72,2.52-1.63,4.23,0,6.16.94,1.11,2.38,1.78,3.49,2.77,2.1,1.87,3.9,4.93,6.26,5.42s3.82-3.17,5.85-4.82c1.1-.89,2.27-1.79,3.52-.69,1.72,1.51-.26,2.26-1,3.12a20.63,20.63,0,0,1-3.53,3.52c-2.67,1.92-1.92,3.79-.23,5.79Z"/><path class="cls-2" d="M.21,134.25c7.14-6.66,14.2-13.4,21-20.39,7.08-7.24,14.6-14.07,21.93-21.07.75-.72,1.46-1.4,2.54-.49s1.08,1.88.12,3c-.66.74-1,2-1.76,2.36-5.52,2.82-3.47,5.74-.26,8.75.6.57,1.2,1.16,1.76,1.77.88,1,2.18,2,.66,3.32s-2.4-.15-3.32-1a56.4,56.4,0,0,1-4.23-4.24c-1.45-1.71-2.56-1.52-4,0-3.08,3.27-6.26,6.47-9.54,9.54-1.65,1.55-1.46,2.61.1,4a228.9,228.9,0,0,1,17.45,17.07c8.53,9.58,19.19,16.89,27.09,27.07,3.85,5,8.85,9,13.2,13.62,1.48,1.55,2.45.83,3.81,0,3.7-2.38,6.35-5.85,9.43-8.87,1.51-1.48,1.13-3-.58-4.17-.55-.38-1.35-.59-1.64-1.1-1-1.84-5.49-2.72-2.44-5.72,2.54-2.5,3.82,1.15,4.8,2.42,3.2,4.14,5.67,3.82,8.79-.07,1.07-1.34,2.43-4.87,4.76-2.69s-1,3.66-2.33,5C97.79,172.26,87.82,182,78.06,192c-4.65,4.74-9.9,8.92-13.69,14.49-.73,1.06-1.81,2.26-3.28.94a2.11,2.11,0,0,1,.1-3.49c7.15-4.68,3.84-8.74-.61-12.79-.87-.8-1.1-1.58-.17-2.54s1.66-1,2.53-.07c.24.24.47.48.72.69,6,5.13,6,5.12,11.56-.46,7.14-7.14,6.37-6.43-.37-13.71-10.49-11.36-22.15-21.59-32.08-33.47a23.92,23.92,0,0,0-5-4.88,52.63,52.63,0,0,1-13.33-11.91c-3.22-4.2-5.4-4.11-8.2-.1a8.83,8.83,0,0,1-1,1.07c-2.09,2.14-5.15,4-6,6.52-.91,2.73,3.4,4,4.42,6.61.56,1.47,2.58,2.84.79,4.32s-2.32-1.09-3.49-1.72a2,2,0,0,1-.36-.35c-5.12-5-5.12-5-10.36-.87Z"/><path class="cls-2" d="M.21,295.25c10.19-9.54,20.18-19.26,29.5-29.68,4.19-4.68,9.13-8.69,13.71-13a1.77,1.77,0,1,1,2.47,2.52c-.49.46-1,.93-1.41,1.42-5,5.39-4.93,5.35,0,10.62,1.07,1.14,3.84,2.28,1.7,4.29s-3.26-.37-4.48-1.94c-4.46-5.74-4.5-5.71-9.52-.68-8.82,8.81-9.29,9.34-.08,17.43,10.12,8.91,19,19.06,29.14,27.92,7.7,6.72,14.17,14.9,20.84,22.72,2.09,2.44,3.1,2.12,4.94.14,2.6-2.81,5.34-5.49,8.11-8.14,2-1.92,2.67-3.28,0-5.53-1.59-1.33-6.14-2.79-3.33-5.68,2.4-2.47,4.66,1.2,6.16,3,2.45,2.94,3.73,1.26,6-.28,1.82-1.27,4-5,5.84-3.11,2.77,2.85-1.56,4.4-3.14,6C94.8,335,82.78,346.44,70.92,358.1c-2.71,2.66-5,5.71-7.62,8.52-.88,1-1.94,2.15-3.31.67-1.13-1.22-.11-2.11.67-3,.57-.61,1.16-1.2,1.73-1.8,3.16-3.38,4.8-6.64-.25-9.91-1.34-.87-2.85-2.48-1.28-4.15s2.51.69,3.53,1.4c5.76,3.95,5.73,4,10.73-1,7-7,6.59-6.65.13-14.2C61,318,44,304.38,28.91,288.63c-2.56-2.68-3.92-7.86-8-7.48-3.36.31-4.5,5.34-7.5,7.47-.8.57-1.35,1.5-2.15,2.08-2.88,2.09-2.83,4,0,6.14a26,26,0,0,1,2.85,2.8c1.05,1.06,2.42,2,.6,3.61-1.39,1.22-2.39.62-3.42-.44-.34-.36-.71-.7-1.06-1.05-4.66-4.76-4.66-4.76-10-.51Z"/><path class="cls-2" d="M.21,214.25c14.31-12.21,27.22-25.88,40.64-39,1.44-1.41,2.93-5.16,5.24-3s-1.27,3.91-2.71,5.19c-3,2.65-3.52,4.62-.2,7.51,1.75,1.52,5.26,4.22,2.91,6.26-2.63,2.28-4.46-1.81-5.63-3.74-2.44-4-4.31-3-6.78-.22-2.88,3.22-7.61,5.81-8.56,9.46-1,3.94,4.68,6.07,7.23,9.17,13.68,16.63,31,29.63,45.45,45.49.9,1,1.92,1.85,2.81,2.84,4.82,5.34,4.82,5.35,9.83.34l2.12-2.12c5.51-5.51,5.48-5.48.28-11.07-.87-.94-3-1.62-1.57-3.55,1.67-2.25,3.51-.22,4.08.68,4.52,7,8.17,4.08,11.89-.69.86-1.1,2.18-2,3.28-.41,1.21,1.78-.65,2.69-1.61,3.65-12.45,12.52-25,25-37.41,37.49-2.44,2.47-4.56,5.26-6.91,7.83-.84.92-1.76,2.34-3.31,1.24a2.1,2.1,0,0,1,.1-3.47c5.58-4.48,4.71-8.55-.36-12.68a2,2,0,0,1-.11-3.11c1.37-1.26,2,.32,2.81,1,5.89,5.06,5.88,5.07,11.57-.62,6.92-6.91,6.92-6.92,0-13.87-9-9-17.48-18.38-27-26.7-8.43-7.39-15.2-16.17-22.85-24.19-2.93-3.09-5.39-4.23-8.32-.12a33,33,0,0,1-3.85,3.91c-5.15,5.15-5.15,5.15-.32,10.78a18.61,18.61,0,0,1,1.89,2.3,2,2,0,0,1-.56,2.69c-1,.87-1.89.45-2.61-.35s-1.16-1.6-1.75-2.4c-4.14-5.53-4.52-5.59-9.7-1.47Z"/><path class="cls-2" d="M236.21,401.25c-5.68-5.77-11.6-11.28-17-17.32-7.08-7.88-14.23-15.77-22.36-22.65-1.05-.89-3.35-2-1.16-3.88,1.86-1.63,2.53.61,3.55,1.4a25.11,25.11,0,0,1,2.85,2.8c2.24,2.41,4.13,2.53,6.59-.08,1.44-1.52,3-5.51,5.52-3.19,2.15,2-.79,4.43-2.58,6-2.59,2.2-2.28,3.81.07,6,3.13,2.92,5.92,6.2,8.86,9.33,3-3,6-6,8.92-9.12,8.27-8.66,16.95-16.89,25-25.74,7.37-8,15.94-15,24.09-22.33,3.2-2.88,4.17-5.46.07-8.29a18.42,18.42,0,0,1-2.14-2.1c-2.15-2.08-4-5.3-6.54-5.93-3-.74-4,3.66-6.36,5.3-1.12.78-1.89,1.93-3.29.42-1.21-1.3-.89-2.34.24-3.41.36-.35.71-.71,1.05-1.07,4.53-4.78,4.49-4.73,0-9.3-1.23-1.25-3.08-2.95-1.64-4.68,1.95-2.32,3.08.47,4.29,1.47,10.53,8.66,18.62,19.82,29.31,28.34,5.83,4.65,11.59,9.45,15.84,15.73.7,1,2.35,1.89,1,3.34-1.62,1.75-2.58-.1-3.67-1-.13-.1-.24-.24-.36-.35-5.56-5.22-5.53-5.18-10.88.44-1,1.05-1.61,4.1-4,1.58-2-2.08.52-2.9,1.46-3.91,5.58-6,5.62-5.93-.27-11.82l-.36-.35c-6.64-6.63-6.45-6.42-13.1-.25-15.25,14.16-29.87,28.95-44.55,43.68-3.39,3.41-6.41,7.18-9.75,10.64-1.41,1.45-1.25,2.38.11,3.67,2.77,2.64,5.56,5.29,8.11,8.15,2.1,2.36,3.91,2.89,6,.08a2.37,2.37,0,0,1,.71-.7c1.85-1,3.09-5.16,5.25-2.92s-1,5-2.92,6.21c-2.91,1.91-3.07,3.46-.94,5.8Z"/><path class="cls-2" d="M155.21,401.25a15.22,15.22,0,0,0-3-4.53C140.39,385,130,371.94,117,361.45c-1-.81-3.43-1.7-1.56-3.88,1.62-1.88,2.62.24,3.79.77a6.13,6.13,0,0,1,2.33,1.83c2.67,3.54,5.09,3.7,7.52-.24a12.07,12.07,0,0,1,2.09-2.14c.85-.78,1.7-1.83,3-.84s.85,2.14-.12,3c-5.94,5.06-3.34,8.65,1.21,13.25,5.74,5.8,5.2,6.19,11.05.53,7-6.82,14-13.74,21.13-20.45,11.39-10.68,21.88-22.32,32.82-33.48,1.52-1.55,1.65-2.59,0-4s-3.08-3-4.61-4.56c-5.9-5.9-5.9-5.9-12.27-.58-1,.83-2,2.21-3.32.73s.11-2.36.93-3.33c.33-.38.71-.71,1.05-1.06,5.06-5.18,5.06-5.18,0-10.38-.69-.72-1.41-1.42-2-2.19a1.53,1.53,0,0,1,.07-2.22,1.51,1.51,0,0,1,2.21-.2,23.52,23.52,0,0,1,2.2,2q21.19,21.18,42.34,42.43c1.7,1.7,5.16,4.14,3,6.25-2.88,2.85-4.23-1.77-5.73-3.28-2.57-2.6-4.38-3.19-6.58.05a5.55,5.55,0,0,1-1,1.06c-1.47,1.16-2.9,4-4.83,2.17-2.37-2.24,1.13-3.23,2.2-4.39,4.58-5,4.73-5.31-.15-10-2.38-2.29-5.07-4.27-7.47-6.55-2.06-2-2.93,0-4,1-7.66,7.61-15.12,15.43-22.51,23.31A249.74,249.74,0,0,1,159,366.2c-4.91,4.15-8.88,9.4-13.33,14.1-1.27,1.34-1.44,2.39-.11,3.81,2.61,2.79,5.18,5.61,7.56,8.58s4,2.42,6.38,0c1.53-1.57,3.39-5.56,5.51-3.46,2.79,2.76-1.75,4.21-3.27,5.84-2.08,2.22-2.77,3.93-.5,6.21Z"/><path class="cls-2" d="M316.21,401.25,279.49,364l-3.18-3.18c-1.06-1.06-2.4-2-.56-3.61s2.67-.27,3.73.87c.78.84,1.61,1.64,2.37,2.5,2.94,3.27,5.47,3.43,7.66-.82a11.34,11.34,0,0,1,2.33-2.58,1.61,1.61,0,0,1,2.23-.34,2.11,2.11,0,0,1,.87,2.62,11.19,11.19,0,0,1-1.11,1.63c-1.39,2.28-6.07,3.82-4.47,6.22,2.59,3.87,5.26,8.19,9.61,10.6,1.66.92,3.16-.11,4.43-1.38q27.71-27.75,55.48-55.46c3.18-3.17,3-5.81-.64-8.32-1-.66-1.88-1.36-2.84-2-2.31-1.54-3.55-5.17-6.46-5-2.73.15-3.49,3.72-5.34,5.58-1,1-1.84,2-3.27.51-1.21-1.29-.95-2.34.19-3.42.37-.34.71-.7,1.06-1.07,4.88-5.15,4.84-5.12.14-10.17-1-1.07-3.38-2.09-1.65-4s2.87.41,4,1.38c12.82,11.38,24.69,23.76,36.88,35.8,2.59,2.56,5.51,4.78,8.15,7.29,1,1,2.5,2.64,1.48,3.83-1.4,1.63-3-.26-4.36-1a5.64,5.64,0,0,1-1.48-1.33c-2.44-2.75-4.79-2.53-7.15.13a37.65,37.65,0,0,1-2.84,2.81c-.79.73-1.66,1.16-2.62.24s-.61-1.77.1-2.61c.22-.26.47-.48.68-.74,5.31-6.34,5.37-6.39-.64-12.24-2.47-2.41-4.45-6.58-7.65-6.65s-4.34,4.58-6.68,6.9c-8.41,8.32-16.59,16.87-25.15,25-9.14,8.7-16.44,19.23-26.71,26.79-3,2.2-3.22,4.34-.09,6.64a26.16,26.16,0,0,1,2.49,2.45c2.26,2.22,4.22,5.64,6.87,6.32,3,.77,4.27-3.75,6.75-5.44,1.07-.74,2-2.12,3.35-.67,1.17,1.21.75,2.44-.25,3.54a18.09,18.09,0,0,1-2.47,2.48c-3,2.19-3.48,4.47-.49,7Z"/><path class="cls-2" d="M400.21,179.25c-9.66-9.54-19.45-18.92-28.71-28.87-9.05-9.73-19-18.6-28.55-27.88-1.47-1.44-2.58-1-3.79.29-1.62,1.68-3.29,3.31-4.94,5-5.49,5.48-5.49,5.49-.62,11.39.83,1,2.11,2,.65,3.35-1.23,1.15-2.44.69-3.55-.29-.25-.22-.48-.46-.73-.68-5.15-4.49-5.17-4.51-10.68.17-1.35,1.15-2.74,2.36-4.26.61s.29-2.82,1.35-3.63c8.23-6.32,14.95-14.2,22.27-21.45,7.56-7.49,14.75-15.33,22.12-23a19.76,19.76,0,0,1,2.56-2.37,2.16,2.16,0,0,1,3.13.37,1.66,1.66,0,0,1-.4,2.61c-7,4.72-6.71,9.31.08,14a1.59,1.59,0,0,1,.23,2.59,2,2,0,0,1-2.7.46,24,24,0,0,1-3-2.62c-4.51-4.42-4.5-4.43-9.09.16-7.84,7.82-7.31,7.38-.44,15.56,9.15,10.88,20.47,19.44,30.09,29.79,6.18,6.64,12.64,13,19,19.52Z"/><path class="cls-2" d="M400.21,100.25c-4.52-2.76-7-7.51-10.6-11.13-14.05-14-28-28.08-42.13-41.94-2.2-2.16-3.13-6.63-6.42-6.32-3.13.29-4.84,4.23-7.34,6.39-.5.44-1,.94-1.42,1.41-4.56,4.56-4.55,4.56-.1,9.09a27.11,27.11,0,0,1,2.37,2.55c.76,1,.16,1.84-.56,2.62a1.53,1.53,0,0,1-2.55.07A13.23,13.23,0,0,1,329,60.51c-3-5.49-5.73-3.74-8.64,0a10,10,0,0,1-2.6,2.3,2,2,0,0,1-3-.81c-.67-1.12.11-1.83.94-2.47,7.11-5.55,13-12.39,19.34-18.73,8.54-8.54,16.79-17.38,25.17-26.08.81-.84,1.67-1.64,2.49-2.46,1.25-1.25,2.52-.73,3.55.17,1.36,1.19.05,2-.64,2.87-1.87,2.28-5.73,3.88-5.47,6.61.21,2.22,3.5,4.14,5.4,6.21.89,1,2.15,1.94.69,3.34-1.2,1.16-2.43.74-3.54-.25-.5-.45-1-.93-1.44-1.39-5.71-5.46-6.13-5.42-11,1.24-.39.54-.68,1.15-1.11,1.65-4.59,5.42-4.54,5.37.68,10.72,10.42,10.68,20.49,21.71,31.25,32,6.46,6.18,11.94,13.35,19.09,18.8Z"/><path class="cls-2" d="M400.21,339.25c-13-12.77-26.17-25.37-38.66-38.68-5.87-6.25-12.38-12-18.56-18-1.45-1.41-2.52-1-3.81.22-1.57,1.46-3.27,2.79-5,4.11-6.62,5.14-6.67,5.66-1,11.85,1.09,1.19,2.77,2.24.94,4.11-2,2.08-2.93-.17-3.93-1.16-5.69-5.67-5.7-5.73-11.11-.05-1.06,1.11-1.85,1.85-3.28.68-1.85-1.52-.62-2.56.51-3.61,5-4.65,10.1-9.13,14.88-14,10.05-10.16,19.89-20.54,29.89-30.74,1.08-1.1,2.17-3.78,4.3-1.72,1.77,1.7-1,2.77-1.3,4.25a1.49,1.49,0,0,1-.55.82c-5.08,3.45-3.28,6.45.59,9.34.53.39.92,1,1.43,1.4,1.24,1.07,1.49,2.11.07,3.25s-2.26.39-3.27-.76c-5.58-6.39-5.61-6.37-11.8-1.11-8,6.84-8.41,8.06-.54,14.9a266.16,266.16,0,0,1,24.84,24.39c7.87,8.88,17.17,16.1,25.38,24.51Z"/><path class="cls-2" d="M400.21,259.25C388.83,248,377.66,236.62,366,225.7c-7.88-7.38-15.2-15.28-22.74-23-2-2-3.24-2.15-5.12,0a70.05,70.05,0,0,1-7.42,7.4c-2.8,2.37-2.49,4.21.15,6.34,1.42,1.14,2.6,2.58,3.91,3.86.81.79,1.18,1.6.25,2.54s-1.78,1.6-3,.58a9.55,9.55,0,0,1-1.06-1.05c-5.73-6.3-5.71-6.28-11.79-.67-.86.79-1.61,2.73-3.13,1.54s-.56-2.62.49-3.86c6.43-7.62,14-14.17,20.84-21.33,7.7-8,16.05-15.37,23.81-23.31.81-.84,1.64-1.67,2.49-2.45s1.66-1.17,2.62-.26a1.55,1.55,0,0,1-.1,2.58c-6.65,4.6-7.36,9.18-.2,14a1.3,1.3,0,0,1,.14,2.15c-.7.7-1.39,1.57-2.54,1a7.76,7.76,0,0,1-1.56-1.22c-6.33-5.32-6.36-5.35-12.26.61-7.37,7.44-7.37,5.73.07,13.19,13.95,14,28,28,41.91,42a41.2,41.2,0,0,0,8.45,6.91Z"/><path class="cls-2" d="M.21,358.25C5.44,353,11.06,348.08,16.44,343c7.1-6.71,13.52-14.21,21.4-20.09,5.37-4,5.37-5.13,0-9.57-.51-.42-1-.91-1.44-1.38-2-2-3.76-5-6.15-5.67-2.86-.81-4.13,3.13-6.3,4.75-1.33,1-2.58,1.76-3.92.32S20.12,309,21,308c.33-.38.7-.71,1.05-1.07,5.23-5.3,5.23-4.09,0-9.44-.59-.59-1.17-1.19-1.75-1.78-1-1-.87-2,.08-3.05s1.92-.93,2.91.07c8.17,8.25,16.32,16.5,24.54,24.69,4.92,4.9,9.65,10.05,15,14.37,3,2.37,4.62,5.62,7.38,8a1.61,1.61,0,0,1,.16,2.6,1.59,1.59,0,0,1-2.59-.21c-4.53-6.62-8.58-4.85-12.57.54-1.06,1.44-2.4,1.74-3.74.21-1.51-1.74,0-2.23,1.16-2.9a6.63,6.63,0,0,0,.81-.58c6.67-5.49,6.78-5.63-.28-10.78-2.85-2.09-4.22-7.43-8.47-6-3.19,1.06-5.6,4.51-8.31,6.94-12,10.79-23.73,21.81-34.18,34.13a10.82,10.82,0,0,1-2,1.5Z"/><path class="cls-2" d="M.21,121.25c7.2-5.71,12.89-12.89,18.87-19.77C24.53,95.19,30.16,89.09,36.75,84c6.26-4.83,6.39-5.28,1-10.74-1.75-1.77-3.83-3.37-5.09-5.46-2.14-3.54-4-2.68-6.18-.28A23,23,0,0,1,24,70c-1.15.92-2.2,3.28-4,1.23-1.41-1.62.29-3.09,1.22-4.35,1.51-2.06,5.71-2.49,5.06-5.4-.5-2.23-3.41-3.9-5.2-5.85-.85-.93-2.39-1.85-1.12-3.31,1.56-1.8,2.52.1,3.69.85,7.32,4.64,11.84,12,17.77,18C50.59,80.49,59.2,90.36,69,99.09c1.14,1,2.76,1.57,1.37,3.45-1.67,2.25-2.77.54-3.94-.6a30.29,30.29,0,0,1-2.46-2.48c-2.23-2.75-4.35-2.63-6.52.06a12.73,12.73,0,0,1-1.76,1.76c-1.06.9-2,2.73-3.66,1-1.34-1.45.2-2.36,1-3.32,4.35-5,4.35-5-.41-9.8-7.9-7.9-8-8-16,.22-10.82,11-21.53,22.19-32.32,33.27-1.27,1.3-2.72,2.41-4.09,3.61Z"/><path class="cls-2" d="M.21,279.25c13.72-12.81,27.46-25.6,40.1-39.52,1.52-1.67,1.46-2.66-.12-4s-2.84-2.82-4.27-4.22c-1.91-1.85-3.59-4.7-5.82-5.25-2.63-.65-4,2.95-5.9,4.62-1.38,1.18-2.59,1.49-3.95.32-1.71-1.47,0-2.29.79-3.2a16,16,0,0,1,2.47-2.47c2.66-2.07,3.09-4,.18-6.33-1.15-.9-1.86-2.35-3-3.36s-1.56-2-.25-3.3c1.55-1.49,2.37-.07,3.25.81q23.17,23.13,46.31,46.32c.84.84,2.46,1.6,1,3.22-1.69,1.89-2.53,0-3.59-.84-.25-.21-.47-.47-.71-.7C61.35,256,61.37,256,55.89,261c-1,.92-2,2.93-3.64,1.43-2-1.82.34-2.83,1.26-4A15.59,15.59,0,0,1,56,256c2.5-1.94,2.18-3.61-.06-5.61a79.15,79.15,0,0,1-7.76-7.78c-2.57-3-4.25-1.89-6.29.53C29.11,258.29,14.32,271.44.21,285.25Z"/><path class="cls-2" d="M.21,200.25C10,188.73,22.66,180.11,32,168.14a59.87,59.87,0,0,1,7.71-7.81c2.29-2,2.33-3.77.25-5.81-1.07-1.05-2.09-2.14-3.17-3.18-2.28-2.17-4.34-5.59-6.95-6.11s-4.3,3.57-6.56,5.45c-1,.86-2,2.08-3.33.57-1.09-1.24,0-2.11.74-3,.33-.37.69-.73,1-1.13C26,141.28,26,141.28,21,135.56c-.82-1-2.36-1.88-1-3.32,1.62-1.74,2.67,0,3.65,1Q46.47,156,69.21,178.79c1,1,2.78,2.06,1,3.64s-2.58-.47-3.65-1.33a9.17,9.17,0,0,1-1.76-1.76c-2.53-3.54-4.64-2.91-7.46,0-1.48,1.54-2.86,6.11-5.73,3.36-2.25-2.17,1.2-4.78,3-6.19,4.21-3.29,2.73-5.53-.71-7.86-.83-.55-1.68-1.08-2.46-1.69-2.2-1.7-3.85-5.7-6.27-5.09-3.28.82-5.71,4.15-8.22,6.76C25,181.11,12.91,193.51.21,205.25Z"/><path class="cls-2" d="M221.21,401.25a92.16,92.16,0,0,0-12.75-12.54,45.89,45.89,0,0,1-8.77-8.84c-4.93-6.88-12.23-11.2-17.77-17.38-1.39-1.55-2.58-.9-3.78.32-2.69,2.74-5.32,5.53-8.15,8.11-2.07,1.88-1.58,3.29.24,4.89,1.37,1.21,2.59,2.59,3.89,3.88s.86,2.34-.28,3.4c-1.29,1.2-2.09.23-2.9-.62a24.42,24.42,0,0,1-1.58-1.92c-3.62-4.87-4-4.9-8.25-.7-.35.35-.68.73-1.06,1-1.44,1.25-2.88,3.64-4.91,1.44s.76-3.22,1.87-4.31c12.66-12.45,25.43-24.77,38.08-37.22,2.6-2.55,4.78-5.51,7.29-8.16.87-.92,1.69-2.9,3.56-1.13,1.58,1.51,0,2.3-.73,3.27-.1.13-.22.25-.32.38-1.71,2.21-4.83,4.5-4.72,6.62s3.4,4.17,5.31,6.23c.81.87,1.76,1.61.54,2.91s-2,.68-2.9-.26-1.89-1.88-2.83-2.83c-2.52-2.56-4.92-3.11-7.4.17A26.84,26.84,0,0,1,189,351.9c-6.22,5.45-6.23,5.44-.28,11.39q13.84,13.84,27.7,27.71c3.5,3.51,8.09,5.88,10.77,10.25Z"/><path class="cls-2" d="M381.21,401.25a397.83,397.83,0,0,0-38.43-39c-2-1.74-3-1.26-4.4.34s-2.81,2.84-4.22,4.26c-5.94,5.93-5.94,5.93-.63,12.27.83,1,2.2,1.93.78,3.33s-2.75.7-3.89-.5c-1.77-1.86-2.57-5.6-5.48-5.09-2.07.37-3.75,3.06-5.56,4.77-1.16,1.1-2.2,2.07-3.78.54-1.81-1.75-.13-2.67.87-3.59,2.8-2.59,5.88-4.89,8.52-7.63,12.33-12.81,24.54-25.73,36.79-38.61.92-1,1.69-2.25,3.21-.74,1.19,1.18,1.19,2.27,0,3.41-.36.34-.71.7-1.05,1.07-5.33,5.68-5.32,5.67.25,10.72a19.12,19.12,0,0,1,2.39,2.54c.76,1,.16,1.84-.56,2.62a1.53,1.53,0,0,1-2.55.07c-.81-.83-1.65-1.64-2.48-2.46-5-5-5.67-5-10.56.06-2.07,2.14-3.81,4.6-5.85,6.77-1.7,1.82-.17,2.81.91,3.6,8.51,6.2,15,14.56,23,21.38,6.89,5.91,12.56,13.22,18.77,19.91Z"/><path class="cls-2" d="M301.21,401.25,289.48,389c-7.35-7.68-14.61-15.45-22.07-23-6.73-6.84-6.82-6.75-13.38-.07-.82.83-1.54,1.75-2.39,2.55-3.73,3.48-3.41,6.58.73,9.47a11.47,11.47,0,0,1,2.08,2.15c1,1.23.24,2.14-.64,3s-1.78.51-2.54-.31c-.56-.61-1.15-1.19-1.66-1.85-4.11-5.4-4.11-5.4-9-.6-.71.7-1.4,1.42-2.16,2.06-1.2,1-2.49,1.07-3.52-.16s-.07-2.21.8-3c1.86-1.64,4-3,5.69-4.8,4.38-4.53,8.87-9,12.82-13.89,4.31-5.34,9.65-9.56,14.58-14.19,4.59-4.31,9.21-8.6,13.75-13,.85-.82,1.6-2.46,3.22-1,1.89,1.66.09,2.53-.81,3.58-.32.38-.7.71-1.05,1.06-5,5-4.92,5,.09,9.67,1.07,1,3.9,1.86,1.92,4.21-2.16,2.57-3.45,0-4.76-1.22-5.08-4.8-5.05-4.82-10.16.25-.59.59-1.16,1.21-1.78,1.76-6.67,6-6.77,6.11.82,11.38,2.72,1.89,4.29,4.62,6.27,7,7.07,8.44,15.75,15.2,23.33,23.09a45,45,0,0,1,6.55,8.1Z"/><path class="cls-2" d="M61.21,401.25C59,396.14,54,393.65,50.29,389.9c-8.48-8.67-17.27-17-25.62-25.83-3-3.18-5.18-2.75-7.78,0-.69.73-1.41,1.41-2.12,2.12-6.51,6.51-6.52,6.51-.47,13.64.85,1,2.07,1.81.55,3.27-1.25,1.19-2.3,1-3.41-.12a17.48,17.48,0,0,1-2.09-2.13c-2.82-4.18-5.81-4.71-9.14-.6v-6c13.39-11,25.38-23.38,36.88-36.29,2-2.23,4.22-4.26,6.31-6.4a1.77,1.77,0,1,1,2.5,2.49c-.36.35-.73.69-1,1.07C40,341,40,341,45.22,346.76c1.11,1.22,2.69,2.31.82,4.12-2.09,2-2.9-.33-3.92-1.28-5.58-5.18-5.57-5.23-11.06.32-2.45,2.47-6.5,4.93-6.67,7.6-.14,2.23,4.33,4.73,6.72,7.15Q49.17,383,67.21,401.25Z"/><path class="cls-2" d="M141.21,401.25c-3.77-5.15-9.1-8.7-13.55-13.14-7.88-7.86-15.69-15.83-23.07-24.16-3.57-4-6-3.71-8.86.24a27.27,27.27,0,0,1-2.44,2.49c-5.64,6-5.62,5.95-.16,12,1.05,1.15,3.05,2.39.82,4C92.12,384,91.13,382.42,90,381c-4.31-5.57-4.33-5.48-9.6-.52-1.15,1.08-2.22,3.81-4.31,1.84s.15-3.57,1.48-4.91q21.87-21.94,43.83-43.8c1-1,2.12-3.3,4-1.34,1.54,1.64-.53,2.57-1.37,3.65a7,7,0,0,1-1.41,1.41c-3.44,2.5-3.79,4.74-.28,7.82,1.55,1.37,6.15,2.88,3.31,5.76-3.07,3.11-4.77-1.53-6.28-3.22-2.86-3.21-4.75-3.08-7.34.15a65.34,65.34,0,0,1-7,7.09c-2,1.86-1.5,3.07.27,4.85,13.71,13.76,27.31,27.64,40.94,41.48Z"/><path class="cls-2" d="M400.21,323.25c-11.11-11.34-24.71-20.12-34-33.33-2.35-3.33-5.84-5.89-9-8.61-1.29-1.13-2.34-1.9-.92-3.57s2.68-1.11,4.16.17c2,1.77,2.5,6.09,5.72,5.37,2.22-.49,3.89-3.43,5.81-5.27.84-.81,1.59-1.8,2.89-.59,1.56,1.44.36,2.3-.56,3.25-.7.72-1.43,1.41-2.1,2.15-2.69,3-3.46,5.78.49,8.49a11.47,11.47,0,0,1,3.79,3.93c2.62,5.27,4.95,3.54,8,.33,5.05-5.28,10.45-10.23,15.71-15.32v6c-2.9,5.2-7.66,8.72-11.73,12.84-2.33,2.36-3.1,4.12,0,6.32a16.37,16.37,0,0,1,3.55,3.5,8.21,8.21,0,0,0,8.19,3.34Z"/><path class="cls-2" d="M400.21,244.25c-14.16-13.06-28.11-26.35-40.84-40.84-1-1.16-2.21-2-3.27-3a2.12,2.12,0,0,1-.22-3.13c1-1.24,2-.78,3,.13s1.67,1.62,2.49,2.45c4.83,4.88,4.84,4.89,9.33-.74,1-1.3,1.56-3.94,4-1.83s-.36,3.08-1.31,4.27c-4.59,5.7-4.63,5.67.69,11,1.06,1.06,2.19,2.07,3.15,3.21,3.86,4.61,4.46,4.83,8-.16,4.1-5.85,9.85-9.8,15.06-14.39v5c-2.87,5.18-7.59,8.69-11.65,12.76-2.71,2.72-2.9,4.82,0,7.41,3.44,3.09,6.05,7.49,11.66,6.83Z"/><path class="cls-2" d="M395.21,401.25c-4.66-5.15-9-10.6-14-15.39-8.36-8-15.63-17.11-24.46-24.66-1.21-1-2.11-2.37-.83-3.86,1.54-1.8,2.59-.17,3.66.77.62.55,1.18,1.17,1.77,1.76,4.57,4.52,5,4.47,9-.77,1-1.36,1.85-3.66,4.18-1.93,2.63,1.94.11,3.08-1,4.23-5.21,5.55-5.17,7,.57,12.23,6.39,5.85,6.36,5.82,12.52-.26,4.48-4.42,9.06-8.75,13.6-13.12v6c-2.77,5.07-7.37,8.5-11.35,12.45-2.87,2.85-3.16,5.2-.1,7.9a13.11,13.11,0,0,1,2.77,2.85c2.13,3.48,4.78,5,8.68,2.8a21.34,21.34,0,0,0,0,4C401,400.5,399.44,402.15,395.21,401.25Z"/><path class="cls-1" d="M358.21,1.26h-10c-4.35,2.66-9.16,1.21-13.77,1.5-4,.25-7.92-.08-11.87,0-1.79.24-3.59-.18-5.38,0-3.26.16-6.51-.14-9.77-.08a7.54,7.54,0,0,1-4.2-1.42h-10c-2,1.91-4,1.13-6,0h-3c-1.66,1-3.33,1.6-5,0h-12c-4.35,2.66-9.15,1.21-13.75,1.49-3.64.24-7.28,0-10.92,0-1.79.23-3.58-.18-5.37,0-3,.17-5.94-.13-8.91,0a9.49,9.49,0,0,1-6-1.48h-10c-2,1.91-4,1.13-6,0h-2c-2,1.13-4,1.91-6,0h-9c-5,2.84-10.46,1.15-15.72,1.49-3.66.26-7.31,0-11,0-2.09.23-4.19-.2-6.28,0-3,.17-5.93-.1-8.9,0a8.69,8.69,0,0,1-5.12-1.46h-10c-2,1.91-4,1.13-6,0h-3c-1.66,1-3.33,1.6-5,0h-10C103.52,4,98.4,2.44,93.48,2.75c-3.65.25-7.29,0-10.94,0-1.79.23-3.58-.18-5.37,0-3,.17-5.94-.13-8.91,0a9.5,9.5,0,0,1-6.05-1.48h-9c-2,1.91-4,1.13-6,0h-3a9.68,9.68,0,0,1-6.09,1.48c-3-.11-6,.25-9.07,0-5.18.07-10.36.13-15.55,0A79,79,0,0,1,2.61,2.51,4.94,4.94,0,0,1,.21,1.25c.9-2.06,2.7-.93,4-.93Q91.45.22,178.71.25q108.49,0,217,.07c1.46,0,3.39-1.16,4.5.93-3.65,2.69-7.83,1.14-11.77,1.49a9.51,9.51,0,0,1-6.23-1.48h-10c-1.67,1.6-3.33,1-5,0h-3C362.21,2.39,360.21,3.17,358.21,1.26Z"/><path class="cls-2" d="M400.21,84.25c-3.85-2.36-6.72-5.68-9.81-9-10.77-11.47-22.08-22.44-33.13-33.64-1-1-3.5-1.7-2-3.81,1.63-2.26,3.17-.4,4.6.62a4.23,4.23,0,0,1,1.06,1c3.27,5,6.4,4.43,9.67-.07.77-1,1.91-2.87,3.61-1.37s.08,2.87-1,3.59c-5,3.3-4,6.35-.63,10.47,6.64,8.09,6.91,8.29,14.37.9,4.37-4.31,8.84-8.52,13.26-12.78v5a59.11,59.11,0,0,1-10.08,12.32c-5.22,5.16-5.19,5.19.14,10.52a9.62,9.62,0,0,1,1.05,1.07c2.2,3.25,5.17,4.23,8.89,3.09Z"/><path class="cls-2" d="M400.21,164.25c-8.87-8.23-17.52-16.65-25.55-25.75A113.45,113.45,0,0,0,359,123.28c-1.81-1.39-5.86-3.34-3.8-5.82s4.48,1.16,6.3,2.67c4,3.33,5.29,3.35,8.62-.71.53-.63.94-1.37,1.49-2,1.14-1.28,2.25-1,3.39.1s.32,2-.45,2.92c-1.85,2.25-5.85,3.83-5.33,6.58.47,2.46,3.77,4.38,5.83,6.54,6,6.33,6,6.3,12.28.09,4.25-4.19,8.6-8.28,12.9-12.42v6c-3.34,4.16-7.51,7.49-11.15,11.35-3.81,4-3.85,4.21.21,7.7a20.24,20.24,0,0,1,3.24,3.09c2,2.7,4.58,3.39,7.7,2.86Z"/><path class="cls-1" d="M29.2,1.26h9c.63,1.56-.48,2.5-1.32,3.47C26.69,16.6,15.22,27.17,3.3,37.27c-.86.73-1.76,1.59-3.09,1v-9C8.85,18.86,17.61,8.59,29.2,1.26Z"/><path class="cls-2" d="M.21,175.25c5.29,4.21,5.29,4.21,10.36-.86a50.83,50.83,0,0,1,4.62-4.55c3.94-3,2.73-5.23-.76-7.54-1.75-1.15-5.21-2.49-3.26-4.93s4.35.38,5.58,2.07c3.44,4.7,6.17,3.38,9.23-.34.93-1.14,2-3.71,4.23-1.27,1.77,1.94-.09,3-1.19,4.08Q14.65,176.12.21,190.25Z"/><path class="cls-1" d="M400.21,72.25c-3.07,3.65-5.38,2.37-8.27-.63-8.58-8.93-8.76-8.87.2-17.74,2.81-2.77,4.39-6.69,8.07-8.63v10c-.93,1.88-2.38,3.42-3.44,5.2.9,1.67,2.47-.14,3.44.8Z"/><path class="cls-1" d="M400.21,392.25a9.27,9.27,0,0,0-2.24,1.89c-1.68,2.77-3,1.67-4.38-.22a31.82,31.82,0,0,0-2.38-3.13c-7.73-8.31-7.76-8.32.39-16.41,2.8-2.78,5.74-5.42,8.61-8.13v9c-.93,2.12-2.81,3.64-3.76,5.73,1.31,1.41,2.6-.69,3.76.27Z"/><path class="cls-1" d="M400.21,233.25c-3.6,2.4-5.94.85-8.65-2-8.22-8.63-8.38-8.52,0-16.8,2.83-2.8,5.79-5.47,8.69-8.21v9c-.95,1.84-2.32,3.42-3.36,5.21.85,1.69,2.43-.17,3.36.79Z"/><path class="cls-2" d="M.21,95.25c3.34,4.14,6.27,3.52,9.18-.59a13.63,13.63,0,0,1,4.24-4.18c5.12-2.8,3.54-5.4.13-8.18a5.55,5.55,0,0,1-1-1.06c-.84-1.23-3.34-2.1-1.66-4s2.75.57,4,1.29a1.45,1.45,0,0,1,.4.3C19.4,83.4,23,82.5,26.65,78.37c.88-1,2-2.9,3.62-1.24,1.84,1.91-.46,2.94-1.47,4C22.62,87.4,16.44,93.7,10.08,99.81c-3.47,3.33-5.56,7.94-9.87,10.44Z"/><path class="cls-2" d="M.21,334.25C6,338.89,6,338.89,11.46,333.5l1.06-1.06c6.06-5.77,6.05-5.75,0-11.42-1-.92-2.76-1.77-1-3.59,1.5-1.53,2.63-.77,3.77.44a10.5,10.5,0,0,1,1.05,1.06c3.06,4.33,6.09,5,9.51.26,1-1.35,2.74-3.41,4.47-1.86,2.21,2-.27,3.56-1.6,4.84Q14.53,335.76.21,349.25Z"/><path class="cls-1" d="M400.21,312.25c-2.56,2.34-4.81,2.38-7.11-.52-1.53-2-3.21-4.07-5.31-5.24-5.72-3.17-3.18-5.59.15-8.54,4.22-3.75,8.19-7.78,12.27-11.7v10a18.51,18.51,0,0,1-3.63,4.81c1.14,1.43,2.76-.05,3.63,1.19Z"/><path class="cls-1" d="M400.21,152.25c-2.56,3-4.77,2.47-7-.47a30.05,30.05,0,0,0-4.59-4.57c-5.35-4.47-5.48-4.54-.27-9.49,3.83-3.63,6.85-8.23,11.91-10.47v8c-1,2-2.59,3.71-3.36,5.83,1.23.91,2.32-.67,3.36.17Z"/><path class="cls-2" d="M.21,254.25c5.67,4.83,5.67,4.83,11.24-.74l.71-.71C18,247,18,247,12.53,241.05c-.88-1-2.87-1.81-1-3.57s2.61.36,3.56,1.21c5.71,5.1,5.66,5.1,11.33-.11,1.08-1,2.09-3.24,4-1.32,1.64,1.64.32,3.14-1,4.22C19.08,250.09,10.29,260.35.21,269.25Z"/><path class="cls-2" d="M.21,38.25c13.64-11.33,26.6-23.36,38-37h6c-9.63,10.24-19.31,20.43-30,29.66C9.36,35.14,4.87,39.8.21,44.25Z"/><path class="cls-2" d="M39.21,401.25c3.68-3.08,2.61-5.67-.7-8.24-2.61-2-5.09-4.23-7.5-6.48-1.47-1.37-2.57-1.08-3.8.21s-2.56,2.61-3.88,3.87c-.94.9-2,2.19-3.31.7s.15-2.35,1-3.32c.22-.25.47-.47.7-.71,4.9-5.14,4.88-5.11-.1-10.19-1.17-1.2-3.32-2.31-1.21-4.44s2.91.26,3.91,1.23q14,13.64,27.93,27.37Z"/><path class="cls-2" d="M280.21,401.25c2.26-2.27,1.86-4.22-.58-6.13-1.3-1-2.35-2.35-3.56-3.49-2.16-2-4.1-5.15-6.62-5.76s-4.14,3.26-6.32,5c-.92.73-1.75,1.74-3,.63s-.5-2.07.35-3a22.12,22.12,0,0,1,2.11-2.11c3.4-2.78,4-5.47,0-8.27a18,18,0,0,1-2.45-2.48c-1-1.08-.68-2,.23-3,1.12-1.22,2-.71,2.9.23l27.93,28.42Z"/><path class="cls-2" d="M359.21,401.25c3-2.55,2.51-4.81-.48-7a31.58,31.58,0,0,1-3.2-3.14c-5.74-5.65-5.82-5.66-12.08-.57-1,.8-1.87,2.28-3.32.91s-.1-2.35.75-3.32a6.2,6.2,0,0,1,1.05-1.06c3.6-2.59,4.78-5.22.4-8.27-.89-.62-1.26-1.93-2-2.83-1-1.31-.29-2.1.68-2.89a1.65,1.65,0,0,1,2.59.31c8.11,10.39,18.61,18.39,27.6,27.89Z"/><path class="cls-2" d="M119.21,401.25c3-2.55,2.54-4.84-.49-7a21,21,0,0,1-2.13-2.09c-2.28-2.17-4.28-5.52-6.94-6.18-3.18-.79-4.58,3.65-7.07,5.43-.75.54-1.35,1.78-2.46,1s-1-2-.3-3.09a13,13,0,0,1,1-1.13c4.88-5.77,4.92-5.8-.1-11.88-1.1-1.33-1.72-2.37-.23-3.79s2.39-.11,3.25.79c6.19,6.48,12.29,13,18.53,19.46,2.86,2.95,6,5.68,9,8.5Z"/><path class="cls-2" d="M29.2,1.26c-1.61,3.3-5,4.71-7.59,6.93C14,14.76,8.18,23.1.21,29.25v-14c5,2.88,7-2,10.22-3.82,4.7-2.56,4.44-6.08,2.78-10.17Z"/><path class="cls-2" d="M199.21,401.25c2.95-2.55,2.53-4.82-.48-7a25.76,25.76,0,0,1-2.84-2.79c-6.1-6.1-6.1-6.1-12.59-.78-1,.84-2,2.12-3.33.61s-.63-2.74.79-3.75a10.66,10.66,0,0,0,1.27-.76c6.07-5.81,6-4.29-.16-10.1-1.09-1-3.61-1.51-1.64-3.61,1.58-1.69,3-.25,4.21,1,4.44,4.46,8.8,9,12.94,13.74s9.19,9,13.83,13.5Z"/><path class="cls-1" d="M13.21,1.26C17.77,7,17.67,7.6,11.53,12.1c-1.06.77-2.45,1.41-3,2.47C6,19.09,3.28,18.87.21,15.25v-9c1.29-1.34,2.72.23,4.11-.19,0-1.92-3.08-2.49-2.11-4.8Z"/><path class="cls-2" d="M400.21,191.25q-7.69,7.45-15.41,14.89c-1.28,1.24-2.7,3.19-4.56,1.32-2.1-2.12.76-3,1.63-4.34a5.25,5.25,0,0,1,1.41-1.41c3.74-2.63,3.84-5.21,0-7.89a14.57,14.57,0,0,1-2.13-2.1c-.87-.93-2.24-1.75-.67-3.24s2.3.05,3.25.83c6.55,5.33,6.54,5.32,12.36-.44,1.29-1.28,2.72-2.42,4.09-3.62Z"/><path class="cls-2" d="M400.21,111.25c-4.76,4.55-10.16,8.43-14.25,13.69a15.59,15.59,0,0,1-2.88,2.74,2.09,2.09,0,0,1-3.1-.41c-.86-1.1,0-1.78.84-2.37a3.59,3.59,0,0,0,.73-.67c5.1-6.26,5.1-6.26-.31-12.45-.81-.92-2.33-1.66-.8-3.24s2.29-.14,3.25.69c6.45,5.58,6.44,5.56,12.43-.37,1.29-1.27,2.72-2.41,4.09-3.61Z"/><path class="cls-2" d="M400.21,270.25c-5.93,4.86-11,10.61-16.36,16-.94.94-1.43,2.39-3.08,1-1.44-1.21-1-2.23.16-3.27.25-.22.43-.51.66-.75,3.8-3.79,4.92-7.34-.55-10.77-1.57-1-2.87-3-.73-4.49,1.94-1.39,2.82.81,3.78,2.05,3.8,4.91,5.54,5.07,9.91.92,2-1.93,4.14-3.81,6.21-5.72Z"/><path class="cls-2" d="M400.21,30.25c-5.37,5.2-10.7,10.43-16.13,15.57-1.05,1-2.11,3.37-4,1.51s.54-2.9,1.53-4c4.77-5.14,4.77-5.08,0-10.18-1-1.08-3.31-2.08-1.6-4s3.23-.24,4.58,1c5.25,4.88,5.27,4.9,10.22-.14,1.84-1.87,3.55-3.87,5.33-5.81Z"/><path class="cls-2" d="M400.21,350.25c-4.32,2.77-6.64,7.36-9.95,11-2,2.23-3.77,4.64-6.45,6.13-.88.49-1.81.94-2.72,0-1.17-1.2-.5-2.35.48-2.95,7.14-4.38,5.38-8.48-.2-12.63a1.66,1.66,0,0,1-.43-2.6,1.7,1.7,0,0,1,2.62-.1c.53.41,1.27.63,1.63,1.14,4.18,6,7.37,3.47,10.61-1,1.14-1.58,2.92-2.69,4.41-4Z"/><path class="cls-2" d="M382.21,1.26h6c5.38,3.05,9,7.76,12,13v6Z"/><path class="cls-2" d="M400.21,14.25l-12-13h12Z"/><path class="cls-2" d="M.21,319.25c1.68,1.52,3.41,3,5,4.57,1,.94,2.64,1.93,1.1,3.58-1.3,1.39-2.62.71-3.82-.36-.72-.65-1.53-1.19-2.29-1.79Z"/><path class="cls-2" d="M.21,159.25c1.68,1.52,3.41,3,5,4.57,1,.94,2.64,1.93,1.1,3.58-1.3,1.39-2.62.71-3.82-.36-.72-.65-1.53-1.19-2.29-1.79Z"/><path class="cls-1" d="M.21,391.25c.89-.7,1.81-1.37,2.66-2.11,1.32-1.16,2.55-.51,3.49.37,1.25,1.18,0,2.07-.76,2.81C3.85,394,2,395.62.21,397.25Z"/><path class="cls-2" d="M.21,231.25c.89-.7,1.81-1.38,2.68-2.12,1.14-1,2-.56,3,.32,1.2,1.11.72,2-.24,2.87L.21,237.25Z"/><path class="cls-2" d="M.21,240.25c1.45,1.29,2.94,2.55,4.35,3.88,1.22,1.16,2.4,2.53.85,4.17s-2.52-.11-3.61-.94c-.52-.39-1.06-.74-1.59-1.11Z"/><path class="cls-2" d="M.21,71.25C1,70.66,1.77,70.1,2.5,69.47c.94-.8,1.86-1.45,2.94-.28a2.1,2.1,0,0,1,.07,3.08C3.82,74,2,75.6.21,77.25Z"/><path class="cls-1" d="M2.21,1.26A7,7,0,0,0,5.28,4.32C6.3,4.89,7.4,5.6,6.63,7s-2.08,1.51-3.36.66C2.31,7,1.45,6.24.21,6.25v-5Z"/><path class="cls-2" d="M400.21,381.25a19.2,19.2,0,0,0-1.95,1.48c-.95.93-1.78,1.36-2.9.17s-1.08-2.29.1-3.37c1.57-1.44,3.16-2.85,4.75-4.28Z"/><path class="cls-2" d="M.21,310.25a18.77,18.77,0,0,0,2-1.47c.95-.93,1.77-1.36,2.89-.18S6.14,310.9,5,312c-1.57,1.44-3.16,2.85-4.74,4.27Z"/><path class="cls-2" d="M400.21,61.25a23,23,0,0,1-2.45,1.61,2.11,2.11,0,0,1-3-.81c-.7-1.06,0-1.88.72-2.55,1.53-1.45,3.13-2.83,4.7-4.25Z"/><path class="cls-2" d="M400.21,221.25c-1.66.64-3.25,3.47-5,1.05-1.29-1.74.83-3.24,2-4.5a37,37,0,0,1,3-2.55Z"/><path class="cls-2" d="M400.21,141.25c-.78.61-1.58,1.19-2.34,1.83s-1.38.88-2.15.13-1.28-1.4-.48-2.53c1.43-2,2.63-4.24,5-5.43Z"/><path class="cls-2" d="M102.21,401.25c.61-1.71,2.46-2,3.6-3.1s2.68-2.84,4.5-1-.77,2.74-1.1,4.14Z"/><path class="cls-2" d="M262.21,401.25c.63-1.74,2.41-2.16,3.71-3.09s2.67-2.55,4.32-1.08c2,1.75-.72,2.75-1,4.17Z"/><path class="cls-2" d="M.21,151.25c.66-.49,1.36-.94,2-1.49,1-.91,2.08-2,3.33-.44,1,1.26,0,2.17-.87,3-1.44,1.37-3,2.65-4.44,4Z"/><path class="cls-2" d="M400.21,302.25c-.9.38-1.84.68-2.7,1.14-1.24.68-1.83-.18-2.47-.92-.9-1-.35-1.72.57-2.42,1.58-1.21,3.07-2.52,4.6-3.8Z"/><path class="cls-1" d="M.21,80.25C1.58,81.46,3,82.6,4.29,83.88c.89.88,2.42,1.82,1.21,3.3C4,89,2.94,87.28,1.83,86.4,1.32,86,.75,85.63.21,85.25Z"/><path class="cls-2" d="M332.21,401.25c-.32-1.4-2.95-2.41-1.1-4.1s3.28.2,4.59,1.21a18.47,18.47,0,0,1,2.51,2.89Z"/><path class="cls-1" d="M24.21,401.25c.85-1,1.63-2.09,2.56-3s1.9-2.47,3.74-1.14c2.26,1.63.29,2.82-.3,4.16Z"/><path class="cls-2" d="M91.21,401.25c-.71-1.49-1.77-3.16.18-4.36,1.79-1.11,2.6.81,3.62,1.72a22.64,22.64,0,0,1,2.2,2.64Z"/><path class="cls-2" d="M252.21,401.25c-.41-1.47-3.23-2.76-.73-4.44,2.11-1.41,3.15.45,4.08,2.05.48.84,1.09,1.6,1.65,2.39Z"/><path class="cls-2" d="M171.21,401.25c-1-1.55-1.07-3.24.44-4.28,1.72-1.17,2.43.89,3.43,1.72a18.31,18.31,0,0,1,2.13,2.56Z"/><path class="cls-1" d="M11.21,401.25c-1-1.61-1-3.09.76-4.11s2.23.77,3.09,1.53a20.71,20.71,0,0,1,2.15,2.58Z"/><path class="cls-2" d="M184.21,401.25a19.81,19.81,0,0,1,2.14-2.58c.87-.76,1.44-2.5,3.09-1.53s1.81,2.5.77,4.11Z"/><path class="cls-2" d="M344.21,401.25a18.75,18.75,0,0,1,2.16-2.6c1.1-.93,2-3.23,3.9-1.53s-.75,2.72-1.06,4.13Z"/><path class="cls-2" d="M260.89,211.7c2.14.38,2.85,1.61,3.76,2.52,7,6.93,13.89,13.91,20.87,20.84,7.77,7.71,16.39,14.57,23.2,23.23.92,1.17,3.37,2.13,1.62,4s-3.24-.26-4.71-1.15a1.81,1.81,0,0,1-.67-.73c-2.67-5.75-5.43-3.57-8.27-.14a15.55,15.55,0,0,1-2.55,2.38,2.17,2.17,0,0,1-3.14-.29c-.88-.95-.43-1.82.29-2.63.22-.25.49-.46.68-.72,1.74-2.33,6.39-4.37,5.21-6.53-2.4-4.39-6.54-7.88-11-10.59-1.59-1-2.45.4-3.34,1.3Q254.37,271.58,225.93,300c-1.69,1.68-1.75,3,0,4.54,1.61,1.44,3.08,3,4.61,4.57,4.95,4.95,4.93,4.93,10.57.88a12.33,12.33,0,0,1,3.11-1.53,1.81,1.81,0,0,1,2.17.79c.5.72,0,1.25-.47,1.74s-.93.95-1.39,1.43c-5.45,5.73-5.43,5.71.3,11,1,.9,2.8,1.74,1,3.58-1.46,1.54-2.61.86-3.77-.37-9.71-10.27-20.37-19.61-29.62-30.36-4.87-5.66-10.55-10.63-15.94-15.83-.93-.89-2.63-1.21-1.11-2.93,1.09-1.22,2.22-1.34,3.43-.17.23.23.58.36.8.59,4.08,4.37,8,5.75,11.78-.38.81-1.32,2.1-1.41,3.37-.2,1.53,1.44.41,2.31-.53,3.27-.23.24-.48.47-.7.71-4.71,4.95-4.76,5,0,9.77,2.47,2.45,3.66,6.9,7.05,7.43,3.91.62,4.48-4.59,7.26-6.63,7.25-5.33,13.05-12.2,19.15-18.79,7-7.56,14.69-14.45,22.24-21.46,4-3.72,6.5-8.87,11.48-11.67,1.69-1,1.23-2.43-.06-3.73-3.17-3.19-6.38-6.35-9.35-9.71-1.43-1.62-2.24-.73-3.23.22-1.56,1.5-3.05,3.07-4.64,4.54-1.13,1-2.41,1.21-3.53,0s-.18-2.12.62-3c2-2.2,5.47-4.3,5.63-6.62.18-2.52-3.45-4.48-6-6.11a1.54,1.54,0,0,1-.53-2.18C260.14,212.72,260.65,212.06,260.89,211.7Z"/><path class="cls-2" d="M101.61,52.57a8.62,8.62,0,0,1,4.12,2.72c9.34,11.65,22.17,19.86,31.17,31.92,3.22,4.31,8,7.46,11.95,11.23,1.21,1.16,3.31,2.32,1.18,4.44s-2.95-.31-3.92-1.29c-5.92-6.06-5.44-5.24-10.8,0-1.11,1.08-2.26,3.82-4.29,1.61-1.67-1.81.75-2.88,1.76-4,4.78-5.11,4.81-5.07.37-10.61-.83-1-1.51-2.18-2.32-3.23-2.69-3.43-4.59-4.46-8.94-.8-6.89,5.8-12.27,13-19,18.86-10.18,8.92-20.69,17.73-28,29.51-1.73,2.78-4.65,4.7-7.4,6.6-2.19,1.52-2.49,3.13-.3,5.22,2.63,2.51,5.5,4.84,7.44,8,1.14,1.9,2.39,1.05,3.66-.08,1.73-1.53,3.62-2.89,5.38-4.4,1.08-.92,1.8-.35,2.53.42a1.4,1.4,0,0,1-.14,2.16c-.47.48-.93,1-1.41,1.42-5.72,5.6-5.68,5.56-.39,11.51.9,1,3.71,1.87,1.72,3.76-1.84,1.75-3.31-.4-4.5-1.67-3.41-3.62-6.56-7.5-10.1-11-7-6.88-14.44-13.3-21.16-20.41-4.44-4.71-9.26-9-13.75-13.61-.79-.81-2.65-1.62-1-3.14a2.61,2.61,0,0,1,3.94,0c2,1.77,3.37,5.53,6.35,4.81,2.49-.6,4.49-3.24,6.67-5,.93-.75,1.82-1.65,3-.46s.27,2.1-.53,3l-.7.71c-5.64,6.21-5.64,6.21.25,12.1,7.38,7.38,8.67,7.51,15.47-.94a272.56,272.56,0,0,1,28-29.7c7.47-6.87,14.57-14.1,21.93-21.07,2.6-2.47,4.07-4.23-.28-6.5a16.45,16.45,0,0,1-5.38-5.13c-2.9-4.1-5.62-2.83-8.51-.23-.75.67-1.41,1.42-2.15,2.1-1.08,1-2.22,2.51-3.66.64-1.19-1.55-.32-2.79,1.13-3.7.42-.27.88-.48,1.27-.79,6.11-4.9,6.09-5.71-.22-10.46-1.16-.88-2.77-1.52-2.34-3.4A1.66,1.66,0,0,1,101.61,52.57Z"/><path class="cls-2" d="M207.21,172.37c-.93,3-2.77,4.36-4.38,5.66-3.13,2.51-3.6,4.45-.23,7.34,1.67,1.44,6.05,3.28,3.48,5.81s-4.28-1.93-5.84-3.59c-2.63-2.83-4.57-3.29-6.93,0-1.25,1.75-2.68,3.36-4.05,5-4.55,5.58-4,5.16.56,10.92,9.17,11.5,21.23,20.07,30.63,31.31,6.17,7.37,14.67,12.48,20.4,20.4,2.43,3.37,5.65,4.28,8.94.67.78-.86,1.74-1.55,2.57-2.36,6.6-6.44,6.59-6.43.09-12.64-1-1-2.64-1.86-.83-3.59,1.6-1.53,2.66-.54,3.78.59.7.71,1.45,1.38,2.11,2.12,2.69,3,5.23,3.83,7.7-.27a13.55,13.55,0,0,1,2.09-2.13c1-1.07,2.06-1.61,3.42-.39s.76,2.25-.31,3.28c-15.81,15.25-30.5,31.66-47.11,46.1-1,.88-2,2.1-3.34.6-1.1-1.23-.05-2.11.73-3,.34-.37.71-.71,1.05-1.07,5.32-5.55,5.31-5.54-.5-10.57-1-.84-2.43-1.71-1.37-3.26s2.57-1.24,3.85-.07a29.08,29.08,0,0,1,2.84,2.82c2.05,2.42,4,2.61,6.19.13a74.89,74.89,0,0,1,7.08-7.06c2.6-2.21,2.21-3.77-.08-6-8.44-8.22-16.5-16.83-25.09-24.89-10.3-9.68-20-19.89-29.81-30.07-3.31-3.46-5.61-3.41-8.36.19a31.37,31.37,0,0,1-2.81,2.84c-5.79,5.79-5.79,5.79-.1,11.91.93,1,2.1,2,.63,3.32a2.18,2.18,0,0,1-3.5-.37c-4.07-6.22-7.94-5.88-12,0a2.18,2.18,0,0,1-3.5.37c-1.71-1.65-.05-2.7.95-3.67,10.73-10.45,21.51-20.84,32.23-31.29,5-4.85,9.84-9.82,14.77-14.72.69-.69,1.37-1.55,2.55-1.15C206.33,171.9,206.91,172.24,207.21,172.37Z"/><path class="cls-2" d="M231,261.09c-.47,1.61-1.34,2.29-2.67,1.63a8.4,8.4,0,0,1-3.24-2.22c-3.3-4.72-6.15-3.59-9,.38a10.43,10.43,0,0,1-1.4,1.42c-.95.9-1.77,2.14-3.27.63s-.66-2.53.4-3.8c5.84-6.95,5.82-7-.56-13.36-5.55-5.55-5.53-5.52-11,0Q175,271,149.75,296.21c-6,6-6,6,.18,12.27l.71.7c5.14,5.14,5.15,5.16,10.49.63,1.36-1.15,2.75-2.34,4.26-.6s-.46,2.6-1.33,3.67a9.51,9.51,0,0,1-1.77,1.76c-3.54,2.54-3.18,4.94.13,7.35a10.22,10.22,0,0,1,1.77,1.77c.87,1.06,2.8,2,1.07,3.65s-2.69-.34-3.65-1.29c-5.87-5.88-11.44-12.07-17.28-17.95-7.25-7.3-14.94-14.2-22.21-21.5-2.1-2.11-4.17-4.25-6.3-6.33-.95-.93-1.49-1.77-.27-2.9,1-.92,1.93-1.28,3-.25a1.72,1.72,0,0,1,.37.34c4.29,6.48,8.48,5.92,12.68-.12a1.64,1.64,0,0,1,2.6-.41c1.22,1.08.54,2-.26,3-1.77,2.15-5.48,3.65-5.18,6.31.36,3.22,4.19,4.88,6.35,7.37,1,1.12,2.19,2.06,3.15,3.2,2.15,2.56,3.09,1.86,5.62-.38,14.18-12.59,25.58-27.94,40.3-40,5.51-4.51,10.25-10,15.25-15.11,2.27-2.33,2.84-4.73-.44-6.87a17.43,17.43,0,0,1-2.5-2.44c-2-2-3.72-4.83-6.14-5.73-3-1.11-3.93,3.37-6.62,4.2-1.27.39-2.33,2.53-3.8.68s.64-2.56,1.45-3.67c.1-.13.24-.23.35-.35,5.42-5.64,5.44-5.67-.8-11-1.13-1-2-1.73-.86-3.24,1.41-1.84,2.49-.89,3.6.33,4.71,5.15,10.24,9.49,14.38,15.21,2.36,3.26,6.18,5,9.2,7.54,8.35,7.11,14.36,16.51,22.73,23.63A5.65,5.65,0,0,1,231,261.09Z"/><path class="cls-2" d="M288,174.53c-2,1.5-4,3-6,4.49-2.47,1.79-2.65,3.47-.09,5.43a33.14,33.14,0,0,1,3.9,3.87c.76.82,1.92,1.72.41,2.84-.94.7-2,1.3-3.16.28l-1.1-1c-6.07-5.29-6.07-5.28-11.92.57-6.26,6.25-6.26,6.25.11,12.62,13.16,13.17,26.5,26.15,39.39,39.58,4.59,4.79,9.54,9.17,14.1,14,1.69,1.79,3,1.94,4.24-.25,1.65-3,4.21-5.2,6.7-7.34,2.95-2.55,2.61-4.3-.07-6.78-1.39-1.29-5.09-2.59-2.82-5.16,2.84-3.22,4.38.92,5.64,2.37,2.91,3.38,5.19,3.56,7.81-.08a25,25,0,0,1,2.46-2.48c1.17-1.22,2.24-1.11,3.41.06s.49,2-.4,2.91a68.4,68.4,0,0,1-5.69,5.61c-12.8,9.95-22.9,22.49-33.57,34.5-2.29,2.58-5.2,4.61-7.83,6.9-1.2,1-2.12.4-3-.49-1.23-1.22-.36-2,.52-2.88,5.82-5.71,5.82-5.72.18-12.37-.86-1-2.1-1.82-.57-3.28,1.26-1.2,2.32-1,3.42.13.46.48.94.94,1.42,1.41,5.49,5.33,5.49,5.33,10.13-.61,2-2.58,5.46-5,5.7-7.76s-4.41-3.95-6.55-6.28c-9.55-10.41-18.95-21-29-30.87-7-6.86-14.45-13.22-20.64-20.86-2.14-2.64-4.22-2.92-6.53-.15-1.28,1.52-2.8,2.84-4.22,4.26-5.41,5.41-5.42,5.42-.53,11.61.72.91,1.8,1.76.69,3-1.36,1.5-2.31.23-3.33-.61-6.11-5-6.1-5-12.29.46-.9.8-1.62,2.44-3.23,1-1.87-1.71-.08-2.64.89-3.57,11.79-11.27,22.71-23.41,34.9-34.3,4.14-3.7,7.68-8.25,11.66-12.27.78-.79,1.58-1.94,2.94-1.1C286.47,172.15,286.73,172.82,288,174.53Z"/><path class="cls-2" d="M100.89,201.49a21.76,21.76,0,0,0-1.77,1.38c-1.33,1.26-2.62,2.57-3.9,3.88-2.1,2.13-5.33,4-6,6.51-.77,3,3.38,4.36,5.16,6.63.86,1.11,1.86,1.93.37,3.29-1.34,1.22-2.65,1-3.38-.33-4-7.19-8.25-6.13-12.84-.56-1.18,1.44-2.4.51-3.32-.6s0-1.66.77-2.36c15.66-14.23,30-29.78,45.17-44.54l2.49-2.46c1.26-1.26,2.35-.83,3.4.31,1.19,1.29,0,2-.62,2.92-1.65,2.47-6.07,2.79-6,6.22.11,3.12,3.69,4.47,5.52,6.79.65.82,1.3,1.63.52,2.63a2.21,2.21,0,0,1-3.12.54,5,5,0,0,1-.78-.61c-2.07-2-2.87-6.32-6.34-5.49s-6,4.35-8,7.24c-4.82,6.87-5.84,4.11.56,10.47,7.84,7.79,16.45,14.88,23.78,23.11,9.33,10.46,19.76,19.79,29.23,30.07,2.6,2.82,4.46,2.89,6.69-.1a24,24,0,0,1,2.45-2.49c6.58-6.58,6.58-6.58.8-13.57-.72-.88-1.89-1.66-1-3a2.07,2.07,0,0,1,3.46,0c4.74,5.77,9.16,6.56,13.68-.24.83-1.26,2-.52,3,.37,1.25,1.2.46,2-.43,2.89q-22.22,22.22-44.41,44.45a28.88,28.88,0,0,1-2.91,2.74c-1.26.94-2.18,0-2.95-.9-1-1.14-.1-1.73.75-2.35s1.83-1.42,2.75-2.13c2.89-2.24,2.89-4.3.16-6.93-1.79-1.72-5.94-3.94-3.22-6.48s4.65,2,6,3.74c2.32,3,3.67,2.31,5.7.06a68.28,68.28,0,0,1,7.09-7c3-2.48,2.51-4.16-.09-6.73-18.33-18.12-36.5-36.41-54.75-54.62C103.62,203.2,102.81,201.82,100.89,201.49Z"/><path class="cls-2" d="M257.1,86.4c-.86-2.34-3.18-3.61-4.74-5.51-.76-.92-2.46-1.61-1-3.23,1.69-1.89,2.53,0,3.59.83.13.11.23.24.35.35,5.4,5.13,5.38,5.11,11.06-.2,1.22-1.14,2.35-3.38,4.44-1.23,2.26,2.34-.53,3.27-1.58,4.25-15.52,14.33-29.48,30.21-44.76,44.78-1,1-1.76,3.4-3.91,1.58s-.37-3.15.86-4.45c.23-.25.47-.48.71-.71,5-5,4.93-5-.3-9.61-1.11-1-3.34-2-1.82-4,1.65-2.08,3.23-.49,4.58.83l.35.35c5.46,5.12,5.4,5.06,10.37-.69a28.07,28.07,0,0,1,4.94-4.12c2.65-1.9,2.92-3.61.18-5.73-7.25-5.62-12.63-13.13-19.29-19.36-6.89-6.45-13.41-13.31-20.08-20C195.85,55.4,190.63,50.26,185.5,45c-2.72-2.77-5.19-3.35-7.76.16a26.79,26.79,0,0,1-2.8,2.84c-5.64,5.64-5.65,5.65-1.09,12.35.66,1,1.71,1.83.51,3-1.46,1.42-2.3-.06-3.35-.78-2.15-1.46-3-5.22-5.71-4.9-2.14.25-4,2.72-6,4.11-1.17.8-2.2,3.26-4,1-1.61-2.12.84-3,1.86-3.86,5.58-4.74,10.79-9.87,15.95-15q13.56-13.59,26.12-28.09a4.23,4.23,0,0,1,1.05-1.06c1.91-1,3.85-4.32,5.72-2.56,2.57,2.43-1.19,3.86-2.56,5.21-3.28,3.22-3.78,5.81.13,9,1.39,1.12,4.78,2.62,2.68,4.88s-4.09-.62-5.69-2.1c-4.84-4.46-4.79-4.49-8.71.74a27.11,27.11,0,0,1-2.33,2.59c-5.76,5.91-5.82,6,.26,11.91,9.87,9.64,19.95,19.08,29.72,28.82,7.74,7.71,15.24,15.66,22.65,23.67,2.56,2.77,4.45,2.43,6.24-.4a18.7,18.7,0,0,1,5.9-5.94C255.64,89.62,257.05,88.49,257.1,86.4Z"/><path class="cls-2" d="M315.65,154.78a23.32,23.32,0,0,0,6.56-5c.78-.84,1.71-1.87,3-.82,1.53,1.28.56,2.54-.54,3.29-5.48,3.74-5.83,7.5-.61,11.89.9.76,3.15,2.45,1.31,4.14-2.16,2-3.17-.74-4.32-1.8-11.11-10.3-20.43-22.3-31.12-33-4-4-8.31-7.64-12.41-11.52-1-.94-2.87-1.91-1.55-3.64,1.44-1.88,2.67-.23,3.64.79,4,4.18,7.53,4.44,11-.64.83-1.2,2.48-2.67,4.23-1,2.12,2-.38,2.88-1.32,3.88-5.15,5.54-5.19,5.51,0,10.73,7.63,7.63,7.28,7.23,15.47,0,10-8.78,18.69-18.79,27.79-28.37,7.46-7.83,15.83-14.66,23.13-22.62,2-2.17,2.58-3.68.05-5.63a28.1,28.1,0,0,1-2.13-2.1c-2.41-2.28-4.54-5.77-7.35-6.47s-4.92,3.28-7.45,5.06c-1.57,1.1-2.67,1.25-3.77-.26-1.39-1.89.62-2.09,1.52-2.83.64-.53,1.27-1.07,1.88-1.64,4.65-4.36,4.65-4.36.11-8.92-.71-.71-1.4-1.43-2.12-2.13s-1.29-1.5-.37-2.54,1.79-.79,2.92,0a83.49,83.49,0,0,1,16.13,15.55c6,7.5,13.45,13.33,20.49,19.59a144.47,144.47,0,0,1,10.95,11.49c.77.84,1.15,1.55.25,2.55-1.1,1.22-1.91.71-2.91-.17-2.22-2-3.94-5.87-6.57-5.5-2.42.35-4.44,3.69-6.58,5.76-1.16,1.11-2.17,1.32-3.43.12-1.53-1.46-.29-2.26.56-3.28,1.89-2.26,5.58-3.72,5.53-6.69,0-3.14-4.09-4-6.19-6-6.09-6-5.63-5.33-12.18.3-7.7,6.61-13.68,14.87-21.67,21.16a66,66,0,0,0-11.24,12c-5.47,7.16-13.34,11.85-19.5,18.37-2.78,3-2.6,5-.06,7.47,2.25,2.23,4.46,4.49,6.73,6.7A25,25,0,0,0,315.65,154.78Z"/><path class="cls-2" d="M332.62,156.68a50.77,50.77,0,0,1,6,4.66c2.08,2.15,3.55,1.74,5.3-.27a41.32,41.32,0,0,1,3.36-3c1.11-1,2.11-2.31,3.66-.56s-.27,2.7-1.2,3.58c-6.5,6.2-13.24,12.27-19.23,18.82-8,8.71-17.7,15.61-24.73,25.17a14.06,14.06,0,0,1-2.52,2.41,2.07,2.07,0,0,1-3.12-.07c-.94-1.08.21-1.74.81-2.47.1-.12.24-.23.34-.35,1.77-2.16,5.43-3.66,5.16-6.28-.22-2-3.42-3.72-5.25-5.6-.88-.9-2.25-1.7-.76-3.26s2.51-.87,3.8.27c2,1.74,3.31,5,5.94,4.92s3.2-3.92,5.43-5.39a10.42,10.42,0,0,0,1.42-1.4c5.16-5.16,4.89-4.92,0-10.38C300.5,159,282.1,142.33,265,124.4c-3.1-3.24-5.42-4-8.36-.11a50.94,50.94,0,0,1-4.56,4.62c-4.57,4.58-4.58,4.63-.15,9.53.67.74,1.41,1.42,2.1,2.14.91.94,1.41,1.95.18,3-1,.83-1.87.25-2.62-.48a41.28,41.28,0,0,1-4.22-4.25c-2.58-3.35-4.53-2.17-6.62.5-1.34,1.71-2.31,5.79-5.05,3.5-3.4-2.83,1.17-4.35,2.59-6,5.92-6.78,13.54-11.81,19.76-18.19,7.77-8,15.41-16.08,23.27-24,.83-.82,1.64-1.66,2.52-2.42,1.2-1,2.28-.16,3.14.5,1.49,1.14.1,1.9-.53,2.81-1.77,2.59-6.69,3.13-6.24,6.39.32,2.42,3.74,4.41,5.78,6.59.71.75,1.36,1.58.6,2.62a2.17,2.17,0,0,1-3.09.6,11.37,11.37,0,0,1-1.52-1.27c-6.13-5.36-6.13-5.36-11.92.45-1.06,1.06-2.16,2.09-3.12,3.24-2.27,2.68-2.35,4.14.65,7.41,9.22,10,20.11,18.37,28.83,28.88,1.67,2,4,3.45,5.84,5.34,6.7,6.94,13.38,13.89,19.93,21,2.15,2.33,3.85,2.85,6,.11a47,47,0,0,1,3.5-3.56c2.07-2.16,5.29-4.11,5.8-6.6.47-2.34-3.58-3.76-5.22-6-.63-.85-2.15-1.42-1-2.86A9.72,9.72,0,0,1,332.62,156.68Z"/><path class="cls-2" d="M284.07,32c-1.9-.63-3.1-2.33-4.36-3.8-2-2.34-3.59-2.9-5.84-.17a68.31,68.31,0,0,1-7.4,7.43c-2.3,2-2.19,3.43-.06,5.65,5.64,5.84,11.33,11.6,17.2,17.22C295,69.21,306,80.54,317.15,91.7c.71.7,1.43,1.39,2.12,2.12,5.73,6.14,5.73,6.14,11.91,0L333,92c5.53-5.59,5-4.32.11-9.48-1-1.1-3.74-2.07-1.3-4.26,2.22-2,3.45.28,4.39,1.53,3.11,4.14,6,4.45,9,0a22.27,22.27,0,0,1,2.1-2.14c1-1.09,1.91-1.08,2.91,0a1.87,1.87,0,0,1-.13,3c-10.37,9.79-19.61,20.71-30.56,30-5.29,4.47-9.58,10.12-14.41,15.15-1.14,1.19-2.31,3.41-4.42,1.27-2.29-2.31.52-3.18,1.54-4.25,5.22-5.44,4.79-4.15-.33-9.52-1.07-1.13-3.75-2.22-1.59-4.32,1.88-1.83,3.26.19,4.58,1.38.37.33.7.7,1.06,1.06,4.2,4.15,4.46,4.13,8.06-.76.58-.8,1.14-1.63,1.73-2.43,1.67-2.21,6.25-2.85,5.57-5.66s-3.52-5.64-6-7.68C306.72,88,299.42,79.8,291.84,72,283,62.83,273,54.74,265.11,44.61c-2.68-3.46-5.09-3.82-7.72-.07a14.69,14.69,0,0,1-1.75,1.78c-2.21,2.26-5.62,4.21-6.32,6.87s2.74,5.17,4.76,7.47c.7.79,1.25,1.64.38,2.62-1.09,1.22-2.07.59-3-.28a16.69,16.69,0,0,1-2.8-2.84c-2.83-4.53-5.4-3.53-8,.13a12.79,12.79,0,0,1-1.75,1.78c-1,1-2,2.57-3.61.72s-.27-3.18,1.12-4c2.95-1.73,5-4.33,7.4-6.67q18.78-18.68,37.48-37.44c.82-.83,1.65-1.65,2.5-2.44s1.5-.37,2.15.27,1,1.34.29,2.15a28.56,28.56,0,0,0-2.41,2.52c-5.31,7.37-5.52,5.1.93,10.37.85.69,2.25,1.19,1.72,2.66A2.7,2.7,0,0,1,284.07,32Z"/><path class="cls-2" d="M271.94,158.89c-1,1-1.75,1.88-2.56,2.69-6.93,6.88-13.76,13.83-21.07,20.35-7.8,6.94-14.56,15-21.88,22.53-1.7,1.74-4.05,5.17-6.3,2.57-1.93-2.24,1.79-4.23,3.62-5.37,3.18-2,3.52-3.5.58-5.83a38,38,0,0,1-3.55-3.52c-.93-1-2.06-2-.56-3.33,1.25-1.12,2.45-.62,3.54.38a9.31,9.31,0,0,1,.68.72c5.5,6.12,5.52,6.14,11.28.13,1.13-1.19,1.81-2.92,3.1-3.85,4.67-3.38,2.48-6.67-.46-9.14-10-8.4-18.22-18.42-27.4-27.53-9-8.9-18.44-17.3-27.18-26.43-2-2.13-3.44-1.92-5.27.13a43.23,43.23,0,0,1-6.37,6.32c-4,3-3.29,5.73-.25,8.73.83.82,1.65,1.65,2.43,2.52a1.61,1.61,0,0,1-.14,2.59,1.56,1.56,0,0,1-2.23-.15,19.88,19.88,0,0,1-2.85-2.8c-3-4.25-5.89-3.22-8.81.06-.67.75-1.42,1.41-2.12,2.13s-1.51,1.27-2.54.36-.94-1.9.07-2.9c5.45-5.39,10.5-11.25,16.4-16.08a86.33,86.33,0,0,0,15.47-16.11c4.38-6.08,10.92-9.7,15.64-15.29.9-1.07,1.83-1.27,2.9-.1s1.11,2,.08,3-2,2.44-3.27,3c-4.44,2.06-2.84,3.89-.4,6.52,1.45,1.55,6,3,3,5.8s-4.6-1.58-5.92-3.22c-3-3.7-4.74-2.9-6.57.75a9,9,0,0,1-1.22,1.56c-2.29,2.8-7.19,4.87-6.71,8,.44,2.88,4.73,5.17,7.31,7.72,7.31,7.2,14,14.94,22.12,21.42,4.83,3.87,8.12,9.59,12.51,14.09,5.33,5.47,11.09,10.51,16.63,15.77,1.15,1.09,2,2.11,3.67.51a104.14,104.14,0,0,1,8.21-7.22c3.12-2.46,2.68-4.44-.26-6.63-2.19-1.63-6.79-3.24-4.07-6.3,2.11-2.37,4.66,1.83,6.37,3.7,2.35,2.58,4,2.84,6.22,0A38.42,38.42,0,0,1,268,157a1.54,1.54,0,0,1,2.24-.06A21.47,21.47,0,0,1,271.94,158.89Z"/><path class="cls-2" d="M150.79,260.58c-.84,1.5-1.56,3-3.46,2.07a4.81,4.81,0,0,1-1.84-1.66c-3.32-5-6.43-4.36-9.7.1-1,1.41-2.66,3.24-4.53,1.38-2.14-2.11.52-3.22,1.63-4.31,5.69-5.62,5.68-6.41-.75-11.35-7.35-5.64-7.61-5.87-14,1.13-9.16,10-20,18.45-28.74,28.8-7.13,8.42-15.63,15.33-23.38,23.05-2.35,2.35-2.3,4.07-.37,6.16C68,308.52,70.48,311,73,313.43c1.78,1.73,3.44,1.51,5-.45a40.59,40.59,0,0,1,3.87-3.89c.92-.86,1.82-2.34,3.32-1.07s.28,2.34-.61,3.33l-.35.35c-5.11,6.12-5.08,6.09.32,11.5.9.89,3.06,1.67,1.54,3.53-1.77,2.14-3.35.44-4.62-.75-6.86-6.48-13.93-12.7-20.2-19.88C53.87,297.59,45.41,290,37.43,282c-1.25-1.25-3.26-2.64-1.52-4.57,2.05-2.27,3.17.39,4.32,1.46,5,4.61,4.91,4.65,10.19-.28,1.25-1.16,2.5-3.35,4.41-1.06s-.66,2.94-1.94,3.91c-5.19,3.89-5.21,4.19-1.14,8.92a50,50,0,0,0,6.06,6.48c2.89,2.38,4.44,2.18,6.88-.43,8.41-9,17.1-17.71,25.71-26.47,9.43-9.59,19.26-18.82,28.94-28.19,2.54-2.45,3.12-4,.29-6.78-2.33-2.29-4.36-5-6.59-7.44-2.05-2.26-3.54-2.3-5.65,0-1.91,2.05-5,5.68-7,3.7-2.54-2.58,2-4.46,3.73-6.13,2.79-2.7,1.09-4-.58-6.09-1.41-1.79-6-3-3.16-6s4.34,1.49,5.81,3c7.8,7.94,15.62,15.9,23.48,23.75,6.28,6.28,13.59,11.59,19.15,18.69C149.45,259.15,150.14,259.85,150.79,260.58Z"/><path class="cls-2" d="M235.65,154.75a22.74,22.74,0,0,0,6-4.41c1.07-1.09,2.37-3.16,4-1.29,1.28,1.45-.56,2.65-1.52,3.71-5,5.52-5,5.48.14,11.19.92,1,3.51,1.8,1.68,3.88s-3.58.34-4.57-1c-8.2-11-20.15-18.27-28.58-29.14-4.53-5.84-10.76-10.34-16.17-15.51-1.07-1-3.14-2.07-.92-3.92s2.72.17,3.75,1.48c4.23,5.42,5.16,5.45,10,.66l2.47-2.47c.86-.86,1.65-1.69,2.91-.46s.53,2-.36,2.91c-1.89,1.88-3.75,3.79-5.66,5.65-1.12,1.09-1.73,2.08.07,3.11a26.54,26.54,0,0,1,7.26,6.78c3.24,4,5.78,3.11,8.89,0,11.36-11.51,22.9-22.84,34.25-34.35,7-7.07,13.64-14.43,20.63-21.48,2-2,1.62-3.11-.21-4.77a78.73,78.73,0,0,1-7.4-7.44c-2.09-2.49-3.41-2-5.53.06-1.77,1.72-3.69,6.23-6.43,3.4s1.88-4.61,3.63-6.2c3.18-2.88,2.86-4.75-.59-6.73a8.14,8.14,0,0,1-2-1.44c-.8-.87-2.49-1.52-1.19-3.21s2.21-.54,3.37.19a42.88,42.88,0,0,1,10.13,9.56c6.77,8.3,15.53,14.51,22.63,22.43,4.21,4.71,8.59,9.26,12.84,13.92.69.74,2.24,1.44.84,2.8a1.83,1.83,0,0,1-2.72,0c-4.33-6.11-8.36-5.2-12.56.17a2.11,2.11,0,0,1-3.47,0c-1.38-1.66.24-2.36,1.05-3.24,6.65-7.19,6.63-7.55-1-13.6-6.36-5-6.62-5.27-12.26,1-9.15,10.12-19.2,19.31-28.87,28.91-8.36,8.3-15.66,17.66-25.06,24.93-1.66,1.29-2.53,2.91-.38,4.46a80.67,80.67,0,0,1,9.63,8.65A7.74,7.74,0,0,0,235.65,154.75Z"/><path class="cls-2" d="M116.6,105.79c-2.36,2-4.68,3.83-6.92,5.78-1.51,1.3-2.86,2.79-4.39,4.07-1.91,1.59-1.68,2.72.22,4.28a173.42,173.42,0,0,1,21.82,21.79c2.87,3.38,6.73,5.91,9.86,9.1,7.34,7.46,14.42,15.18,21.77,22.64,6.72,6.83,6.81,6.74,13.39.16,5.8-5.8,5.77-5.77.54-12.21-.88-1.08-3.45-1.92-1.32-3.9s2.73.77,3.89,1.57a12,12,0,0,1,2.48,2.45c2.33,2.86,4.44,3.38,6.35-.38.22-.44.52-1,.9-1.15,1.75-.54,3.08-3.78,5-1.81,2.16,2.19-1,3.26-2.1,4.62-7.69,9.9-17.77,17.42-26.31,26.46-5.7,6-11,12.44-17.61,17.52-1.18.9-2,3.11-4,.94-1.75-2,.41-2.44,1.34-3.37.23-.24.48-.46.72-.69,5.06-4.73,5.06-4.73.2-9.62-.7-.71-1.41-1.42-2.1-2.14s-1.27-1.65-.48-2.63a2.19,2.19,0,0,1,3.12-.48,12.23,12.23,0,0,1,1.51,1.3c6,5.33,6,5.33,11.91-.58,7.43-7.42,7.48-7.49-.74-14.18-5.69-4.64-10.33-10.24-14.91-15.88-2.56-3.15-6.11-5.1-8.86-8-6.2-6.49-12.28-13.09-18.57-19.49-3.25-3.3-6.9-6.21-10.3-9.38-1.67-1.56-3.14-1.61-4.73,0-1.27,1.32-2.59,2.59-3.89,3.88-6.53,6.53-6.54,6.54-.76,13.73.73.9,1.85,1.73.8,3-1.28,1.52-2.34.42-3.32-.52-.73-.69-1.41-1.42-2.14-2.1-2.5-2.33-5-4-7.67-.15-.53.75-1.67,1.06-2.46,1.67-1,.79-2,1.35-3,.09s.06-2.13.85-3c.45-.49.92-.95,1.4-1.42,10.1-9.82,19.09-20.72,30.26-29.51,5.29-4.16,9.36-9.85,14.07-14.76,1-1.06,2.14-3.22,4-1.23,1.58,1.69.1,3-1.07,4.24-.34.36-.7.71-1.05,1.06-4.9,5-4.88,5-.32,10,.92,1,2.91,2,1.36,3.64-1.85,2-2.81-.43-4-1.33C119.72,108.64,118.7,106.57,116.6,105.79Z"/><path class="cls-2" d="M86.45,231.3c-.88.72-2.51,2.15-4.25,3.44-3.17,2.35-3.08,4.37-.13,7.09,1.47,1.37,5.64,2.9,2.94,5.51-2.15,2.08-3.77-1.69-5.22-3.12-14.69-14.45-29.25-29-43.87-43.55-.69-.69-1.85-1.13-1-2.33s2.19-1.49,3-.54c5,5.62,9.55,5.76,14-.64.86-1.25,2-.54,3,.35,1.26,1.18.42,2-.37,2.92-1.84,2.25-6.08,3.5-5.4,6.52.55,2.51,3.77,4.43,5.83,6.59,5.57,5.84,5.75,6,11.76.55,7.09-6.47,14.38-12.86,19.76-20.89,3.72-5.54,9.43-8.82,13.9-13.48,6.8-7.07,13.39-14.39,21.07-20.56,1.19-1,1.19-1.57.45-2.85a30.28,30.28,0,0,0-5.2-6c-6-5.95-5.94-5.89-12-.11-1.06,1-2,3.95-4.22,1.7-2.59-2.58.48-3.2,1.84-4.31,5.35-4.35,5.28-4.27.55-9.28-1.3-1.37-4.72-2.61-2.75-4.94,2.18-2.57,3.91,1,5.1,2.08,6.71,6.15,13.87,11.74,19.85,18.78,7.1,8.36,15.41,15.67,23.07,23.55,1.17,1.21,4.21,2.35,2.06,4.65s-3.52-.31-4.89-1.6c-4.64-4.37-4.57-4.34-9.69.46-1.07,1-2,3.94-4.2,1.53-1.85-2,.68-3.11,1.72-3.82,4.84-3.29,4.35-6.19.81-10.51-7.21-8.78-7.33-9-15.31-1.16-8.56,8.38-17.4,16.46-25.82,25-5,5.05-9.4,10.71-14.16,16a85.76,85.76,0,0,1-12.77,11.07c-2,1.5-2.65,2.52-.56,4.59,3.07,3,5.82,6.36,8.69,9.58,1.38,1.55,2.43,1.84,3.85-.2a37.69,37.69,0,0,1,4.85-5c.76-.75,1.66-1.15,2.64-.31C86,228.53,86.68,229,86.45,231.3Z"/><path class="cls-2" d="M221.85,367.85c-1.23-.79-3.18-1.75-1.57-2.94,6.51-4.78,7.25-9.25.12-14-1.06-.71-.64-1.71.23-2.5s1.66-1.2,2.64-.41a26.32,26.32,0,0,1,2.18,2.05c4.77,4.72,4.77,4.72,9.47,0L236,349c6.66-6.53,6.75-6.62-.15-13.57-13.36-13.43-26-27.53-40.11-40.26-4.05-3.65-7.45-8-11.17-12-1.32-1.42-2.76-2.62-4.69-.94-3.24,2.85-6.41,5.78-9.68,8.58-1.68,1.44-1.59,2.54,0,4s2.74,3.31,4.19,4.9c.74.82,2.22,1.31.94,2.72a1.94,1.94,0,0,1-3.09.13c-4.66-6.5-9.15-6.91-13.9-.08-.87,1.26-2.1.28-2.95-.6-1.22-1.27-.2-2.11.65-2.89,3.78-3.48,7.71-6.82,11.37-10.43C179,277.05,190.47,265.45,202.07,254c1.11-1.09,2.25-3.81,4.31-1.68s-.35,3.52-1.66,4.88a9.85,9.85,0,0,1-2.05,1.39c-3.14,1.94-3.62,3.94-.38,6.35a32.4,32.4,0,0,1,3.89,3.88c.74.79,1.11,1.69.17,2.62s-1.8.52-2.62-.17c-.26-.22-.48-.47-.73-.69-6.82-5.76-6.82-5.76-13.21.64-6.08,6.07-6.08,6.07.11,12.27,12.37,12.37,24.79,24.69,37.09,37.13,5.13,5.19,10.1,10.56,15,16,2.25,2.51,4.11,3.07,6.32.12a28.74,28.74,0,0,1,2.45-2.49c2.29-2.4,6.05-4.61,6.44-7.29.42-2.92-3.93-4.83-6.17-7.2-.53-.56-1.62-.82-.79-1.87.62-.79,1.39-1.67,2.48-1.19a14.89,14.89,0,0,1,2.35,1.83c6,4.47,6.06,4.49,11.95-.56,1.2-1,2.19-2.11,3.79-.59s.66,2.34-.5,3.21c-10.31,7.77-17.9,18.25-27.07,27.15-6.43,6.25-13,12.37-19.52,18.54C223.11,366.81,222.47,367.32,221.85,367.85Z"/><path class="cls-2" d="M85.05,294.51c-2.7,3.38-4.11,5.24-5.63,7-1,1.18-2.13,2.2-3.76.68-1.81-1.69-.32-2.67.76-3.6,15.56-13.37,29.09-28.82,44-42.9,1.48-1.39,2.83-5,5.16-3.22,3.13,2.42-1,4-2.19,5.18-4.59,4.4-1.61,7,1.61,9.92,1,.9,2.94,2,1.49,3.62-1.8,2-3-.18-4-1.22-6.42-6.55-5.38-6.05-12.17.71-6.6,6.57-6.56,6.61-.16,13,17.45,17.44,35,34.82,52.26,52.39,2.62,2.66,4.23,3.05,6.56,0a85.65,85.65,0,0,1,6.86-7.88c2.28-2.33,0-3.3-1-4.91-1.15-1.92-5.92-3-2.9-5.86s4.36,1.7,6,3.24c2.41,2.31,4.18,3,6.38,0a14.58,14.58,0,0,1,2.11-2.12c1.28-1.13,2.44-3.33,4.44-1.11,2.14,2.39-.59,3.41-1.76,4.14-4.94,3.1-7.83,8.1-11.83,12-6.51,6.42-13.52,12.36-19.76,19-4.09,4.36-8.61,8.22-12.74,12.51-1.24,1.3-2.69,3.12-4.58,1.24s.63-2.75,1.38-4c1.23-2.12,5.19-2.6,4.68-5.05-.43-2.08-3.23-3.62-4.89-5.48-.9-1-2.85-2-1.29-3.65s2.58.21,3.66,1.06c.39.31.7.71,1.07,1.05,5.13,4.72,5.14,4.72,9.88,0l3.89-3.89c4.26-4.27,4.36-5.57-.21-9.46-8.47-7.21-15.76-15.63-23.78-23.29s-15.33-15.7-23-23.54c-2-2-4.46-3.63-6.26-5.65-3.64-4.07-6-2.58-8.6.76a36.67,36.67,0,0,1-3.16,3.2c-5.18,5.18-5.17,5.17-.11,10.56.87.93,2.28,1.86,1,3.33s-2.82,1-3.87-.33C88.85,299.94,87.38,297.73,85.05,294.51Z"/><path class="cls-2" d="M177.89,86.88a20.64,20.64,0,0,0-5.2-5c-1.23-1-4.42-1.77-2-4.42,2-2.23,3.12.17,4.42,1.22.39.31.7.72,1.07,1,5.31,4.73,5.31,4.73,10.43-.31l2.15-2.09c.78-.76,1.48-.46,2.15.18s1.09,1.31.38,2.14-1.37,1.46-2.07,2.16q-21.91,21.92-43.83,43.82a19.18,19.18,0,0,1-2.2,2,2.14,2.14,0,0,1-3.13-.27c-1.09-1.21-.23-2.11.61-3a9.32,9.32,0,0,1,.76-.65c6.07-5,6-5,.62-10.25-1-1-3.4-1.75-1.57-3.9s3.15-.34,4.46.87c5,4.63,5,4.64,10-.38,2.22-2.24,5.66-4.26,6.23-6.89s-3.73-3.91-5.63-6.08C139,78.24,120.5,61.3,103,43.43c-2-2.06-3.18-1.55-4.74.27-2.7,3.15-5.42,6.29-8.3,9.27-1.43,1.46-1.24,2.42.13,3.67,1.72,1.58,3.31,3.28,5,4.94a1.4,1.4,0,0,1,.15,2.17c-.72.77-1.49,1.4-2.51.41-.24-.23-.51-.44-.73-.68-4.34-4.79-8.8-6.62-13.69-.67a1.7,1.7,0,0,1-2.93,0c-1.16-1.36-.08-2.14.75-2.88,2.11-1.87,4.43-3.51,6.42-5.5C95,41.89,108.05,29.8,119.66,16.32a19.6,19.6,0,0,1,1.76-1.77c1.43-1.27,3-3.65,4.89-1.31s-1.25,2.82-2.41,3.83c-4.68,4.09-4.69,5.51-.36,10.12,1.31,1.39,4.8,2.8,2.78,4.9-2.35,2.43-4.93-.91-5.9-2.45-2.94-4.7-4.66-4.18-7.47.12-1.65,2.53-4.61,4.23-7,6.26-1.84,1.55-1.65,2.86,0,4.52C115.32,50,124,60,134,68.85c9.52,8.42,18,18.07,26.63,27.45,3.43,3.72,6.06,3.09,9.1,0,2.2-2.27,4.48-4.47,6.7-6.73C177.11,88.83,178,88.21,177.89,86.88Z"/><path class="cls-2" d="M197.7,195.58c1.41,2,2.74,3.87,4.09,5.76,1.87,2.61,3.59,2.76,5.8.14,1.94-2.31,5.65-6,7.27-4.21,2.77,3.15-2.35,4.86-4.23,6.82-2.51,2.64-2.38,4.34.28,6.39a42.11,42.11,0,0,1,4.6,3.79c5.52,5.67,6,6.12,10.83.12,6.27-7.81,14.47-13.61,20.74-21.37,2.16-2.67,5.06-4.78,7.81-6.9,9.4-7.27,16.15-17.17,25-25,2.66-2.34,2.2-4-.21-6a27.9,27.9,0,0,1-2.83-2.82c-2-2.18-3.06-5.86-6-6.32-3.2-.49-4.71,3.22-7,5.07-1.33,1.1-2.7,1.6-3.9.1s.31-2.38,1.16-3.33c1.83-2,5.75-2.63,5.61-5.81-.12-2.8-3.71-3.5-5.51-5.39-1-1-2.7-2-1-3.66,1.44-1.39,2.8-.54,3.89.63,5.1,5.47,10.91,10.23,15.53,16.19,4.82,6.21,11.26,10.81,17.1,16,4.75,4.19,9,8.85,13.66,13.12,1.05,1,1.89,1.9.4,3.26-1.33,1.22-2.25.66-3.44-.27-5.89-4.58-5.89-4.53-11.3,0-1.13.94-2.18,3.34-4,1.36s.66-2.9,1.67-4c5.63-6,5.66-6-.41-11.42-8-7.19-8.43-7.55-15.73.67-12.29,13.82-26.55,25.61-39.3,38.94-4.21,4.4-8.46,8.83-12.9,13-1.68,1.59-2,2.72-.1,4.4a70,70,0,0,1,7.4,7.42c2.57,3.12,4.49,2.93,7.11,0,1.35-1.5,3.06-5.21,5.19-3.18,2.75,2.61-1.44,4.13-2.9,5.5-2.76,2.59-2.93,4.26.3,6.38a25.41,25.41,0,0,1,3.89,3.87c1.05,1.09.64,2-.27,3-1.14,1.24-2.1.73-2.89-.29-3.15-4.09-8-6.31-11-10.71-2.19-3.19-6.05-5.16-8.7-8.1-8.71-9.62-17.87-18.8-27-28-.73-.73-2.18-1.34-1.26-2.81A21.82,21.82,0,0,1,197.7,195.58Z"/><path class="cls-2" d="M156.52,234.78c2.11-.87,3-2.7,4.19-4.25.9-1.13,1.65-3.45,3.74-2.32,2.28,1.24,1.4,2.74,0,4.4-4.7,5.47-4.59,5.49.17,10.59,1.06,1.14,3.74,2.24,1.52,4.32-1.91,1.78-3.34-.18-4.56-1.45-11-11.56-23-22.14-33.51-34.26-3.31-3.83-7.84-6.6-11.69-10-.9-.8-3-1.75-1-3.5,1.39-1.22,2.71-.87,3.91.46.89,1,1.92,1.85,2.81,2.84,1.9,2.12,3.63,1.86,5.45-.13,1.35-1.47,2.83-2.83,4.26-4.23,1-1,2-.83,3,.11s.92,2-.12,2.91a3.35,3.35,0,0,0-.69.72c-1.3,2.4-6.72,3-5,5.76,2.76,4.52,6.34,8.95,11.22,11.7,1.51.86,2.28-1,3.13-1.85,7.15-7.15,14.42-14.19,21.63-21.28,11.46-11.27,22.19-23.32,34.47-33.76,3-2.56,3.92-4.65-.32-7.18-2.5-1.5-4.53-3.94-6.42-6.25-2.48-3-4.39-2.27-7,0-1.6,1.39-3,5.61-5.55,3-2.17-2.17,1.57-3.9,3.06-5.18,3.35-2.85,3-5-.25-7.43a10.53,10.53,0,0,1-1.77-1.76c-.89-1.07-2.78-2.08-1-3.65s2.77.33,3.63,1.35c8.08,9.53,18.56,16.48,27.06,25.64,5.83,6.28,11.79,12.56,18.06,18.47,1.06,1,3.25,2.2,1.19,4-1.66,1.42-2.58-.64-3.64-1.51a12.1,12.1,0,0,1-2.12-2.11c-2.12-2.8-3.9-2.63-6.37-.11-1.74,1.78-3.71,6.24-6.39,3.62-2.46-2.4,1.64-4.78,3.52-6.39,3-2.58,2.41-4.11-.15-6.61-9.27-9.05-9.2-9.17-18.21-.19-12.71,12.66-25.35,25.4-38.09,38C154.91,211,150.83,214.4,147,218c-3.09,2.9-3.57,5.77.16,8.69,2.74,2.14,5.27,4.55,7.9,6.83C155.51,234,156,234.38,156.52,234.78Z"/><path class="cls-2" d="M351.9,318.21c-.21,1.51-1.39,2.29-2.34,3.16-6.85,6.27-13.82,12.42-20.6,18.77a80.6,80.6,0,0,0-6.57,7.45c-5.54,6.64-12.35,12-18.31,18.23-.87.91-1.7,3-3.55,1.19s.18-2.56,1-3.58c4.84-5.88,4.84-5.86-.36-11.71-.91-1-2.77-2.08-1-3.65s2.61.47,3.65,1.35,1.88,1.89,2.86,2.78c2.16,1.95,4.12,2.38,6.33-.19,2.82-3.26,7.62-5.73,8.18-9.77.6-4.39-5.06-6.06-7.77-9.09-7.1-7.92-14.29-15.8-22.06-23-9.61-9-19-18.16-28.24-27.48-1.76-1.78-3-2.25-4.76-.11-1.47,1.79-3.26,3.33-4.91,5C248,293,248,293,253.4,299c.86,1,3.21,1.74,1.74,3.46s-2.89.09-4.21-1c-2.11-1.67-3.42-5.43-6-5-2.14.34-3.81,3.47-5.78,5.26-1.08,1-2,3.2-3.92,1s.16-2.6,1.36-3.77q17.48-17.14,34.8-34.44c3.78-3.75,7.51-7.56,11.32-11.29,1-1,2-2.74,3.66-1,1.35,1.44-.19,2.36-1,3.32-.43.5-.94.94-1.4,1.42-4.72,4.77-4.72,4.77.1,9.67.46.48.94.95,1.41,1.42.85.85,1.72,1.62.48,2.9s-1.92.45-2.92-.3c-2.18-1.62-3.38-5.51-6.38-4.74-2.26.59-3.94,3.39-5.87,5.22-6.8,6.43-6.79,6.43-.09,13.13,16.84,16.85,33.79,33.59,50.44,50.62,3.34,3.41,5.42,3.37,8.15-.19a30.27,30.27,0,0,1,4.23-4.24c5.36-4.62,5.35-4.93-.3-9.6-1-.85-3.87-1.05-1.63-3.45,1.78-1.91,2.89-.24,4.1.86,5.56,5,5.56,5,10.87.12a7.89,7.89,0,0,1,2.33-1.82A2.07,2.07,0,0,1,351.9,318.21Z"/><path class="cls-2" d="M157.39,155.78c1.53-1.95,2.89-3.85,4.44-5.59.93-1,2.09-2.69,3.64-.89,1.26,1.46-.32,2.35-1.13,3.31-.43.5-.94.95-1.41,1.42-4.51,4.56-4.37,4.41.24,8.89,1.2,1.17,5.13,2,2.87,4.47s-4-.93-5.49-2.37q-15.13-14.76-29.61-30.16c-4.26-4.54-9.12-8.7-13.66-13.08-1-.94-2.79-2-1.18-3.65s3-.51,4.21.82c.54.62.82,1.48,1.39,2.06,2.31,2.33,4.39,3.56,7.27.23,1.4-1.62,3.07-6.1,5.71-3.52s-1.84,4.24-3.4,5.71c-2.8,2.64-2.74,4.27.14,6.63a40.54,40.54,0,0,1,7,7.12c2.18,3,3.83,2,5.43-.11,6-7.88,13.24-14.53,20.43-21.16,10-9.26,19.14-19.35,28.79-28.95,2.58-2.57,5.44-4.85,8.2-7.24,1.63-1.41,1.56-2.16-.28-3.75-3.36-2.9-7.5-5-9.88-9-1.08-1.8-2-1-3.13,0-1.74,1.53-3.6,2.92-5.41,4.38-1.19,1-2.47,1.23-3.52,0-1.21-1.45.48-1.82,1.11-2.67,1.8-2.41,6.27-3.12,6.16-6-.09-2.64-3.55-4.54-5.91-6.38-1.14-.89-1.4-1.84-.55-3s2-.9,3,0l1.07,1Q205.3,75.35,226.7,96.31c1.89,1.86,5.5,4.74,3.54,6.66-2.69,2.64-4.4-1.9-6.17-3.55-2.24-2.08-3.73-2.28-5.68.1a40.62,40.62,0,0,1-3.9,3.86c-1.13,1.07-2.1.52-3-.39-1.25-1.25-.41-1.83.59-2.72,7.15-6.32,7.13-6.35.58-13.08-6.83-7-6.84-7-13.73-.14-10.46,10.43-20.56,21.25-31.46,31.21a282.44,282.44,0,0,0-21.19,22.32c-1.82,2.07-2.2,3.39,0,5.28,3,2.59,5.87,5.36,8.8,8C155.51,154.32,156,154.68,157.39,155.78Z"/><path class="cls-2" d="M341.31,232.18a7.18,7.18,0,0,1-1.52-1.17,1.47,1.47,0,0,1,.45-2.19c7.28-4.54,4.95-9.13.19-13.82-.88-.87-1.49-1.94-.24-3s2.18-.1,3,.74c8.47,8.94,17.65,17.15,25.79,26.44,5.56,6.35,12.17,11.78,18.31,17.63,1,.92,1.89,1.88,2.81,2.84.72.77,1.26,1.64.39,2.62-1.08,1.23-2.06.61-3-.27-.6-.57-1.18-1.17-1.78-1.75-4.57-4.49-4.54-4.47-8.74.39-1.27,1.48-2.93,3.5-4.89,1.59-1.79-1.74.66-2.87,1.66-3.94,4.34-4.67,4.37-4.64-.3-9.31-8.22-8.23-8.16-8.16-16.53.05q-16.74,16.43-33.69,32.66c-6,5.72-10.14,13.14-17,18.06-2.44,1.76-1.91,3.46.15,5.22,1.51,1.29,2.84,2.81,4.26,4.21,1.78,1.76,3.31,4.38,5.43,5,2.8.86,2.9-3.34,5.08-4.44,1.51-.77,2.75-3.1,4.65-1.26,2.25,2.2-.87,2.88-1.6,4.25a1.61,1.61,0,0,1-.34.35c-5.62,5.67-5.63,5.68.66,10.75,1,.84,3.24,1.13,1.35,3.2-1.15,1.26-2.31,1.18-3.39-.05-14.29-16.23-31.56-29.54-45.32-46.27-.88-1.07-2.75-2.12-1-3.67s2.57.55,3.67,1.36a9.37,9.37,0,0,1,.71.7c4.68,4.6,4.68,4.6,9.25,0a19.76,19.76,0,0,1,2.58-2.35,2.13,2.13,0,0,1,3.1.49c.79,1,.24,1.86-.49,2.63a7.86,7.86,0,0,0-.69.73c-1.76,2.5-6.71,4.36-5.39,7,2.31,4.62,6.69,8.2,11.31,11,2.05,1.22,3-.88,4-2,8.43-9.44,17.15-18.62,26.42-27.21s18.08-17.2,26.88-26c5.12-5.13,5.08-5.17.19-10.07l-1.07-1.06c-2.14-2.09-4-5.31-6.52-6-2.67-.67-4.51,3.24-7.09,4.6A15.37,15.37,0,0,0,341.31,232.18Z"/><path class="cls-2" d="M366.65,159.69c-1.84,1.62-2.63,2.22-3.29,2.93-6.36,6.81-13.62,12.72-19.33,20.16-1.47,1.93-3.74,3.25-5.67,4.81-11.65,9.48-20.59,21.68-31.72,31.67-2.45,2.19-2.63,3.9,0,6a18.67,18.67,0,0,1,3.1,3.24c5.57,7.3,5.55,7.31,12.18,1.6.95-.83,1.87-2.37,3.31-1,1.74,1.62-.11,2.58-1,3.66a9.39,9.39,0,0,1-.7.71c-5.27,5.39-5.58,4,.13,9.8.7.71,1.42,1.41,2.11,2.13s1.2,1.27.49,2.12A1.84,1.84,0,0,1,324,248a8.9,8.9,0,0,1-2.33-1.82c-7.75-8.23-15.91-16.06-23.72-24.24-6.62-6.93-13.83-13.42-20.67-20.21-1-1-3.93-2-1.69-4.18s3.1.87,4.18,1.88c5,4.7,5,4.77,9.68.08.83-.82,1.66-1.64,2.52-2.42,1.18-1.07,2.13-.42,3,.48,1.24,1.29.42,2-.71,2.68a16.66,16.66,0,0,0-2.36,1.82c-4.81,4.42-4.81,4.86.33,8.81,3.25,2.51,5.43,8.07,9.21,7.55,3.06-.43,5.41-5.35,8.23-8.12,16.81-16.53,33.61-33.08,50.56-49.47,2.56-2.48,2.65-4-.06-6.2a51.18,51.18,0,0,1-6.71-6.7c-3.06-3.7-5.48-2.82-7.85.6a19.71,19.71,0,0,1-2.09,2.77,2.23,2.23,0,0,1-3.51,0c-1.12-1.2-.21-2.11.6-3,2-2.2,5.43-4.26,5.65-6.62.24-2.54-3.67-4.31-5.64-6.54-.74-.84-1.19-1.54-.29-2.55,1.07-1.2,1.83-.7,2.92.1,4.46,3.27,7.85,7.56,11.62,11.51,6.31,6.59,13.28,12.55,19.76,19,5.29,5.27,10.29,10.84,15.35,16.33.64.69,2.46,1.34,1,2.67a2.91,2.91,0,0,1-4.08.11c-2.21-1.78-2.69-6.39-6.24-5.41-2.41.66-4.17,3.64-6.21,5.59-.87.83-1.62,1.73-2.91.5s-.52-1.94.29-2.92c2-2.4,6.23-4.06,5.78-7-.53-3.41-4.73-5.29-7.06-8.09C369.14,163.37,368,161.54,366.65,159.69Z"/><path class="cls-2" d="M358.21,1.26h6a246.75,246.75,0,0,1-23.08,22.65C330.5,33,322.5,44.67,312.53,54.43c-.95.93-1.83,2-2.85,2.79-6.55,5.46-6.56,5.45-.38,11.62a33.81,33.81,0,0,1,2.45,2.49c2.43,3,4.88,4,7.59.33.29-.39.73-.9,1.13-.93,1.69-.11,2.74-4,4.86-1,1.82,2.53-1.13,3.08-2.24,4.05-4.75,4.12-4.81,4-.45,8.43.94,1,1.89,1.88,2.77,2.88,1,1.19.34,2.15-.56,3-1.33,1.24-1.78,0-2.69-.76-5.12-4.42-8.86-10.15-14.39-14.24-3.52-2.62-6-6.59-9.11-9.82-7.09-7.43-15.64-13.41-21.77-21.8-.94-1.29-3.58-2.27-1-4.28,2.2-1.68,2.78.46,3.68,1.76,2.54,3.68,5,5.27,8.86,1.08,1.21-1.31,3.68-5.67,6.24-2.39S292.61,41.49,291,43c-3.46,3.12-3.47,4.39.25,7.31a32.52,32.52,0,0,1,5.82,5.4c3.09,4,5.33,3.3,8.52-.13,9.61-10.35,19.14-20.84,29.52-30.39A291.61,291.61,0,0,0,358.21,1.26Z"/><path class="cls-2" d="M279.21,1.26h5C278.81,7.6,272.45,13,266.46,18.69,252.75,31.82,239.57,45.51,226,58.83c-2.34,2.3-2.46,3.64,0,5.86a67.69,67.69,0,0,1,6.9,7.82c1.87,2.32,3.25,2.55,5.51.21,1.74-1.79,3.71-6.23,6.44-3.63s-1.78,4.46-3.39,6.21c-2.26,2.43-2.6,4.08.44,5.81.44.25,1,.4,1.26.78,1,1.62,4.73,2.28,2.79,4.86-2.46,3.26-3.75-.56-5.41-1.66-7.19-4.77-11.25-12.64-17.51-18.19-8.73-7.76-16.56-16.37-25-24.35-.73-.68-1.41-1.41-2.12-2.12-.87-.85-1.68-1.63-.45-2.9s2-.44,3,.27c.53.4,1.21.62,1.69,1.06,5.91,5.35,5.93,5.38,11-.6.81-.95,1.32-2.06,2.67-.83.9.83,1.62,1.77.6,3-.53.64-1.14,1.22-1.71,1.82-5.46,5.7-5.56,6.19,1,10.62,2.59,1.75,4.32,5.93,7.21,5.36,2.33-.45,4-4.16,6.07-6.24,13.19-12.92,26.32-25.92,39.72-38.62C271,9.37,275.63,5.9,279.21,1.26Z"/><path class="cls-2" d="M198.21,1.26h6c-7.55,8.19-15.48,16-23.67,23.54A383.78,383.78,0,0,0,151,54.59c-.22.25-.38.55-.58.82-2,2.76-7.46,5.82-6.15,7.5A71.83,71.83,0,0,0,155,74.48c1.23,1,2.16.27,3-.6,1.63-1.66,3.34-3.27,4.8-5.07.91-1.13,1.6-1.6,2.81-.55s1.3,1.86.13,2.9a18.89,18.89,0,0,0-1.41,1.42c-5.32,5.78-5.28,5.74.09,11.53.85.9,3.25,1.7,1.58,3.44s-3,0-4.2-1.14C153.1,78.74,145.45,70,137.22,61.77Q126.82,51.41,116.49,41c-.95-1-2.78-1.84-.91-3.57,1.6-1.49,2.29.2,3.24.94.26.21.47.48.72.69,6.24,5.12,6.27,5.15,11.81-1.14,1-1.16,1.83-1.89,3.27-.71s.94,2.07-.09,3.29c-2,2.36-6.33,4.06-5.66,7s4.11,5,6.46,7.35c5.56,5.52,4.21,5.54,9.77,0q24.78-24.71,49.49-49.49C195.87,4.07,197,2.63,198.21,1.26Z"/><path class="cls-2" d="M118.21,1.26h5C115.75,9,108.81,17.19,100.83,24.52,88.48,35.85,77.26,48.41,65.54,60.43c-1.62,1.66-1.6,3.2.08,4.71,3.08,2.77,6.19,5.51,9.3,8.24,1.44,1.27,2.42.21,3.39-.74,1.3-1.28,2.62-2.55,3.88-3.88,1-1,1.85-1.26,2.92-.09s1.1,2,.1,3c-.23.24-.47.48-.69.73-5,5.88-5,5.87.56,12.2.79.9,2.43,1.62,1,3.23-1.72,1.87-2.64.09-3.58-.88C69.34,73.33,55.08,60.77,42.72,46.34A22.08,22.08,0,0,0,36.83,41C35.72,40.4,35,39.44,36,38.19c.88-1,2.35-1.3,3.08-.3,4.68,6.42,8.75,5.11,12.77-.66.85-1.21,2-.7,3,.21,1.23,1.12.7,2-.25,2.9-.25.23-.48.47-.71.71-5.69,6.23-5.69,6.23.14,12.54.57.61,1.17,1.18,1.76,1.77,5,5,5.44,5,10-.24C76.17,43.17,87.55,32.29,99.17,21.59,106,15.32,111.89,8.07,118.21,1.26Z"/><path class="cls-2" d="M62.21,1.26h6c5.25,3.1,9.15,7.67,12.91,12.29,2.16,2.66,3.91,4.19,6.36.51A6.11,6.11,0,0,1,89,12.71C92.8,9.8,96.83,7,93.21,1.26h15c-8.49,8.3-16.36,17.21-25.34,25.07C76.15,32.2,70.45,39.22,64.25,45.68c-1.07,1.11-2.2,3.11-4,1.38s.27-2.93,1-4.24a4.67,4.67,0,0,1,1.37-1.43c4.13-2.87,3.77-5.62-.11-8.4a17.51,17.51,0,0,1-2.12-2.1,1.4,1.4,0,0,1-.07-2.17,1.74,1.74,0,0,1,2.54-.39c2.87,1.63,10.58.92,13.22-1,.4-.29.87-.49,1.26-.79,5.33-4.18,5.31-4.32.5-9.21C72.57,12,67.41,6.62,62.21,1.26Z"/><path class="cls-2" d="M253.21,1.26h14c-13.56,16.22-29.27,30.35-44,45.45-.95,1-2,2-3.32.5-1-1.25.05-2.12.83-3,.22-.25.47-.47.69-.71,4.69-5,4.66-5,.09-10.52-1.1-1.33-3.05-3-1.5-4.69,2-2.22,3.15.54,4.28,1.6,5.54,5.2,5.5,5.24,11.06-.32,7.35-7.35,7.32-7.32,0-14.73-4.44-4.48-8.76-9.07-13.14-13.61h6c5.55,3.16,9.22,8.38,13.8,12.62,3.82,3.54,4,3.61,7.23-.37a6.62,6.62,0,0,1,.92-1.16C253.89,9.39,255.87,6,253.21,1.26Z"/><path class="cls-2" d="M334.21,1.26h14C337.48,12.15,326.79,23.07,316,33.91c-3.63,3.65-7.14,7.39-10.42,11.36-1.24,1.5-2.83,4.21-5.19,1.88s1.32-3,1.94-4.53c.06-.14.23-.24.35-.35,5-5,5-5-.68-9.52-1.34-1.06-3.87-1.67-1.69-4s3.15.44,4.23,1.45c5.27,4.94,5.26,5,10.4-.2,8.29-8.43,8.05-5.9,0-14.66-4.13-4.47-8.75-8.6-11.71-14.07h4c4.07,1.23,6.37,4.51,8.91,7.58,1.79,2.17,4,3.95,5.9,6.06s3.44,2.31,5.28.08a12.9,12.9,0,0,1,2.85-2.77C334.37,9.58,337.17,6.51,334.21,1.26Z"/><path class="cls-2" d="M173.21,1.26h16c-4.86,6.44-12,10.42-17.54,16.08-9.19,9.38-18.23,18.91-27.4,28.3-1,1-1.94,3.36-3.89,1.18-1.66-1.85.5-2.6,1.37-3.54,4.65-5.06,4.67-5-.16-10.18-1.15-1.23-3.37-2.36-1.2-4.44,2.34-2.23,3.18.59,4.25,1.61,4.69,4.49,4.64,4.57,9.15-.1,2.65-2.74,7.2-5.45,7.34-8.34.16-3.42-4.87-5.77-7.55-8.68-3.72-4-7.57-7.93-11.36-11.89h5c5.43,3.06,9,8.15,13.48,12.31,4.07,3.81,4,3.89,7.84.15a6.51,6.51,0,0,1,.7-.69C173.28,10,177.14,7,173.21,1.26Z"/><path class="cls-2" d="M287.21,1.26h6a37.68,37.68,0,0,0,8.45,8.27c3.58,2.49,6,6.1,8.71,9.44,1,1.21.47,2.11-.43,3-1.23,1.23-2,.58-2.68-.62a8.6,8.6,0,0,0-.79-1.26c-4.32-5.29-4.33-5.29-9.18-.44a1.93,1.93,0,0,1-.35.35c-1.83.95-2.94,5-5.17,2.91-2.82-2.66.84-4.71,2.59-6.16,3.49-2.89,3.61-5.07,0-8C291.7,6.62,289.58,3.79,287.21,1.26Z"/><path class="cls-2" d="M367.21,1.26h5c6.1,5.81,12.55,11.3,17.61,18.13.68.93,2.76,1.64,1.27,3.13-1.34,1.34-3,.89-4.4-.49-5.26-5.21-5.26-5.17-10.61-.17-1.23,1.14-2.28,3.29-4.47,1.25-2.49-2.31.21-3,1.32-4.08,7.19-7.2,6-5.15.36-11.2C371.25,5.65,369.23,3.45,367.21,1.26Z"/><path class="cls-1" d="M47.21,1.26h6Q61.09,9.89,69,18.52c1.18,1.29,3.17,2.47,1,4.45s-3.3-.44-3.85-1.49c-3.14-5.93-6.47-3.75-10-.54-.61.56-1.23,1.12-1.81,1.71-.89.93-1.73,1.52-2.9.29s-.2-2,.49-2.92c1.84-2.58,6.24-3.81,5.6-7.5C57,9.44,53.21,8.1,51.16,5.72,49.87,4.21,48.53,2.74,47.21,1.26Z"/><path class="cls-2" d="M126.21,1.26h6c5.95,5.47,11.85,11,16.88,17.39.84,1.07,2.83,2,1.28,3.65s-2.57-.19-3.65-1.05a4.75,4.75,0,0,1-1.05-1.05c-3.13-4.61-6.11-3.9-9.1.16a28.64,28.64,0,0,1-2.45,2.48c-.78.82-1.54,1.16-2.54.27-1.2-1.08-.83-2,.16-2.9s1.65-1.64,2.47-2.46c4.83-4.84,4.85-5.39-.59-9.23A31.54,31.54,0,0,1,126.21,1.26Z"/><path class="cls-2" d="M206.21,1.26h6c5.54,5.71,11.11,11.4,16.62,17.15,1.15,1.2,3.43,2.41,1.21,4.4-2.64,2.37-2.83-1-3.72-2-4.7-5.4-4.72-5.45-9.8-.38l-2.12,2.12c-.84.84-1.62,1.71-2.89.49s-.62-2,.31-2.9c2.28-2.18,5.53-4.4,5.52-7.36s-4.38-3.55-6.17-6A68,68,0,0,0,206.21,1.26Z"/><path class="cls-2" d="M334.21,1.26C338.8,7,338.77,7,332.74,11.55A23.17,23.17,0,0,0,328.07,16c-2.52,3.36-4.4,2.6-6.88-.15-4.5-5-9.3-9.74-14-14.58h10c2.64,1.07,4.31,3.53,7.16,5.15-.09-2.28-3.16-2.94-2.16-5.15Z"/><path class="cls-2" d="M173.21,1.26c4.44,5.58,4.43,5.57-1.17,10.68-2.44,2.22-4.77,6.19-7.28,6.31-3,.13-5.12-4.18-7.59-6.59-3.43-3.36-6.65-6.92-10-10.4h9a34,34,0,0,1,7.08,4.63c.45-1.95-2.07-2.85-1.08-4.63Z"/><path class="cls-2" d="M253.21,1.26c4.85,3.84,3.64,7.07-.77,10.35-2.61,1.94-3.59,6.91-6.71,6.73s-5.13-4.29-7.59-6.71c-3.41-3.36-6.63-6.9-9.93-10.37h9c2.38,1,4,3.06,6.22,4.62.23-1.93-2.16-2.81-1.22-4.62Z"/><path class="cls-1" d="M93.21,1.26C97.74,7,97.76,7,92,11.92c-1.12,1-2.51,1.65-3.55,2.68-4.51,4.48-4.29,4.35-8.71-1C76.16,9.26,72.07,5.35,68.21,1.26h9c2.55.91,3.44,3.9,6.05,5,.88-2.09-2.13-3.11-1.05-5Z"/><path class="cls-2" d="M82.21,1.26c.83,1,1.65,2,2.52,3s1.92,2.05.42,3.31a2.31,2.31,0,0,1-3.49-.46c-1.57-1.88-3-3.9-4.45-5.86Z"/><path class="cls-2" d="M322.21,1.26a7.09,7.09,0,0,0,3.07,3.06c1.22.69,2.35,1.57,1.06,3.05-1.06,1.22-2.41,1-3.46,0-1.95-2-3.78-4-5.67-6.07Z"/><path class="cls-2" d="M162.21,1.26c.38,2.39,5.63,3.37,2.81,6.08C162.79,9.48,161.5,5,159.3,4.26a5.51,5.51,0,0,1-3.09-3Z"/><path class="cls-2" d="M242.21,1.26c.35,2.4,5.78,3.52,2.73,6.09-2.32,2-3.87-2.44-5.88-3.81a10.19,10.19,0,0,1-1.85-2.28Z"/></g></g></svg>