<svg xmlns="http://www.w3.org/2000/svg" viewBox="0 0 166.64 82.18"><defs><style>.cls-1{fill:#231f20;opacity:0.3;}</style></defs><title>Asset 26</title><g id="Layer_2" data-name="Layer 2"><g id="Layer_1-2" data-name="Layer 1"><polygon class="cls-1" points="41.09 41.09 20.55 20.55 0 0 41.09 0 41.09 41.09"/><polygon class="cls-1" points="82.57 41.09 62.02 20.55 41.48 0 82.57 0 82.57 41.09"/><polygon class="cls-1" points="123.03 41.09 102.48 20.55 81.94 0 123.03 0 123.03 41.09"/><polygon class="cls-1" points="164.5 41.09 143.96 20.55 123.41 0 164.5 0 164.5 41.09"/><polygon class="cls-1" points="43.23 82.18 22.69 61.64 2.14 41.09 43.23 41.09 43.23 82.18"/><polygon class="cls-1" points="84.71 82.18 64.16 61.64 43.62 41.09 84.71 41.09 84.71 82.18"/><polygon class="cls-1" points="125.17 82.18 104.62 61.64 84.08 41.09 125.17 41.09 125.17 82.18"/><polygon class="cls-1" points="166.64 82.18 146.1 61.64 125.55 41.09 166.64 41.09 166.64 82.18"/></g></g></svg>